<mxfile host="app.diagrams.net" modified="2022-01-05T21:24:50.258Z" agent="5.0 (Macintosh; Intel Mac OS X 10_15_7) AppleWebKit/605.1.15 (KHTML, like Gecko) Version/15.2 Safari/605.1.15" etag="BDvtT-Py-p8rw56laypj" version="16.2.2" type="github">
  <diagram id="_7yepGcjmGYdY2V4Bfdq" name="Page-1">
    <mxGraphModel dx="1154" dy="736" grid="1" gridSize="10" guides="1" tooltips="1" connect="1" arrows="1" fold="1" page="1" pageScale="1" pageWidth="1169" pageHeight="827" math="0" shadow="0">
      <root>
        <mxCell id="0" />
        <mxCell id="1" parent="0" />
        <mxCell id="bxGKdZcUwFsUMawT34U8-101" value="" style="group" parent="1" vertex="1" connectable="0">
          <mxGeometry x="460" y="200" width="670" height="600" as="geometry" />
        </mxCell>
        <mxCell id="bxGKdZcUwFsUMawT34U8-36" value="" style="whiteSpace=wrap;html=1;aspect=fixed;rounded=1;sketch=1;fontFamily=Comic Sans MS;fontSize=14;" parent="bxGKdZcUwFsUMawT34U8-101" vertex="1">
          <mxGeometry width="600" height="600" as="geometry" />
        </mxCell>
        <mxCell id="bxGKdZcUwFsUMawT34U8-12" value="" style="verticalLabelPosition=bottom;verticalAlign=top;html=1;shape=mxgraph.basic.rect;fillColor2=none;strokeWidth=1;size=20;indent=5;rounded=1;sketch=1;fillColor=#e1d5e7;strokeColor=#9673a6;" parent="bxGKdZcUwFsUMawT34U8-101" vertex="1">
          <mxGeometry width="600" height="80" as="geometry" />
        </mxCell>
        <mxCell id="bxGKdZcUwFsUMawT34U8-2" value="" style="shape=image;verticalLabelPosition=bottom;verticalAlign=top;imageAspect=0;aspect=fixed;image=data:image/svg+xml,PHN2ZyB4bWxucz0iaHR0cDovL3d3dy53My5vcmcvMjAwMC9zdmciIHhtbG5zOnhsaW5rPSJodHRwOi8vd3d3LnczLm9yZy8xOTk5L3hsaW5rIiB2ZXJzaW9uPSIxLjEiIGlkPSJMYXllcl8xIiB4PSIwcHgiIHk9IjBweCIgdmlld0JveD0iMCAwIDQyIDQyIiBzdHlsZT0iZW5hYmxlLWJhY2tncm91bmQ6bmV3IDAgMCA0MiA0MjsiIHhtbDpzcGFjZT0icHJlc2VydmUiIHdpZHRoPSI0MiIgaGVpZ2h0PSI0MiI+JiN4YTsmI3hhOzxzdHlsZSB0eXBlPSJ0ZXh0L2NzcyI+JiN4YTsJLnN0MHtmaWxsOiNGRkZGRkY7fSYjeGE7CS5zdDF7ZmlsbDojMkM1OTY3O30mI3hhOzwvc3R5bGU+JiN4YTs8Zz4mI3hhOwk8Zz4mI3hhOwkJPHBhdGggY2xhc3M9InN0MCIgZD0iTTIuNjcsNDEuNWMtMS4xOSwwLTIuMTctMC45Ny0yLjE3LTIuMTdWMi42N2MwLTEuMTksMC45Ny0yLjE3LDIuMTctMi4xN2gzNi42N2MxLjE5LDAsMi4xNywwLjk3LDIuMTcsMi4xNyYjMTA7JiM5OyYjOTsmIzk7djM2LjY3YzAsMS4xOS0wLjk3LDIuMTctMi4xNywyLjE3SDIuNjd6Ii8+JiN4YTsJCTxwYXRoIGNsYXNzPSJzdDAiIGQ9Ik0zOS4zMywxQzQwLjI1LDEsNDEsMS43NSw0MSwyLjY3djM2LjY3YzAsMC45Mi0wLjc1LDEuNjctMS42NywxLjY3SDIuNjdDMS43NSw0MSwxLDQwLjI1LDEsMzkuMzNWMi42NyYjMTA7JiM5OyYjOTsmIzk7QzEsMS43NSwxLjc1LDEsMi42NywxSDM5LjMzIE0zOS4zMywwSDIuNjdDMS4yLDAsMCwxLjIsMCwyLjY3djM2LjY3QzAsNDAuOCwxLjIsNDIsMi42Nyw0MmgzNi42N0M0MC44LDQyLDQyLDQwLjgsNDIsMzkuMzNWMi42NyYjMTA7JiM5OyYjOTsmIzk7QzQyLDEuMiw0MC44LDAsMzkuMzMsMEwzOS4zMywweiIvPiYjeGE7CTwvZz4mI3hhOwk8Zz4mI3hhOwkJPHBhdGggY2xhc3M9InN0MSIgZD0iTTM5LjMzLDFIMi42N0MxLjc1LDEsMSwxLjc1LDEsMi42N3YzNi42N0MxLDQwLjI1LDEuNzUsNDEsMi42Nyw0MWgzNi42N2MwLjkyLDAsMS42Ny0wLjc1LDEuNjctMS42N1YyLjY3JiMxMDsmIzk7JiM5OyYjOTtDNDEsMS43NSw0MC4yNSwxLDM5LjMzLDF6IE0zOS41MiwzOS4zM2MwLDAuMS0wLjA4LDAuMTktMC4xOSwwLjE5SDIuNjdjLTAuMSwwLTAuMTktMC4wOC0wLjE5LTAuMTlWMi42NyYjMTA7JiM5OyYjOTsmIzk7YzAtMC4xLDAuMDgtMC4xOSwwLjE5LTAuMTloMzYuNjdjMC4xLDAsMC4xOSwwLjA4LDAuMTksMC4xOVYzOS4zM3oiLz4mI3hhOwkJPHBhdGggY2xhc3M9InN0MSIgZD0iTTIwLjM1LDUuNDRoLTguODl2OC44OWg4Ljg5VjUuNDR6IE0xOC44NywxMi44NWgtNS45M1Y2LjkzaDUuOTNWMTIuODV6Ii8+JiN4YTsJCTxwYXRoIGNsYXNzPSJzdDEiIGQ9Ik0zMC4zNSw1LjQ0aC04Ljg5djguODloOC44OVY1LjQ0eiBNMjguODcsMTIuODVoLTUuOTNWNi45M2g1LjkzVjEyLjg1eiIvPiYjeGE7CQk8cG9seWdvbiBjbGFzcz0ic3QxIiBwb2ludHM9IjE4LjA0LDE2LjkzIDIzLjk2LDE2LjkzIDIzLjk2LDE5LjI3IDI1LjQ0LDE5LjY0IDI1LjQ0LDE1LjQ0IDE2LjU2LDE1LjQ0IDE2LjU2LDE5LjY0IDE4LjA0LDE5LjI3ICYjMTA7JiM5OyYjOTsmIzk7JiM5OyYjOTsiLz4mI3hhOwkJPHBvbHlnb24gY2xhc3M9InN0MSIgcG9pbnRzPSIyOC4wNCwxNi45MyAzMy45NiwxNi45MyAzMy45NiwyMS43NSAzNS40NCwyMi4xMiAzNS40NCwxNS40NCAyNi41NiwxNS40NCAyNi41NiwxOS45MiAyOC4wNCwyMC4yOCAmIzEwOyYjOTsmIzk7JiM5OyYjOTsmIzk7Ii8+JiN4YTsJCTxwb2x5Z29uIGNsYXNzPSJzdDEiIHBvaW50cz0iOC4wNCwxNi45MyAxMy45NiwxNi45MyAxMy45NiwyMC4yOCAxNS40NCwxOS45MiAxNS40NCwxNS40NCA2LjU2LDE1LjQ0IDYuNTYsMjIuMTIgOC4wNCwyMS43NSAmIzk7JiM5OyIvPiYjeGE7CQk8cGF0aCBjbGFzcz0ic3QxIiBkPSJNMjEsMTkuNjhMNS4xOCwyMy42MWwwLjE4LDAuNzJjMS43OCw3LjIsOC4yMSwxMi4yMywxNS42NCwxMi4yM3MxMy44Ni01LjAzLDE1LjY0LTEyLjIzbDAuMTgtMC43MkwyMSwxOS42OHomIzEwOyYjOTsmIzk7JiM5OyBNMjAuMjYsMjEuMzl2MTMuNjZDMTQuMDgsMzQuNzUsOC43OCwzMC42LDYuOTksMjQuNjhMMjAuMjYsMjEuMzl6IE0yMSwzNS42M0wyMSwzNS42M0wyMSwzNS42M3ogTTIxLjc0LDM1LjA1VjIxLjM5bDEzLjI3LDMuMjkmIzEwOyYjOTsmIzk7JiM5O0MzMy4yMiwzMC42LDI3LjkyLDM0Ljc1LDIxLjc0LDM1LjA1eiIvPiYjeGE7CTwvZz4mI3hhOzwvZz4mI3hhOzwvc3ZnPg==;rounded=1;sketch=1;" parent="bxGKdZcUwFsUMawT34U8-101" vertex="1">
          <mxGeometry x="70" y="19" width="42" height="42" as="geometry" />
        </mxCell>
        <mxCell id="bxGKdZcUwFsUMawT34U8-19" value="&lt;font face=&quot;Comic Sans MS&quot; style=&quot;font-size: 24px&quot;&gt;Container Engine Kubernetes&lt;/font&gt;" style="text;strokeColor=none;fillColor=none;html=1;fontSize=24;fontStyle=1;verticalAlign=middle;align=center;rounded=1;sketch=1;" parent="bxGKdZcUwFsUMawT34U8-101" vertex="1">
          <mxGeometry y="19" width="600" height="40" as="geometry" />
        </mxCell>
        <mxCell id="bxGKdZcUwFsUMawT34U8-38" value="Oracle Database Sharded" style="rounded=0;whiteSpace=wrap;html=1;sketch=1;fontFamily=Comic Sans MS;fontSize=24;fillColor=#f8cecc;strokeColor=#b85450;glass=0;dashed=1;" parent="bxGKdZcUwFsUMawT34U8-101" vertex="1">
          <mxGeometry x="240" y="106.5" width="340" height="30" as="geometry" />
        </mxCell>
        <mxCell id="bxGKdZcUwFsUMawT34U8-42" value="" style="sketch=0;aspect=fixed;html=1;points=[];align=center;image;fontSize=12;image=img/lib/mscae/Kubernetes.svg;rounded=1;glass=0;fontFamily=Comic Sans MS;gradientColor=none;" parent="bxGKdZcUwFsUMawT34U8-101" vertex="1">
          <mxGeometry x="495" y="15" width="50" height="48" as="geometry" />
        </mxCell>
        <mxCell id="bxGKdZcUwFsUMawT34U8-95" value="" style="rounded=0;whiteSpace=wrap;html=1;glass=0;dashed=1;sketch=1;fontFamily=Comic Sans MS;fontSize=18;gradientColor=none;" parent="bxGKdZcUwFsUMawT34U8-101" vertex="1">
          <mxGeometry x="240" y="136.5" width="340" height="423.5" as="geometry" />
        </mxCell>
        <mxCell id="bxGKdZcUwFsUMawT34U8-79" value="" style="whiteSpace=wrap;html=1;shape=mxgraph.basic.cloud_rect;rounded=1;glass=0;dashed=1;sketch=1;fontFamily=Comic Sans MS;fontSize=18;gradientColor=none;" parent="bxGKdZcUwFsUMawT34U8-101" vertex="1">
          <mxGeometry x="10" y="90" width="180" height="207.5" as="geometry" />
        </mxCell>
        <mxCell id="bxGKdZcUwFsUMawT34U8-67" value="" style="rounded=1;whiteSpace=wrap;html=1;strokeWidth=2;fillWeight=4;hachureGap=8;hachureAngle=45;fillColor=#1ba1e2;sketch=1;glass=0;dashed=1;fontFamily=Comic Sans MS;fontSize=24;" parent="bxGKdZcUwFsUMawT34U8-101" vertex="1">
          <mxGeometry x="30" y="112.5" width="110" height="45" as="geometry" />
        </mxCell>
        <mxCell id="bxGKdZcUwFsUMawT34U8-68" value="" style="sketch=0;html=1;dashed=0;whitespace=wrap;fillColor=#2875E2;strokeColor=#ffffff;points=[[0.005,0.63,0],[0.1,0.2,0],[0.9,0.2,0],[0.5,0,0],[0.995,0.63,0],[0.72,0.99,0],[0.5,1,0],[0.28,0.99,0]];shape=mxgraph.kubernetes.icon;prIcon=c_m;rounded=1;glass=0;fontFamily=Comic Sans MS;fontSize=24;" parent="bxGKdZcUwFsUMawT34U8-101" vertex="1">
          <mxGeometry x="110" y="97.5" width="50" height="48" as="geometry" />
        </mxCell>
        <mxCell id="bxGKdZcUwFsUMawT34U8-69" value="&lt;font style=&quot;font-size: 18px&quot;&gt;Controller&lt;/font&gt;" style="rounded=0;whiteSpace=wrap;html=1;sketch=1;fontFamily=Comic Sans MS;fontSize=24;fillColor=#dae8fc;strokeColor=#6c8ebf;glass=0;dashed=1;" parent="bxGKdZcUwFsUMawT34U8-101" vertex="1">
          <mxGeometry x="30" y="157.5" width="110" height="30" as="geometry" />
        </mxCell>
        <mxCell id="bxGKdZcUwFsUMawT34U8-78" value="&lt;font style=&quot;font-size: 18px&quot;&gt;CRD&lt;/font&gt;" style="rounded=0;whiteSpace=wrap;html=1;sketch=1;fontFamily=Comic Sans MS;fontSize=24;fillColor=#dae8fc;strokeColor=#6c8ebf;glass=0;dashed=1;" parent="bxGKdZcUwFsUMawT34U8-101" vertex="1">
          <mxGeometry x="50" y="213.5" width="110" height="30" as="geometry" />
        </mxCell>
        <mxCell id="bxGKdZcUwFsUMawT34U8-76" value="" style="sketch=0;html=1;dashed=0;whitespace=wrap;fillColor=#2875E2;strokeColor=#ffffff;points=[[0.005,0.63,0],[0.1,0.2,0],[0.9,0.2,0],[0.5,0,0],[0.995,0.63,0],[0.72,0.99,0],[0.5,1,0],[0.28,0.99,0]];shape=mxgraph.kubernetes.icon;prIcon=crd;rounded=1;glass=0;fontFamily=Comic Sans MS;fontSize=18;" parent="bxGKdZcUwFsUMawT34U8-101" vertex="1">
          <mxGeometry x="130" y="191.5" width="50" height="48" as="geometry" />
        </mxCell>
        <mxCell id="bxGKdZcUwFsUMawT34U8-84" style="edgeStyle=orthogonalEdgeStyle;curved=1;rounded=1;sketch=1;orthogonalLoop=1;jettySize=auto;html=1;fontFamily=Comic Sans MS;fontSize=18;entryX=-0.009;entryY=0.522;entryDx=0;entryDy=0;entryPerimeter=0;" parent="bxGKdZcUwFsUMawT34U8-101" source="bxGKdZcUwFsUMawT34U8-80" target="bxGKdZcUwFsUMawT34U8-95" edge="1">
          <mxGeometry relative="1" as="geometry">
            <mxPoint x="238.95000000000005" y="470.02" as="targetPoint" />
          </mxGeometry>
        </mxCell>
        <mxCell id="bxGKdZcUwFsUMawT34U8-80" value="Operator" style="rounded=0;whiteSpace=wrap;html=1;sketch=1;fontFamily=Comic Sans MS;fontSize=24;fillColor=#e1d5e7;strokeColor=#9673a6;glass=0;dashed=1;" parent="bxGKdZcUwFsUMawT34U8-101" vertex="1">
          <mxGeometry x="25" y="257.5" width="150" height="30" as="geometry" />
        </mxCell>
        <mxCell id="bxGKdZcUwFsUMawT34U8-89" value="Node" style="swimlane;horizontal=0;rounded=1;glass=0;dashed=1;sketch=1;fontFamily=Comic Sans MS;fontSize=18;fillColor=#e1d5e7;strokeColor=#9673a6;" parent="bxGKdZcUwFsUMawT34U8-101" vertex="1">
          <mxGeometry x="250" y="145.5" width="320" height="204.5" as="geometry" />
        </mxCell>
        <mxCell id="bxGKdZcUwFsUMawT34U8-85" value="POD" style="swimlane;rounded=1;sketch=1;" parent="bxGKdZcUwFsUMawT34U8-89" vertex="1">
          <mxGeometry x="40" y="84.5" width="80" height="100" as="geometry">
            <mxRectangle x="500" y="370" width="90" height="23" as="alternateBounds" />
          </mxGeometry>
        </mxCell>
        <mxCell id="bxGKdZcUwFsUMawT34U8-86" value="" style="shape=image;verticalLabelPosition=bottom;verticalAlign=top;imageAspect=0;aspect=fixed;image=data:image/svg+xml,PHN2ZyB4bWxucz0iaHR0cDovL3d3dy53My5vcmcvMjAwMC9zdmciIGlkPSJMYXllcl8xIiBkYXRhLW5hbWU9IkxheWVyIDEiIHZpZXdCb3g9Ii0wLjAwMzcwNTc4OTgwMDczMzMyOCAtNC43NjgzNzE1ODIwMzEyNWUtNyAyOS43NzM3MDQ1Mjg4MDg1OTQgNDIiIHdpZHRoPSIyOS43NzM3MDQ1Mjg4MDg1OTQiIGhlaWdodD0iNDIiPjx0aXRsZT5PdGhlciAtIFRlY2hub2xvZ3kgLSBEYXRhYmFzZS1QbHVnZ2FibGU8L3RpdGxlPiYjeGE7PHBhdGggZD0iTTEwLjE4LDQxLjVhMi42MiwyLjYyLDAsMCwxLTIuNjItMi42MlYzMkMyLjg3LDMxLjMuNSwzMCwuNSwyOFY1LjIzaDBzMCwwLDAtLjA4Qy41LjcyLDEyLjQ4LjUsMTQuODguNVMyOS4yNy43MiwyOS4yNyw1LjE1di4xNGgwYS40MS40MSwwLDAsMSwwLC4wOVYyOGMwLDEuOTMtMi4zOCwzLjI4LTcuMDYsNHY2Ljg1YTIuNjIsMi42MiwwLDAsMS0yLjYyLDIuNjJaIiBmaWxsPSIjZmZmIi8+PHBhdGggZD0iTTE0Ljg4LDFDMjAsMSwyOC43NywxLjg3LDI4Ljc3LDUuMTVjMCwwLDAsLjA4LDAsLjEzczAsLjA3LDAsLjFWMjhjMCwyLTMuMzEsMy03LjA2LDMuNTh2Ny4yOEEyLjEyLDIuMTIsMCwwLDEsMTkuNTksNDFIMTAuMThhMi4xMiwyLjEyLDAsMCwxLTIuMTItMi4xMlYzMS42QzQuMzEsMzEuMDYsMSwzMCwxLDI4VjUuMzhzMC0uMDcsMC0uMSwwLS4wOSwwLS4xM0MxLDEuODcsOS43MywxLDE0Ljg4LDFtMC0xQzExLjM5LDAsMCwuMzcsMCw1LjE1YS40OS40OSwwLDAsMCwwLC4xMi40MS40MSwwLDAsMCwwLC4xMVYyOGMwLDIuMTgsMi4zMSwzLjY0LDcuMDYsNC40NHY2LjQyQTMuMTIsMy4xMiwwLDAsMCwxMC4xOCw0Mmg5LjQxYTMuMTIsMy4xMiwwLDAsMCwzLjEyLTMuMTJWMzIuNDZjNC43NS0uOCw3LjA2LTIuMjYsNy4wNi00LjQ0VjUuMzhzMC0uMDcsMC0uMTEsMC0uMDgsMC0uMTJDMjkuNzcuMzcsMTguMzcsMCwxNC44OCwwWiIgZmlsbD0iI2ZmZiIvPjxyZWN0IHg9IjExLjM1IiB5PSIzNS44MiIgd2lkdGg9IjIuODIiIGhlaWdodD0iMS44OCIgZmlsbD0iIzJjNTk2NyIvPjxyZWN0IHg9IjE1LjU5IiB5PSIzNS44MiIgd2lkdGg9IjIuODIiIGhlaWdodD0iMS44OCIgZmlsbD0iIzJjNTk2NyIvPjxwYXRoIGQ9Ik0yOC43Nyw1LjE1QzI4Ljc3LDEuODcsMjAsMSwxNC44OCwxUzEsMS44NywxLDUuMTVjMCwwLDAsLjA4LDAsLjEzczAsLjA3LDAsLjFWMjhjMCwyLDMuMzEsMyw3LjA2LDMuNTh2Ny4yOEEyLjEyLDIuMTIsMCwwLDAsMTAuMTgsNDFoOS40MWEyLjEyLDIuMTIsMCwwLDAsMi4xMi0yLjEyVjMxLjZjMy43NS0uNTQsNy4wNi0xLjYxLDcuMDYtMy41OFY1LjM4czAtLjA3LDAtLjFTMjguNzcsNS4xOSwyOC43Nyw1LjE1Wk0yNi44OCwyMC40NGMtLjI3LjUxLTMuNjcsMi4xOS0xMiwyLjE5UzMuMTYsMjEsMi44OCwyMC40NFYxNS4xNWMyLjg2LDEuNCw4LjMzLDEuODMsMTIsMS44M3M5LjE1LS40MywxMi0xLjgzWm0wLTcuNTNjLS4yNy41MS0zLjY3LDIuMTktMTIsMi4xOXMtMTEuNzItMS42OC0xMi0yLjE5VjcuNDJjMi44NiwxLjQzLDguMzMsMS44NywxMiwxLjg3czkuMTUtLjQ0LDEyLTEuODdabS0xMi0xMGM3LjI2LDAsMTEuNjIsMS40NiwxMiwyLjI3LS4zOC44MS00Ljc0LDIuMjYtMTIsMi4yNlMzLjI3LDYsMi44OSw1LjE1QzMuMjcsNC4zNCw3LjYyLDIuODgsMTQuODgsMi44OFptNC45NCwzNmEuMjMuMjMsMCwwLDEtLjIzLjI0SDEwLjE4YS4yNC4yNCwwLDAsMS0uMjQtLjI0VjMxLjgyYzEuNzUuMTcsMy40OS4yNCw0Ljk0LjI0czMuMi0uMDcsNC45NC0uMjRabS00Ljk0LTguN2MtOC4zMiwwLTExLjcyLTEuNjktMTItMi4xOVYyMi42OGMyLjg2LDEuNCw4LjMzLDEuODMsMTIsMS44M3M5LjE1LS40MywxMi0xLjgzVjI4QzI2LjYxLDI4LjQ5LDIzLjIxLDMwLjE4LDE0Ljg4LDMwLjE4WiIgZmlsbD0iIzJjNTk2NyIvPjxwYXRoIGQ9Ik0xNC44OCwxMy4yMmE0MC40Nyw0MC40NywwLDAsMCw5LjM4LTFjLjQ0LS4xMS44NC0uMjIsMS4yMS0uMzR2LTJhMzMuMTQsMzMuMTQsMCwwLDEtMTAuNTksMS40MloiIGZpbGw9IiMyYzU5NjciLz48cGF0aCBkPSJNMTQuODgsMjAuNzZhNDAuNDcsNDAuNDcsMCwwLDAsOS4zOC0xYy40NC0uMTEuODQtLjIyLDEuMjEtLjM0di0yYTMyLjc4LDMyLjc4LDAsMCwxLTEwLjU5LDEuNDNaIiBmaWxsPSIjMmM1OTY3Ii8+PHBhdGggZD0iTTE0Ljg4LDI4LjI4YTQwLjQ3LDQwLjQ3LDAsMCwwLDkuMzgtMWMuNDQtLjExLjg0LS4yMiwxLjIxLS4zNFYyNWEzMy4xNCwzMy4xNCwwLDAsMS0xMC41OSwxLjQyWiIgZmlsbD0iIzJjNTk2NyIvPjwvc3ZnPg==;rounded=1;sketch=1;" parent="bxGKdZcUwFsUMawT34U8-85" vertex="1">
          <mxGeometry x="50" y="58" width="30" height="42" as="geometry" />
        </mxCell>
        <UserObject label="&lt;font style=&quot;font-size: 14px&quot;&gt;Catalog&lt;/font&gt;" placeholders="1" name="Variable" id="bxGKdZcUwFsUMawT34U8-87">
          <mxCell style="text;html=1;strokeColor=none;fillColor=none;align=center;verticalAlign=middle;whiteSpace=wrap;overflow=hidden;rounded=1;sketch=1;fontFamily=Comic Sans MS;fontSize=18;" parent="bxGKdZcUwFsUMawT34U8-85" vertex="1">
            <mxGeometry y="32" width="80" height="26" as="geometry" />
          </mxCell>
        </UserObject>
        <mxCell id="bxGKdZcUwFsUMawT34U8-88" value="" style="sketch=0;html=1;dashed=0;whitespace=wrap;fillColor=#2875E2;strokeColor=#ffffff;points=[[0.005,0.63,0],[0.1,0.2,0],[0.9,0.2,0],[0.5,0,0],[0.995,0.63,0],[0.72,0.99,0],[0.5,1,0],[0.28,0.99,0]];shape=mxgraph.kubernetes.icon;prIcon=pod;rounded=1;glass=0;fontFamily=Comic Sans MS;fontSize=24;" parent="bxGKdZcUwFsUMawT34U8-85" vertex="1">
          <mxGeometry x="-10" y="80" width="35" height="36" as="geometry" />
        </mxCell>
        <mxCell id="bxGKdZcUwFsUMawT34U8-13" value="POD" style="swimlane;rounded=1;sketch=1;" parent="bxGKdZcUwFsUMawT34U8-89" vertex="1">
          <mxGeometry x="140" y="12" width="80" height="100" as="geometry">
            <mxRectangle x="500" y="370" width="90" height="23" as="alternateBounds" />
          </mxGeometry>
        </mxCell>
        <mxCell id="bxGKdZcUwFsUMawT34U8-1" value="" style="shape=image;verticalLabelPosition=bottom;verticalAlign=top;imageAspect=0;aspect=fixed;image=data:image/svg+xml,PHN2ZyB4bWxucz0iaHR0cDovL3d3dy53My5vcmcvMjAwMC9zdmciIGlkPSJMYXllcl8xIiBkYXRhLW5hbWU9IkxheWVyIDEiIHZpZXdCb3g9Ii0wLjAwMzcwNTc4OTgwMDczMzMyOCAtNC43NjgzNzE1ODIwMzEyNWUtNyAyOS43NzM3MDQ1Mjg4MDg1OTQgNDIiIHdpZHRoPSIyOS43NzM3MDQ1Mjg4MDg1OTQiIGhlaWdodD0iNDIiPjx0aXRsZT5PdGhlciAtIFRlY2hub2xvZ3kgLSBEYXRhYmFzZS1QbHVnZ2FibGU8L3RpdGxlPiYjeGE7PHBhdGggZD0iTTEwLjE4LDQxLjVhMi42MiwyLjYyLDAsMCwxLTIuNjItMi42MlYzMkMyLjg3LDMxLjMuNSwzMCwuNSwyOFY1LjIzaDBzMCwwLDAtLjA4Qy41LjcyLDEyLjQ4LjUsMTQuODguNVMyOS4yNy43MiwyOS4yNyw1LjE1di4xNGgwYS40MS40MSwwLDAsMSwwLC4wOVYyOGMwLDEuOTMtMi4zOCwzLjI4LTcuMDYsNHY2Ljg1YTIuNjIsMi42MiwwLDAsMS0yLjYyLDIuNjJaIiBmaWxsPSIjZmZmIi8+PHBhdGggZD0iTTE0Ljg4LDFDMjAsMSwyOC43NywxLjg3LDI4Ljc3LDUuMTVjMCwwLDAsLjA4LDAsLjEzczAsLjA3LDAsLjFWMjhjMCwyLTMuMzEsMy03LjA2LDMuNTh2Ny4yOEEyLjEyLDIuMTIsMCwwLDEsMTkuNTksNDFIMTAuMThhMi4xMiwyLjEyLDAsMCwxLTIuMTItMi4xMlYzMS42QzQuMzEsMzEuMDYsMSwzMCwxLDI4VjUuMzhzMC0uMDcsMC0uMSwwLS4wOSwwLS4xM0MxLDEuODcsOS43MywxLDE0Ljg4LDFtMC0xQzExLjM5LDAsMCwuMzcsMCw1LjE1YS40OS40OSwwLDAsMCwwLC4xMi40MS40MSwwLDAsMCwwLC4xMVYyOGMwLDIuMTgsMi4zMSwzLjY0LDcuMDYsNC40NHY2LjQyQTMuMTIsMy4xMiwwLDAsMCwxMC4xOCw0Mmg5LjQxYTMuMTIsMy4xMiwwLDAsMCwzLjEyLTMuMTJWMzIuNDZjNC43NS0uOCw3LjA2LTIuMjYsNy4wNi00LjQ0VjUuMzhzMC0uMDcsMC0uMTEsMC0uMDgsMC0uMTJDMjkuNzcuMzcsMTguMzcsMCwxNC44OCwwWiIgZmlsbD0iI2ZmZiIvPjxyZWN0IHg9IjExLjM1IiB5PSIzNS44MiIgd2lkdGg9IjIuODIiIGhlaWdodD0iMS44OCIgZmlsbD0iIzJjNTk2NyIvPjxyZWN0IHg9IjE1LjU5IiB5PSIzNS44MiIgd2lkdGg9IjIuODIiIGhlaWdodD0iMS44OCIgZmlsbD0iIzJjNTk2NyIvPjxwYXRoIGQ9Ik0yOC43Nyw1LjE1QzI4Ljc3LDEuODcsMjAsMSwxNC44OCwxUzEsMS44NywxLDUuMTVjMCwwLDAsLjA4LDAsLjEzczAsLjA3LDAsLjFWMjhjMCwyLDMuMzEsMyw3LjA2LDMuNTh2Ny4yOEEyLjEyLDIuMTIsMCwwLDAsMTAuMTgsNDFoOS40MWEyLjEyLDIuMTIsMCwwLDAsMi4xMi0yLjEyVjMxLjZjMy43NS0uNTQsNy4wNi0xLjYxLDcuMDYtMy41OFY1LjM4czAtLjA3LDAtLjFTMjguNzcsNS4xOSwyOC43Nyw1LjE1Wk0yNi44OCwyMC40NGMtLjI3LjUxLTMuNjcsMi4xOS0xMiwyLjE5UzMuMTYsMjEsMi44OCwyMC40NFYxNS4xNWMyLjg2LDEuNCw4LjMzLDEuODMsMTIsMS44M3M5LjE1LS40MywxMi0xLjgzWm0wLTcuNTNjLS4yNy41MS0zLjY3LDIuMTktMTIsMi4xOXMtMTEuNzItMS42OC0xMi0yLjE5VjcuNDJjMi44NiwxLjQzLDguMzMsMS44NywxMiwxLjg3czkuMTUtLjQ0LDEyLTEuODdabS0xMi0xMGM3LjI2LDAsMTEuNjIsMS40NiwxMiwyLjI3LS4zOC44MS00Ljc0LDIuMjYtMTIsMi4yNlMzLjI3LDYsMi44OSw1LjE1QzMuMjcsNC4zNCw3LjYyLDIuODgsMTQuODgsMi44OFptNC45NCwzNmEuMjMuMjMsMCwwLDEtLjIzLjI0SDEwLjE4YS4yNC4yNCwwLDAsMS0uMjQtLjI0VjMxLjgyYzEuNzUuMTcsMy40OS4yNCw0Ljk0LjI0czMuMi0uMDcsNC45NC0uMjRabS00Ljk0LTguN2MtOC4zMiwwLTExLjcyLTEuNjktMTItMi4xOVYyMi42OGMyLjg2LDEuNCw4LjMzLDEuODMsMTIsMS44M3M5LjE1LS40MywxMi0xLjgzVjI4QzI2LjYxLDI4LjQ5LDIzLjIxLDMwLjE4LDE0Ljg4LDMwLjE4WiIgZmlsbD0iIzJjNTk2NyIvPjxwYXRoIGQ9Ik0xNC44OCwxMy4yMmE0MC40Nyw0MC40NywwLDAsMCw5LjM4LTFjLjQ0LS4xMS44NC0uMjIsMS4yMS0uMzR2LTJhMzMuMTQsMzMuMTQsMCwwLDEtMTAuNTksMS40MloiIGZpbGw9IiMyYzU5NjciLz48cGF0aCBkPSJNMTQuODgsMjAuNzZhNDAuNDcsNDAuNDcsMCwwLDAsOS4zOC0xYy40NC0uMTEuODQtLjIyLDEuMjEtLjM0di0yYTMyLjc4LDMyLjc4LDAsMCwxLTEwLjU5LDEuNDNaIiBmaWxsPSIjMmM1OTY3Ii8+PHBhdGggZD0iTTE0Ljg4LDI4LjI4YTQwLjQ3LDQwLjQ3LDAsMCwwLDkuMzgtMWMuNDQtLjExLjg0LS4yMiwxLjIxLS4zNFYyNWEzMy4xNCwzMy4xNCwwLDAsMS0xMC41OSwxLjQyWiIgZmlsbD0iIzJjNTk2NyIvPjwvc3ZnPg==;rounded=1;sketch=1;" parent="bxGKdZcUwFsUMawT34U8-13" vertex="1">
          <mxGeometry x="50" y="58" width="30" height="42" as="geometry" />
        </mxCell>
        <UserObject label="&lt;font style=&quot;font-size: 14px&quot;&gt;Shard1&lt;/font&gt;" placeholders="1" name="Variable" id="bxGKdZcUwFsUMawT34U8-20">
          <mxCell style="text;html=1;strokeColor=none;fillColor=none;align=center;verticalAlign=middle;whiteSpace=wrap;overflow=hidden;rounded=1;sketch=1;fontFamily=Comic Sans MS;fontSize=18;" parent="bxGKdZcUwFsUMawT34U8-13" vertex="1">
            <mxGeometry y="32" width="80" height="26" as="geometry" />
          </mxCell>
        </UserObject>
        <mxCell id="bxGKdZcUwFsUMawT34U8-48" value="" style="sketch=0;html=1;dashed=0;whitespace=wrap;fillColor=#2875E2;strokeColor=#ffffff;points=[[0.005,0.63,0],[0.1,0.2,0],[0.9,0.2,0],[0.5,0,0],[0.995,0.63,0],[0.72,0.99,0],[0.5,1,0],[0.28,0.99,0]];shape=mxgraph.kubernetes.icon;prIcon=pod;rounded=1;glass=0;fontFamily=Comic Sans MS;fontSize=24;" parent="bxGKdZcUwFsUMawT34U8-13" vertex="1">
          <mxGeometry x="-10" y="80" width="35" height="36" as="geometry" />
        </mxCell>
        <mxCell id="bxGKdZcUwFsUMawT34U8-98" value="" style="sketch=0;html=1;dashed=0;whitespace=wrap;fillColor=#2875E2;strokeColor=#ffffff;points=[[0.005,0.63,0],[0.1,0.2,0],[0.9,0.2,0],[0.5,0,0],[0.995,0.63,0],[0.72,0.99,0],[0.5,1,0],[0.28,0.99,0]];shape=mxgraph.kubernetes.icon;prIcon=node;rounded=1;glass=0;fontFamily=Comic Sans MS;fontSize=18;" parent="bxGKdZcUwFsUMawT34U8-89" vertex="1">
          <mxGeometry x="280" y="174.5" width="50" height="48" as="geometry" />
        </mxCell>
        <mxCell id="bxGKdZcUwFsUMawT34U8-54" value="POD" style="swimlane;rounded=1;sketch=1;" parent="bxGKdZcUwFsUMawT34U8-89" vertex="1">
          <mxGeometry x="230" y="52.25" width="80" height="100" as="geometry">
            <mxRectangle x="500" y="370" width="90" height="23" as="alternateBounds" />
          </mxGeometry>
        </mxCell>
        <mxCell id="bxGKdZcUwFsUMawT34U8-55" value="" style="shape=image;verticalLabelPosition=bottom;verticalAlign=top;imageAspect=0;aspect=fixed;image=data:image/svg+xml,PHN2ZyB4bWxucz0iaHR0cDovL3d3dy53My5vcmcvMjAwMC9zdmciIGlkPSJMYXllcl8xIiBkYXRhLW5hbWU9IkxheWVyIDEiIHZpZXdCb3g9Ii0wLjAwMzcwNTc4OTgwMDczMzMyOCAtNC43NjgzNzE1ODIwMzEyNWUtNyAyOS43NzM3MDQ1Mjg4MDg1OTQgNDIiIHdpZHRoPSIyOS43NzM3MDQ1Mjg4MDg1OTQiIGhlaWdodD0iNDIiPjx0aXRsZT5PdGhlciAtIFRlY2hub2xvZ3kgLSBEYXRhYmFzZS1QbHVnZ2FibGU8L3RpdGxlPiYjeGE7PHBhdGggZD0iTTEwLjE4LDQxLjVhMi42MiwyLjYyLDAsMCwxLTIuNjItMi42MlYzMkMyLjg3LDMxLjMuNSwzMCwuNSwyOFY1LjIzaDBzMCwwLDAtLjA4Qy41LjcyLDEyLjQ4LjUsMTQuODguNVMyOS4yNy43MiwyOS4yNyw1LjE1di4xNGgwYS40MS40MSwwLDAsMSwwLC4wOVYyOGMwLDEuOTMtMi4zOCwzLjI4LTcuMDYsNHY2Ljg1YTIuNjIsMi42MiwwLDAsMS0yLjYyLDIuNjJaIiBmaWxsPSIjZmZmIi8+PHBhdGggZD0iTTE0Ljg4LDFDMjAsMSwyOC43NywxLjg3LDI4Ljc3LDUuMTVjMCwwLDAsLjA4LDAsLjEzczAsLjA3LDAsLjFWMjhjMCwyLTMuMzEsMy03LjA2LDMuNTh2Ny4yOEEyLjEyLDIuMTIsMCwwLDEsMTkuNTksNDFIMTAuMThhMi4xMiwyLjEyLDAsMCwxLTIuMTItMi4xMlYzMS42QzQuMzEsMzEuMDYsMSwzMCwxLDI4VjUuMzhzMC0uMDcsMC0uMSwwLS4wOSwwLS4xM0MxLDEuODcsOS43MywxLDE0Ljg4LDFtMC0xQzExLjM5LDAsMCwuMzcsMCw1LjE1YS40OS40OSwwLDAsMCwwLC4xMi40MS40MSwwLDAsMCwwLC4xMVYyOGMwLDIuMTgsMi4zMSwzLjY0LDcuMDYsNC40NHY2LjQyQTMuMTIsMy4xMiwwLDAsMCwxMC4xOCw0Mmg5LjQxYTMuMTIsMy4xMiwwLDAsMCwzLjEyLTMuMTJWMzIuNDZjNC43NS0uOCw3LjA2LTIuMjYsNy4wNi00LjQ0VjUuMzhzMC0uMDcsMC0uMTEsMC0uMDgsMC0uMTJDMjkuNzcuMzcsMTguMzcsMCwxNC44OCwwWiIgZmlsbD0iI2ZmZiIvPjxyZWN0IHg9IjExLjM1IiB5PSIzNS44MiIgd2lkdGg9IjIuODIiIGhlaWdodD0iMS44OCIgZmlsbD0iIzJjNTk2NyIvPjxyZWN0IHg9IjE1LjU5IiB5PSIzNS44MiIgd2lkdGg9IjIuODIiIGhlaWdodD0iMS44OCIgZmlsbD0iIzJjNTk2NyIvPjxwYXRoIGQ9Ik0yOC43Nyw1LjE1QzI4Ljc3LDEuODcsMjAsMSwxNC44OCwxUzEsMS44NywxLDUuMTVjMCwwLDAsLjA4LDAsLjEzczAsLjA3LDAsLjFWMjhjMCwyLDMuMzEsMyw3LjA2LDMuNTh2Ny4yOEEyLjEyLDIuMTIsMCwwLDAsMTAuMTgsNDFoOS40MWEyLjEyLDIuMTIsMCwwLDAsMi4xMi0yLjEyVjMxLjZjMy43NS0uNTQsNy4wNi0xLjYxLDcuMDYtMy41OFY1LjM4czAtLjA3LDAtLjFTMjguNzcsNS4xOSwyOC43Nyw1LjE1Wk0yNi44OCwyMC40NGMtLjI3LjUxLTMuNjcsMi4xOS0xMiwyLjE5UzMuMTYsMjEsMi44OCwyMC40NFYxNS4xNWMyLjg2LDEuNCw4LjMzLDEuODMsMTIsMS44M3M5LjE1LS40MywxMi0xLjgzWm0wLTcuNTNjLS4yNy41MS0zLjY3LDIuMTktMTIsMi4xOXMtMTEuNzItMS42OC0xMi0yLjE5VjcuNDJjMi44NiwxLjQzLDguMzMsMS44NywxMiwxLjg3czkuMTUtLjQ0LDEyLTEuODdabS0xMi0xMGM3LjI2LDAsMTEuNjIsMS40NiwxMiwyLjI3LS4zOC44MS00Ljc0LDIuMjYtMTIsMi4yNlMzLjI3LDYsMi44OSw1LjE1QzMuMjcsNC4zNCw3LjYyLDIuODgsMTQuODgsMi44OFptNC45NCwzNmEuMjMuMjMsMCwwLDEtLjIzLjI0SDEwLjE4YS4yNC4yNCwwLDAsMS0uMjQtLjI0VjMxLjgyYzEuNzUuMTcsMy40OS4yNCw0Ljk0LjI0czMuMi0uMDcsNC45NC0uMjRabS00Ljk0LTguN2MtOC4zMiwwLTExLjcyLTEuNjktMTItMi4xOVYyMi42OGMyLjg2LDEuNCw4LjMzLDEuODMsMTIsMS44M3M5LjE1LS40MywxMi0xLjgzVjI4QzI2LjYxLDI4LjQ5LDIzLjIxLDMwLjE4LDE0Ljg4LDMwLjE4WiIgZmlsbD0iIzJjNTk2NyIvPjxwYXRoIGQ9Ik0xNC44OCwxMy4yMmE0MC40Nyw0MC40NywwLDAsMCw5LjM4LTFjLjQ0LS4xMS44NC0uMjIsMS4yMS0uMzR2LTJhMzMuMTQsMzMuMTQsMCwwLDEtMTAuNTksMS40MloiIGZpbGw9IiMyYzU5NjciLz48cGF0aCBkPSJNMTQuODgsMjAuNzZhNDAuNDcsNDAuNDcsMCwwLDAsOS4zOC0xYy40NC0uMTEuODQtLjIyLDEuMjEtLjM0di0yYTMyLjc4LDMyLjc4LDAsMCwxLTEwLjU5LDEuNDNaIiBmaWxsPSIjMmM1OTY3Ii8+PHBhdGggZD0iTTE0Ljg4LDI4LjI4YTQwLjQ3LDQwLjQ3LDAsMCwwLDkuMzgtMWMuNDQtLjExLjg0LS4yMiwxLjIxLS4zNFYyNWEzMy4xNCwzMy4xNCwwLDAsMS0xMC41OSwxLjQyWiIgZmlsbD0iIzJjNTk2NyIvPjwvc3ZnPg==;rounded=1;sketch=1;" parent="bxGKdZcUwFsUMawT34U8-54" vertex="1">
          <mxGeometry x="50" y="58" width="30" height="42" as="geometry" />
        </mxCell>
        <UserObject label="&lt;font style=&quot;font-size: 14px&quot;&gt;Gsm2&lt;/font&gt;" placeholders="1" name="Variable" id="bxGKdZcUwFsUMawT34U8-56">
          <mxCell style="text;html=1;strokeColor=none;fillColor=none;align=center;verticalAlign=middle;whiteSpace=wrap;overflow=hidden;rounded=1;sketch=1;fontFamily=Comic Sans MS;fontSize=18;" parent="bxGKdZcUwFsUMawT34U8-54" vertex="1">
            <mxGeometry y="32" width="80" height="26" as="geometry" />
          </mxCell>
        </UserObject>
        <mxCell id="bxGKdZcUwFsUMawT34U8-57" value="" style="sketch=0;html=1;dashed=0;whitespace=wrap;fillColor=#2875E2;strokeColor=#ffffff;points=[[0.005,0.63,0],[0.1,0.2,0],[0.9,0.2,0],[0.5,0,0],[0.995,0.63,0],[0.72,0.99,0],[0.5,1,0],[0.28,0.99,0]];shape=mxgraph.kubernetes.icon;prIcon=pod;rounded=1;glass=0;fontFamily=Comic Sans MS;fontSize=24;" parent="bxGKdZcUwFsUMawT34U8-54" vertex="1">
          <mxGeometry x="-10" y="80" width="35" height="36" as="geometry" />
        </mxCell>
        <mxCell id="bxGKdZcUwFsUMawT34U8-90" value="Node" style="swimlane;horizontal=0;rounded=1;glass=0;dashed=1;sketch=1;fontFamily=Comic Sans MS;fontSize=18;fillColor=#e1d5e7;strokeColor=#9673a6;swimlaneFillColor=default;" parent="bxGKdZcUwFsUMawT34U8-101" vertex="1">
          <mxGeometry x="295" y="370" width="230" height="170" as="geometry" />
        </mxCell>
        <mxCell id="bxGKdZcUwFsUMawT34U8-58" value="POD" style="swimlane;rounded=1;sketch=1;" parent="bxGKdZcUwFsUMawT34U8-90" vertex="1">
          <mxGeometry x="40" y="40" width="80" height="100" as="geometry">
            <mxRectangle x="500" y="370" width="90" height="23" as="alternateBounds" />
          </mxGeometry>
        </mxCell>
        <mxCell id="bxGKdZcUwFsUMawT34U8-59" value="" style="shape=image;verticalLabelPosition=bottom;verticalAlign=top;imageAspect=0;aspect=fixed;image=data:image/svg+xml,PHN2ZyB4bWxucz0iaHR0cDovL3d3dy53My5vcmcvMjAwMC9zdmciIGlkPSJMYXllcl8xIiBkYXRhLW5hbWU9IkxheWVyIDEiIHZpZXdCb3g9Ii0wLjAwMzcwNTc4OTgwMDczMzMyOCAtNC43NjgzNzE1ODIwMzEyNWUtNyAyOS43NzM3MDQ1Mjg4MDg1OTQgNDIiIHdpZHRoPSIyOS43NzM3MDQ1Mjg4MDg1OTQiIGhlaWdodD0iNDIiPjx0aXRsZT5PdGhlciAtIFRlY2hub2xvZ3kgLSBEYXRhYmFzZS1QbHVnZ2FibGU8L3RpdGxlPiYjeGE7PHBhdGggZD0iTTEwLjE4LDQxLjVhMi42MiwyLjYyLDAsMCwxLTIuNjItMi42MlYzMkMyLjg3LDMxLjMuNSwzMCwuNSwyOFY1LjIzaDBzMCwwLDAtLjA4Qy41LjcyLDEyLjQ4LjUsMTQuODguNVMyOS4yNy43MiwyOS4yNyw1LjE1di4xNGgwYS40MS40MSwwLDAsMSwwLC4wOVYyOGMwLDEuOTMtMi4zOCwzLjI4LTcuMDYsNHY2Ljg1YTIuNjIsMi42MiwwLDAsMS0yLjYyLDIuNjJaIiBmaWxsPSIjZmZmIi8+PHBhdGggZD0iTTE0Ljg4LDFDMjAsMSwyOC43NywxLjg3LDI4Ljc3LDUuMTVjMCwwLDAsLjA4LDAsLjEzczAsLjA3LDAsLjFWMjhjMCwyLTMuMzEsMy03LjA2LDMuNTh2Ny4yOEEyLjEyLDIuMTIsMCwwLDEsMTkuNTksNDFIMTAuMThhMi4xMiwyLjEyLDAsMCwxLTIuMTItMi4xMlYzMS42QzQuMzEsMzEuMDYsMSwzMCwxLDI4VjUuMzhzMC0uMDcsMC0uMSwwLS4wOSwwLS4xM0MxLDEuODcsOS43MywxLDE0Ljg4LDFtMC0xQzExLjM5LDAsMCwuMzcsMCw1LjE1YS40OS40OSwwLDAsMCwwLC4xMi40MS40MSwwLDAsMCwwLC4xMVYyOGMwLDIuMTgsMi4zMSwzLjY0LDcuMDYsNC40NHY2LjQyQTMuMTIsMy4xMiwwLDAsMCwxMC4xOCw0Mmg5LjQxYTMuMTIsMy4xMiwwLDAsMCwzLjEyLTMuMTJWMzIuNDZjNC43NS0uOCw3LjA2LTIuMjYsNy4wNi00LjQ0VjUuMzhzMC0uMDcsMC0uMTEsMC0uMDgsMC0uMTJDMjkuNzcuMzcsMTguMzcsMCwxNC44OCwwWiIgZmlsbD0iI2ZmZiIvPjxyZWN0IHg9IjExLjM1IiB5PSIzNS44MiIgd2lkdGg9IjIuODIiIGhlaWdodD0iMS44OCIgZmlsbD0iIzJjNTk2NyIvPjxyZWN0IHg9IjE1LjU5IiB5PSIzNS44MiIgd2lkdGg9IjIuODIiIGhlaWdodD0iMS44OCIgZmlsbD0iIzJjNTk2NyIvPjxwYXRoIGQ9Ik0yOC43Nyw1LjE1QzI4Ljc3LDEuODcsMjAsMSwxNC44OCwxUzEsMS44NywxLDUuMTVjMCwwLDAsLjA4LDAsLjEzczAsLjA3LDAsLjFWMjhjMCwyLDMuMzEsMyw3LjA2LDMuNTh2Ny4yOEEyLjEyLDIuMTIsMCwwLDAsMTAuMTgsNDFoOS40MWEyLjEyLDIuMTIsMCwwLDAsMi4xMi0yLjEyVjMxLjZjMy43NS0uNTQsNy4wNi0xLjYxLDcuMDYtMy41OFY1LjM4czAtLjA3LDAtLjFTMjguNzcsNS4xOSwyOC43Nyw1LjE1Wk0yNi44OCwyMC40NGMtLjI3LjUxLTMuNjcsMi4xOS0xMiwyLjE5UzMuMTYsMjEsMi44OCwyMC40NFYxNS4xNWMyLjg2LDEuNCw4LjMzLDEuODMsMTIsMS44M3M5LjE1LS40MywxMi0xLjgzWm0wLTcuNTNjLS4yNy41MS0zLjY3LDIuMTktMTIsMi4xOXMtMTEuNzItMS42OC0xMi0yLjE5VjcuNDJjMi44NiwxLjQzLDguMzMsMS44NywxMiwxLjg3czkuMTUtLjQ0LDEyLTEuODdabS0xMi0xMGM3LjI2LDAsMTEuNjIsMS40NiwxMiwyLjI3LS4zOC44MS00Ljc0LDIuMjYtMTIsMi4yNlMzLjI3LDYsMi44OSw1LjE1QzMuMjcsNC4zNCw3LjYyLDIuODgsMTQuODgsMi44OFptNC45NCwzNmEuMjMuMjMsMCwwLDEtLjIzLjI0SDEwLjE4YS4yNC4yNCwwLDAsMS0uMjQtLjI0VjMxLjgyYzEuNzUuMTcsMy40OS4yNCw0Ljk0LjI0czMuMi0uMDcsNC45NC0uMjRabS00Ljk0LTguN2MtOC4zMiwwLTExLjcyLTEuNjktMTItMi4xOVYyMi42OGMyLjg2LDEuNCw4LjMzLDEuODMsMTIsMS44M3M5LjE1LS40MywxMi0xLjgzVjI4QzI2LjYxLDI4LjQ5LDIzLjIxLDMwLjE4LDE0Ljg4LDMwLjE4WiIgZmlsbD0iIzJjNTk2NyIvPjxwYXRoIGQ9Ik0xNC44OCwxMy4yMmE0MC40Nyw0MC40NywwLDAsMCw5LjM4LTFjLjQ0LS4xMS44NC0uMjIsMS4yMS0uMzR2LTJhMzMuMTQsMzMuMTQsMCwwLDEtMTAuNTksMS40MloiIGZpbGw9IiMyYzU5NjciLz48cGF0aCBkPSJNMTQuODgsMjAuNzZhNDAuNDcsNDAuNDcsMCwwLDAsOS4zOC0xYy40NC0uMTEuODQtLjIyLDEuMjEtLjM0di0yYTMyLjc4LDMyLjc4LDAsMCwxLTEwLjU5LDEuNDNaIiBmaWxsPSIjMmM1OTY3Ii8+PHBhdGggZD0iTTE0Ljg4LDI4LjI4YTQwLjQ3LDQwLjQ3LDAsMCwwLDkuMzgtMWMuNDQtLjExLjg0LS4yMiwxLjIxLS4zNFYyNWEzMy4xNCwzMy4xNCwwLDAsMS0xMC41OSwxLjQyWiIgZmlsbD0iIzJjNTk2NyIvPjwvc3ZnPg==;rounded=1;sketch=1;" parent="bxGKdZcUwFsUMawT34U8-58" vertex="1">
          <mxGeometry x="50" y="58" width="30" height="42" as="geometry" />
        </mxCell>
        <UserObject label="&lt;font style=&quot;font-size: 14px&quot;&gt;Gsm1&lt;/font&gt;" placeholders="1" name="Variable" id="bxGKdZcUwFsUMawT34U8-60">
          <mxCell style="text;html=1;strokeColor=none;fillColor=none;align=center;verticalAlign=middle;whiteSpace=wrap;overflow=hidden;rounded=1;sketch=1;fontFamily=Comic Sans MS;fontSize=18;" parent="bxGKdZcUwFsUMawT34U8-58" vertex="1">
            <mxGeometry y="32" width="80" height="26" as="geometry" />
          </mxCell>
        </UserObject>
        <mxCell id="bxGKdZcUwFsUMawT34U8-61" value="" style="sketch=0;html=1;dashed=0;whitespace=wrap;fillColor=#2875E2;strokeColor=#ffffff;points=[[0.005,0.63,0],[0.1,0.2,0],[0.9,0.2,0],[0.5,0,0],[0.995,0.63,0],[0.72,0.99,0],[0.5,1,0],[0.28,0.99,0]];shape=mxgraph.kubernetes.icon;prIcon=pod;rounded=1;glass=0;fontFamily=Comic Sans MS;fontSize=24;" parent="bxGKdZcUwFsUMawT34U8-58" vertex="1">
          <mxGeometry x="-10" y="80" width="35" height="36" as="geometry" />
        </mxCell>
        <mxCell id="bxGKdZcUwFsUMawT34U8-62" value="POD" style="swimlane;rounded=1;sketch=1;" parent="bxGKdZcUwFsUMawT34U8-90" vertex="1">
          <mxGeometry x="140" y="10" width="80" height="100" as="geometry">
            <mxRectangle x="500" y="370" width="90" height="23" as="alternateBounds" />
          </mxGeometry>
        </mxCell>
        <mxCell id="bxGKdZcUwFsUMawT34U8-63" value="" style="shape=image;verticalLabelPosition=bottom;verticalAlign=top;imageAspect=0;aspect=fixed;image=data:image/svg+xml,PHN2ZyB4bWxucz0iaHR0cDovL3d3dy53My5vcmcvMjAwMC9zdmciIGlkPSJMYXllcl8xIiBkYXRhLW5hbWU9IkxheWVyIDEiIHZpZXdCb3g9Ii0wLjAwMzcwNTc4OTgwMDczMzMyOCAtNC43NjgzNzE1ODIwMzEyNWUtNyAyOS43NzM3MDQ1Mjg4MDg1OTQgNDIiIHdpZHRoPSIyOS43NzM3MDQ1Mjg4MDg1OTQiIGhlaWdodD0iNDIiPjx0aXRsZT5PdGhlciAtIFRlY2hub2xvZ3kgLSBEYXRhYmFzZS1QbHVnZ2FibGU8L3RpdGxlPiYjeGE7PHBhdGggZD0iTTEwLjE4LDQxLjVhMi42MiwyLjYyLDAsMCwxLTIuNjItMi42MlYzMkMyLjg3LDMxLjMuNSwzMCwuNSwyOFY1LjIzaDBzMCwwLDAtLjA4Qy41LjcyLDEyLjQ4LjUsMTQuODguNVMyOS4yNy43MiwyOS4yNyw1LjE1di4xNGgwYS40MS40MSwwLDAsMSwwLC4wOVYyOGMwLDEuOTMtMi4zOCwzLjI4LTcuMDYsNHY2Ljg1YTIuNjIsMi42MiwwLDAsMS0yLjYyLDIuNjJaIiBmaWxsPSIjZmZmIi8+PHBhdGggZD0iTTE0Ljg4LDFDMjAsMSwyOC43NywxLjg3LDI4Ljc3LDUuMTVjMCwwLDAsLjA4LDAsLjEzczAsLjA3LDAsLjFWMjhjMCwyLTMuMzEsMy03LjA2LDMuNTh2Ny4yOEEyLjEyLDIuMTIsMCwwLDEsMTkuNTksNDFIMTAuMThhMi4xMiwyLjEyLDAsMCwxLTIuMTItMi4xMlYzMS42QzQuMzEsMzEuMDYsMSwzMCwxLDI4VjUuMzhzMC0uMDcsMC0uMSwwLS4wOSwwLS4xM0MxLDEuODcsOS43MywxLDE0Ljg4LDFtMC0xQzExLjM5LDAsMCwuMzcsMCw1LjE1YS40OS40OSwwLDAsMCwwLC4xMi40MS40MSwwLDAsMCwwLC4xMVYyOGMwLDIuMTgsMi4zMSwzLjY0LDcuMDYsNC40NHY2LjQyQTMuMTIsMy4xMiwwLDAsMCwxMC4xOCw0Mmg5LjQxYTMuMTIsMy4xMiwwLDAsMCwzLjEyLTMuMTJWMzIuNDZjNC43NS0uOCw3LjA2LTIuMjYsNy4wNi00LjQ0VjUuMzhzMC0uMDcsMC0uMTEsMC0uMDgsMC0uMTJDMjkuNzcuMzcsMTguMzcsMCwxNC44OCwwWiIgZmlsbD0iI2ZmZiIvPjxyZWN0IHg9IjExLjM1IiB5PSIzNS44MiIgd2lkdGg9IjIuODIiIGhlaWdodD0iMS44OCIgZmlsbD0iIzJjNTk2NyIvPjxyZWN0IHg9IjE1LjU5IiB5PSIzNS44MiIgd2lkdGg9IjIuODIiIGhlaWdodD0iMS44OCIgZmlsbD0iIzJjNTk2NyIvPjxwYXRoIGQ9Ik0yOC43Nyw1LjE1QzI4Ljc3LDEuODcsMjAsMSwxNC44OCwxUzEsMS44NywxLDUuMTVjMCwwLDAsLjA4LDAsLjEzczAsLjA3LDAsLjFWMjhjMCwyLDMuMzEsMyw3LjA2LDMuNTh2Ny4yOEEyLjEyLDIuMTIsMCwwLDAsMTAuMTgsNDFoOS40MWEyLjEyLDIuMTIsMCwwLDAsMi4xMi0yLjEyVjMxLjZjMy43NS0uNTQsNy4wNi0xLjYxLDcuMDYtMy41OFY1LjM4czAtLjA3LDAtLjFTMjguNzcsNS4xOSwyOC43Nyw1LjE1Wk0yNi44OCwyMC40NGMtLjI3LjUxLTMuNjcsMi4xOS0xMiwyLjE5UzMuMTYsMjEsMi44OCwyMC40NFYxNS4xNWMyLjg2LDEuNCw4LjMzLDEuODMsMTIsMS44M3M5LjE1LS40MywxMi0xLjgzWm0wLTcuNTNjLS4yNy41MS0zLjY3LDIuMTktMTIsMi4xOXMtMTEuNzItMS42OC0xMi0yLjE5VjcuNDJjMi44NiwxLjQzLDguMzMsMS44NywxMiwxLjg3czkuMTUtLjQ0LDEyLTEuODdabS0xMi0xMGM3LjI2LDAsMTEuNjIsMS40NiwxMiwyLjI3LS4zOC44MS00Ljc0LDIuMjYtMTIsMi4yNlMzLjI3LDYsMi44OSw1LjE1QzMuMjcsNC4zNCw3LjYyLDIuODgsMTQuODgsMi44OFptNC45NCwzNmEuMjMuMjMsMCwwLDEtLjIzLjI0SDEwLjE4YS4yNC4yNCwwLDAsMS0uMjQtLjI0VjMxLjgyYzEuNzUuMTcsMy40OS4yNCw0Ljk0LjI0czMuMi0uMDcsNC45NC0uMjRabS00Ljk0LTguN2MtOC4zMiwwLTExLjcyLTEuNjktMTItMi4xOVYyMi42OGMyLjg2LDEuNCw4LjMzLDEuODMsMTIsMS44M3M5LjE1LS40MywxMi0xLjgzVjI4QzI2LjYxLDI4LjQ5LDIzLjIxLDMwLjE4LDE0Ljg4LDMwLjE4WiIgZmlsbD0iIzJjNTk2NyIvPjxwYXRoIGQ9Ik0xNC44OCwxMy4yMmE0MC40Nyw0MC40NywwLDAsMCw5LjM4LTFjLjQ0LS4xMS44NC0uMjIsMS4yMS0uMzR2LTJhMzMuMTQsMzMuMTQsMCwwLDEtMTAuNTksMS40MloiIGZpbGw9IiMyYzU5NjciLz48cGF0aCBkPSJNMTQuODgsMjAuNzZhNDAuNDcsNDAuNDcsMCwwLDAsOS4zOC0xYy40NC0uMTEuODQtLjIyLDEuMjEtLjM0di0yYTMyLjc4LDMyLjc4LDAsMCwxLTEwLjU5LDEuNDNaIiBmaWxsPSIjMmM1OTY3Ii8+PHBhdGggZD0iTTE0Ljg4LDI4LjI4YTQwLjQ3LDQwLjQ3LDAsMCwwLDkuMzgtMWMuNDQtLjExLjg0LS4yMiwxLjIxLS4zNFYyNWEzMy4xNCwzMy4xNCwwLDAsMS0xMC41OSwxLjQyWiIgZmlsbD0iIzJjNTk2NyIvPjwvc3ZnPg==;rounded=1;sketch=1;" parent="bxGKdZcUwFsUMawT34U8-62" vertex="1">
          <mxGeometry x="50" y="58" width="30" height="42" as="geometry" />
        </mxCell>
        <UserObject label="&lt;font style=&quot;font-size: 14px&quot;&gt;Shard2&lt;/font&gt;" placeholders="1" name="Variable" id="bxGKdZcUwFsUMawT34U8-64">
          <mxCell style="text;html=1;strokeColor=none;fillColor=none;align=center;verticalAlign=middle;whiteSpace=wrap;overflow=hidden;rounded=1;sketch=1;fontFamily=Comic Sans MS;fontSize=18;" parent="bxGKdZcUwFsUMawT34U8-62" vertex="1">
            <mxGeometry y="32" width="80" height="26" as="geometry" />
          </mxCell>
        </UserObject>
        <mxCell id="bxGKdZcUwFsUMawT34U8-65" value="" style="sketch=0;html=1;dashed=0;whitespace=wrap;fillColor=#2875E2;strokeColor=#ffffff;points=[[0.005,0.63,0],[0.1,0.2,0],[0.9,0.2,0],[0.5,0,0],[0.995,0.63,0],[0.72,0.99,0],[0.5,1,0],[0.28,0.99,0]];shape=mxgraph.kubernetes.icon;prIcon=pod;rounded=1;glass=0;fontFamily=Comic Sans MS;fontSize=24;" parent="bxGKdZcUwFsUMawT34U8-62" vertex="1">
          <mxGeometry x="-10" y="80" width="35" height="36" as="geometry" />
        </mxCell>
        <mxCell id="bxGKdZcUwFsUMawT34U8-96" value="" style="sketch=0;html=1;dashed=0;whitespace=wrap;fillColor=#2875E2;strokeColor=#ffffff;points=[[0.005,0.63,0],[0.1,0.2,0],[0.9,0.2,0],[0.5,0,0],[0.995,0.63,0],[0.72,0.99,0],[0.5,1,0],[0.28,0.99,0]];shape=mxgraph.kubernetes.icon;prIcon=node;rounded=1;glass=0;fontFamily=Comic Sans MS;fontSize=18;" parent="bxGKdZcUwFsUMawT34U8-90" vertex="1">
          <mxGeometry x="205" y="140" width="50" height="48" as="geometry" />
        </mxCell>
        <mxCell id="bxGKdZcUwFsUMawT34U8-104" value="&lt;font style=&quot;font-size: 15px&quot;&gt;$&amp;gt; kubectl apply -f&amp;nbsp;&lt;/font&gt;&lt;h2 id=&quot;blob-path&quot; class=&quot;breadcrumb flex-auto flex-self-center min-width-0 text-normal mx-2 width-full width-md-auto flex-order-1 flex-md-order-none mt-3 mt-md-0&quot; style=&quot;box-sizing: border-box ; margin: 0px 8px ; font-weight: 400 ; width: auto ; min-width: 0px ; font-size: 15px&quot;&gt;&lt;span class=&quot;final-path&quot; style=&quot;box-sizing: border-box ; font-weight: 600&quot;&gt;&lt;font style=&quot;font-size: 15px&quot;&gt;sharding_v1alpha1_provshard_orig.yaml&lt;/font&gt;&lt;/span&gt;&lt;/h2&gt;" style="rounded=0;whiteSpace=wrap;html=1;glass=0;dashed=1;sketch=0;fontFamily=Comic Sans MS;fontSize=16;fontColor=#ffffff;fillColor=#232323;strokeColor=#314354;shadow=0;labelBorderColor=none;labelBackgroundColor=none;align=left;spacing=20;" parent="1" vertex="1">
          <mxGeometry x="40" y="200" width="360" height="79" as="geometry" />
        </mxCell>
        <mxCell id="bxGKdZcUwFsUMawT34U8-108" value="" style="shape=image;verticalLabelPosition=bottom;labelBackgroundColor=default;verticalAlign=top;aspect=fixed;imageAspect=0;image=data:image/png,iVBORw0KGgoAAAANSUhEUgAAAboAAAIICAYAAAAYHStmAAAAAXNSR0IArs4c6QAAAERlWElmTU0AKgAAAAgAAYdpAAQAAAABAAAAGgAAAAAAA6ABAAMAAAABAAEAAKACAAQAAAABAAABuqADAAQAAAABAAACCAAAAABgXJwQAABAAElEQVR4AexdB0BVR9Y+0ntHUazYsGHvvfdeYqImMb0nm2SzKZtsdlP+ze4mm7bpPWpMjLF3Y++9oYKCqCiICtI7/uebxzwezwe8h2AQzknklpk7d+abuXPavDm12nXufZ2EBAFBQBAQBASBaoqAXTVtlzRLEBAEBAFBQBBQCDjUrhssUAgCgoAgIAgIAtUWAYczp05W28ZJwwQBQUAQEAQEATFdyhgQBAQBQUAQqNYICKOr1t0rjRMEBAFBQBAQRidjQBAQBAQBQaBaIyCMrlp3rzROEBAEBAFBoNyMrn2XbtQ6rKNCcPLM+wRJQUAQEAQEAUGgSiJQbkbnH1CHLsaeI0dHR6Lr8pvzKtm7UilBQBAQBAQBqhXSMswmLmVvb0/9h40ibx8/SktNITs7O/Lw8qaEuAu09fc1AqkgIAgIAoKAIFClELBZo7vO2lv4of1kxwzv4J4d6nh47046dmhflWqYVEYQEAQEAUFAEAACDrbCUFBQQAXM7JKuXqErCZfYdOlEUREnyCa10NaXSn5BQBAQBAQBQaCcCNhsuuzZbxDVa9CIatWqRfn5+Uqjg5b329xvy1kFeUwQEAQEAUFAEKg8BGw2Xe7ZvpmuXL6k/HHrli/idSjXaekvP1ZeDaVkQUAQEAQEAUHgJhCwmdFBi3N39+CFKMkUVK8+XTx/lvJy826iCvKoICAICAKCgCBQeQjYbLpEVVxcXSk7K5Mc2D93nX12eXnC6Cqvi6RkQUAQEAQEgZtBwObFKHhZVmamemduTs7NvFueFQQEAUFAEBAEKh0Bm02XlV4jeYEgIAgIAoKAIFCBCAijq0AwpShBQBAQBASBqoeAMLqq1ydSI0FAEBAEBIEKREAYXQWCKUUJAoKAICAIVD0EhNFVvT6RGgkCgoAgIAhUIALC6CoQTClKEBAEBAFBoOohIIyu6vWJ1EgQEAQEAUGgAhEQRleBYEpRgoAgIAgIAlUPgRrP6BqFNKMho8fb1DNOzs425bcls51dLerZfzD5+QdY/Zh/YB3q0LWH1fklY9kIOHMf63+1ys5+S3M4OTmpTdUtvbRF63YUzJuuVzbV4nE6bOwk8g8MrOxXVWr56vsfdeP3r/seR0v97+Liotof3LDysa5UAGpI4eXaGQXY4IPCpHzy2BEaNXEarVz0S5mQccADGjJqArm4uanNoONiY2n/rq1lPlfZGdzcPa1+hb2DPY2eNJ0W/fR9ic80aNSEUpKTKflaYol5Skpo0TqMfPz8KSnxSklZbrifnHSV+g0ZQSnXkij6VMQN6SXdaNG6LTVv1Zbsatmp923fuE71C/K7uLjSoJFj1TZvqcnXaNPa5cZA8m5u7tSX3+fMeXJzsmn9ysV8zDW+pl79htSeGe/hfbt4L9RzxvvlPcE4GzRiHLnyHqsFBfl0htt4/MjB8hZX5nPY4m74+Kkqn6ODAy37dR5veZdV5nO3KsMIrtte/m7izLB14Lq27dCZfl+1pNKrUounfzcPDx4TN7KBOnXrUW5uDiVesX4M32yFO/fsQw0ahRACQ2dnZ9HyX38yFtmwSVPq0K0nOTo4qnBiyxfMpRzjrk5oR/Hv35r+R1gyd36uFn87tpCPrx9voehG8RdjbXlM8t4kAuVmdJjMjh3cxx1NagKyph7Dx00hfIxrly4kV54sh4yeQBkZqXTiyCFrHq+UPGejT9M5/leR1LJtGJ07E2Uzo8OE3qZ9Z9qxab2RqVhTL+w1epCD34a2aW81owuoXYcnxS60fsVitW/pYBZAmrVsRadOHlevHDV5OscZPM59c5AGDB9D3foMpN1bN6q0/sNGq7QzpyOoVbuONHbKDPpt3ndqkhkwfDT5+PpTPjMk9HVF0PDxU5gZ2/O4+ZW8fHyp39BRlJ6WSui7yiBscbdk/g+q6El33VsZr6iUMhvwhH4tKZGSk5IqpXzTQhGXEhhx8JIbqFFIc9U/t5LRBTdozGN5kXovmelgIS1CKZIF8ojjR1VdEXFF09noU/z9n9KX6mhN/0PwWczCblFJxYoo8SIwqC4F1A4SRlciQpWTYPNMBMbWrfcA8mbJpGXb9sbJrHOPPqydbSu1lpCc8HEgAkJ2djaFH97PERAaGBldp+69qEmzlvzxXKfd2zfRhbMxqrxJd95Dh/bvprDO3cjezp4iecAeZSYLArNE4FdMuqAGjZuwGa8XLWOprS4z414Dhqj7OzatY5PgEGXyWbPkV9ZUHGlwockih+uC/KbUtEUrat+lu/HZ3oOG08I53xizBNUNpt4DhxKrtbRr6wZVV/+AQBowYqz6zLx5sm/XqRtHdsilJT9bF8YIUdvz83Mp7sKNWlDXXv2oIZtZQUcYi1Mnwo11wUnCxQvUhfvAnaXs9LS0YmmWLry8fCiGP/AU1tZAF87HUP3GIYrRQaLFZt2H9+1WaSePHqYuvfqqc0fGzcHRQeGdy207cmAPNWfNEITn8OUv5NiEQ8dMtHkSUIVY+OPm5kmL53/H2BTQ5UvxdJzHTeOmLRSj6zVgMPdzI/XUsQN7qW2nrlTA40tr3GDo0D7teNycPxNNe3hcafIPqM39NUZdIpDwhlVLdVKpR2gNA1nb9fbxU/u+bly9lDLS00t9BomI4dhvyEgKqBPEbcmj9csXcxSQFPXchDtmKS2tc7fe5MjmsvgL5wkaNggC0JDRE8nT20cFPFbSpUop/qdlmzDG5kCxm3WD61MPHvd2PE5Ny8Tk37FbL5V3DwswXfsMUPXDd4DvoTQaM/lOckZfM5nm9/TyomEszGoKbddBnS5iIQiMETRywlSlQWF8bVm/SgVvVgll/OnWuz+BkeM54HIp7oJ6At83vnPolVoLz2GNbtmCecqE24PdAEiDeb9Nxy7qmWW/zFF1KPr+DflVYhl/0BcT75ptzLWV25AQH2e8xjeMNkJrA47L2RqA+QzfxmjGTdPkmfep05W/zafMjAx1jvkNFha08RBbQ6IjT+rsaq4JCm6grvds20TnY6KNaXJSNgL2vgF1Xi87W1EOSOmwTyP46umTx6hug4Y8yZ/hCSiONZiSJUk3d3dqwZ144uhBoxSICOUxUZGq8DCeoILZ5Ld68QKe6M9T7wFDeWKKUiaGVmEdqXZQPSWxISxQx+69eWJJY8k1kc1nLsxww5j5HVPlDB45XjHCKwnxlJaSTNHMBFu2aacY6lGelCOOHVZSH56HtnKKmSZMeBHhBmkPhQTyRNSdA8xiAjiwe7uanDDBw1yGCaM118fT15dWMcPkUUkdu/ZU70znMiOOHVITb3TkCdq2YTXfP2Jsr6pgKX8wKdcNbkiRJwxt0VnbtO+oJvZVi39RkxUEDWhbEBg0gem04okljk0i0HbKoqTEqxQXe15lwwTckYWMU/xeaAR1mIlj8ogMP0LNQlurCRHtxoeXw6ZKCBp64oKpzM8/kE3Yh9l8mWMUOCAoXOW4haWNibLqqNNDuX+Pm2j98JHCHAVmfz7mDF08F0N4nx8zrl1bNjADjFTMHpPLoFHjaP/ObRR+aB8LHl14TKRQKo8LMKsRbHLfteV3OrgH2nCYYkDmEwgwBS75JhE6Rk28g9KZQSmBib+Hbr368/g5oqtb4hF+VJh91y3/TVk0IJic5PECCg3rQA0aNqHfVy6hqFMnqH3n7lzPa0oQAXN0YLPbau5/+Mbw7Z0/G63Gt36ZHwtZIc1Daa8JI0c4rUEjxxEm4wO7t1EYC16wxEDAAWOPYeEQ32SdesF0iDFAOzF2TDUeXb7pEeMT305Tfl8Uj3M9DjGxY/x7eHrTJf6Gt6xfqYRYXZ4WkKEJwcwOc6O5wGb6Hn3euFkLNf4xN+RkZxKEPuCNcmN57gGGzUPb0oqFPykhCO2A0oZ+Rn3qsSB05MBu2rNtI508eoijreQrAUV9/yeOqmcxpi2Ref+jXDyHf81D29AFHnum3xsEbwhjG1cvU2O0Jc8tsJLA6oK6QPAFI8MYQF20yb8xC7Gt+DtfykLx+Zgo6jNwGDPQi8wE09nS0lopAEjD+8Dc8b0JWY+AnfVZDTnRYVcuJ1Aqf+hRPPGB8R3YvYNNdaVLGPADlUaBzMigQUDTu8rlgwk2bt7S+EhE+GGWflPVIDpz6qSa1JCIAerk5KwkJmibkKhO8AAyJ/gCUV/UHUyhNMKEeYkZRiwPKuQ11QLwHI912rRmudIc8KGCUUCCAxUUIPU6f2gF6txwrZLK/OPIYY8K+Dlz8g8MUhIeTCr4iDAZ6snDNC+YEDReWwiY4cOBFnTujMEUCK0Q1L3fQGUOXbvsN3Xt5OykjvoPGDO0iJWLfta3KukITIsIdbU0njDRQUhKiI9XmYHX0p/n8FiKV3jBlAbTJyiYTV2YDS+cO6sk7zVsTj92cK9KK+0PGCR8zIfYVOzGjASYwTrg4Vncz2OpjEN7d7FZeh2BUcPPiHEDBqYpgoUifFep7N9FcGNP1rpBsA7s27FFTZanedK0FDUEky7McJiINTVq2pwSmaFhzGAcwnfnbqGeMJXHRJ1S35wWYHQZth7VeOdKYHzi3HScZmamkz3PF77sg0afrPzNunETczpSMQY8e4knf+AG1wfI+B4+R93xTlUHlWr4HtUXWXjfNK0wS4UeEIw6/NB+rp8bHWULg51J/2o8dJ1N69KyHbsdeH6C3xuWC/jwIHCC8F1D0IQAnpWZwdaNHyq0zjWhMAdbG9m1dz/l9AXw46bNJEdeATaBTYvKXm36lZkVjM4yfIMwJBjOwCQxuWdy50EzMzWZpKenKmevLsbUHIcJzNPLWyVBmoQWAkkVAwiLIywRmKe1hHqB4WqC9mdKYGL5LBWCtDRr5hYwzW71OaQ3mNjMCROpKTZorzmhP5ydXdQiAPO00q47dOlBvrzCE8xMf3hJiYncLzx5e3jRCjatKJMkF6JNLCjPG74y1jR2bF5f+Qs1wI1NCGMmN+/GEFHGvijMixVzMGdhTGRx/EQPTy+lZSLZxc3VGG4K1xBocpnBlEWYZEHwWWqCdmyp33S6PrZp34lNU21Y00hhrIu0cZ1uqhlA8teECT4vr+jalHkgD76d+mwNWcUajymBGWjTKO7jOQiC5lQRWrd5mZauMfFjkVP3vgOZ4Xopaw607bIIbYPpEmZ2mHyrMg1g/zXmJtWXZuO2tHpDaApu2Fj573Q+PZ7h74eA0p6/VeB2JSGOtqxbrbPJ0QoEbGZ0R/bvYfOLB0ukJxWDGTpmEq1dsqCY5GbpvVjlBEkcg0B/WOg4SD7bNqxVZhhMnlDXQb5+AUrq1WXBdIkOV2k8MWMloCZodfDv4UOG/doSmZqeLKWb3stghoNBh0kNZcJUZAtBsnR1NUictjyHDxlLx6E16EGO5xHkFszoYuw5VRzMhWdZk4Dkr8nLx0fVFeZcawnaGPxyv69cWoyRJl5JUKLIRtZa0X6YJiGMaE0YGh8WqBxmX6E2f1r7TuRryotesJDEdDIv7XkwEWiP0PJB6JsUiwsurhcrBn4ZCFgweYH68yIWLWRhDGLsaQqsU5cX0fixmam471On6yP6FqwOWj7MoBgjMBuaMimd1/SIfKHs096zfbPyr+CZQezPtYayszJY6PNSK3mRH+PDlPBzgqvcZ+YCWeLVy9S60E+G/NAQdR+aPo/vsiIJYwbCmTnhJzPwrUMr8fL2pqFjJyuTqelYN38G1937DFALSbD4DS4QmI6rIqFf/HmcrmC/XBYvVmkY0pTNxQY/v64vsIFyYE5YQIQ5bS9r7iBv/p5zcw1MHXMm/MtYtOfo5KgWf0EQ1X2JsdWOXT84ar+6efk1/dpmRofVRpCGsfwdE+Blli7SrXDEA2j4P7BI4STb12FuxG9Ytm9cq/oAi0m69OynHPFuPAGpzmVbtaag4PqqM2H2gU9B+zaQDjs9FsM48SCI50UZmiDpNmbzDQiLXCANwnwJgmQJ5zY0IUi5cAJDaoZJCWbLduy47jt4OPsSrtnM6LCKsz377Qp4UENLK8n+rypi8gf1w+DFhBhusqjgDJtuerLPEPXE5NygcVMKP1J80QFWusFPqge/SbEWT4Eh2gjBAj8VUcT1hRMcEw8+Ojjr8e62HTqxOdjgE7DjjwlMDoSJswO3E3R4306lnWOBEgjaU5Nmocrsdo01Hu378uIFFdAisYDIWopic13fwSPodES4mvDrslMepmMQGAa0eVAI++ng/9A/sYCpDH4q+H9hEkJeLUhh8Q7aCbMt/EXA4HghppikMV5AmDywcCOPJx34fsDoYEqD5A4/ERgkhLLVS35R+Uv6gwkOgkxLfg+WpaO/rCUsyoIZ+RT7obFqz5TRYfy269iV9u40TJCmZcby5Ai/HKwwqTyOW7NGqccVNAj4OUFN2EUAZqe/DdMyLJ0DD3t7B2WGhG8U7owY9rVrkyowVgtdWO4AU8P3DsLYgDkODAt9kctWE2uY7GU2c2LxEcqHdlcRpL9/e3s7hafp919a//NwYL91W1UF9AOELi9elHTh3Bm1IAl17MCLfDCmMB7NCb5RCPjwM8KHeJoFK+AH0zTmRggr6FOMx83rVqlr+MthDcD4hIukFqebaviYE+FrBcFtY2r9MX9/Tb22eTEKgIJfAaueMHnAlozJ3BqCRoK8nizN5fGAOMa2bPgPQGAoWLzgxdILTJMH92w3mpbgED52cL/6KDDxwJdivnQZHyuk9LPsa9DkxCYufFBgAHZqQDvwOwzvg/kLP3bFKiq8FwMelHjlsmIW+P0XNIlsdn5j4gTDxGIUSPOYtLR2gWdwrfwghZIx/CJpPKk5KMmteF7kL42gTYF5YDELJlUQPgjUEcwfjAyrW01/1wX/ED4cLP8HdtYQBI0sZgT4sMBg8U/5X3lSAUWzxu7CplD4tLDgAL4hRYwXTLuop34Oxyvcj/hAff39FbNBfTPY/AzGk8WrytAGUAteGITfCdriTMcYM2gBvsoEeZh9Xdp8C0zA/NHHqJcdT8C6b4AFGLYba0NgtvCngdnoFZLA2JUnfJh8MeHoVW6YwOAPwZiALwl9jnM9VuPYDwhzqJe3L7frGh3g/tDSt2pkCX8usj8Qk5Iaw7w4BhMS6o3xYxhT8Sb9el2NZ9QV3xq+G1fWZlAGNLWrXC9YSbx5URQm/wO7tt/wVowftBmmZxcXN9aKjihfHDJCCPTx81PvR3vBuNBWawjYOPLKW4wBTPzAJom/G62ZwaqQlprMQitrLpx+tfAbh0AKRoAV25kZaarO1ghmEJJQR2hC6CdgAtzMmSTGHHA0J9yDYI7f12lCWfj+0Rfm339p/Y/8+J0g2oznwHBwjrkHbYOQDDMjrBV7WXtHH5i6TdCPl1kQwByKOQmaOPKgbuhnWBWAGTRflA/C87AYYJUvvjUskDP9/mGtAt4XeKEe5i+hGxGoFdIy7MaRcWO+P/QOfst0cM8OpV2YVwQ/4MbvxyAtrmLnNkxsN0u1WWruM2gYaze71UQJ6RQT9c7Nv99s0VY9j9/ZYAI1HcylPQjpFAskMJlXdRrNv8/DxAUTuNDNIwAmD0atGf/NlyglCALVD4HbgtG14qXX2AXC0scMyRTmmVhebh13IbbCeghSclM20WDnA5hiYBKwJC1W2AtrSEFBbDLFyldr/XM1BBZppiAgCFQiArcFo6vE9kvRgoAgIAgIAtUcAYNjqpo3UponCAgCgoAgUHMREEZXc/teWi4ICAKCQI1AQBhdjehmaaQgIAgIAjUXAWF0NbfvpeWCgCAgCNQIBITR1YhulkYKAoKAIFBzERBGV3P7XlouCAgCgkCNQKDKMTrsg9ikWYvbCnzspHArCe/Dbh1/FN3q9lrTzga8Zye2SarKhJ1jsMEB/mGHjapO2MUFoXSwr2JFEuI8Yu/aqkAIEozwSULVDwF8YvjmQOVmdHXrN+B93hqpQjr36K2OZf3B5siI5VYaYU+7Zhxy5HYhbDs18c57eJspQ2ibW1HvUZOmq3hxlf0ubMKLTabNCdEqEBmgogiBXDGGTCdUbBPVieMOWkvYVxD7FVZlGjh8LEf8mEUTpt/D+5WGWF1VRDwAPvgHZo4tuG4FefCenI15T04PDqhakYT9MbFlX2UTtvcDZqabd5u/M7hRY0K8u5pK2O8UGNkivIJ5YJ9cxDrs2K2n2gauKuKHfVWxXzGo3IwOwQALOG4S5NLGhRvgqhJL+YOIzmV94IjyvH7FolJKqWJJf5Bkfv0WKAT9ho1SmwibI254dcVVwIH3WcQmyghHowmTbIgNk+HmtSs4kvsP+vEqeUQ8OETbToi7aFP9EFnakfcmRbQK7ASE8Ej+gbVtKqM8mbFnK2KfJV2t2K3lFs//Xu3LWp462fIMdjXCuHLiLdJKIsSOQ8zCmkZg/v2GjGAm18fw7dlglUKYJSgtCFqNTc2HcRSKqkmYowzzVNHMYkNNIY1hs19szotNk3lvLBWJAKFXykvYNFkHGsSWW9g135SQrsLl8M6c2GQYG6BqQgiXJhzt2IE768L5GN7INlolIXRNMAfYxJ6R0ECxMfBh3mNRbz+F0DeIFACt7BLvZm8a2RubvmIzaey2j010ESJDbwEGbaYNSzQ4InyGtdSNd5HHxtAIIAvCLv7YaBdx3hBtOoo3Um7UpBl58KbXiNCMyMQgmLmgCQPvRN4+y5zFYCNlRFiGVIbwPdiQGgQ8dfSGIxxdHRoSNrNGVG2EESmJEBgTWjWCuOKICM3YjBabcGvyDQjg3e+bqXeGH96vNuVGGjaqBW6+vgG8gXKS2jrNmo17dbmWjtiwGn2OaBfY+R+b1yLKBKgeR7hv0MigHWFT4X07txqLQH7sAxpRGD0aERWgESEP8uJjbx3WSW16HBd7Xm1kjYcxblq17aDKwdZviHCP2G6I3o24iMAZ28558IbS2BQb0cs1nogA3q5DF9643Ef18xEOZaTHjbFi5ThJ4PGuozKA6aEvEeQThHGMwKuq//kb1OGcSuv/NhzqCRupIxoC2ogo7tgs+Qjv74rNbxEaB4S6I7SQKUEgQUQItD+bx+5+3lA6vzC+HrRyhIxBWCFsRIxIBQiVBIL0j83EQdGnT/LmxkWbSHdhEykiWiC2H6hF67Zq42N8LyBoHghHhI3HoyKOq4CyKqGcf2CBQT+BMD6xUbIpYf/Qth07q+C6iOmH8Dd6k3VoiqE8PhC9JZU3UzaNGIC4eQiAq6JfcL5w3oxeb2gOTQjfBuZMbOh9jMeNaZxNbDuIf9isGtFc9CbipvUyP0d4soT4OBXBBWmI8gKzcFl7yUKrxqbnUCwQNcFawhgLqldfBX/GBunYdnH89FnWPs7fEs8NHO0DczLab7qfLwRbzPHAGZE6ELXCGoJlEZYHqJbYONycD4Ff2azRIR5SAMf5cuVwEYhLhpAd2C0eu6jfDIGZqGjNvKu3ubRajyVabKx8gRuBybP3wKGGXb75hWBECOGC3dzPcVifrr0HGJ9HSAswMmzSjAjK6CA9uFHXgRxuBtI1PrC2/HFiYtSEMCxoI3btx0Tag8PkgDBYh42bzFEWfOhcdJTaTFo/U9YR4XUgkWuqy5M0GA8IceF6DxiqPpx4ZnJhzAS1iapLz76s3YSqDsTk4mhiNsRkPWDYGLVrOSa4btx+tBeEnfvRbnw8w8dNURMZytYfrMpk4Q82xo7jshBm6BpL9TjHx2RKiLBw8VyMYsJDRhd9KL0HDFMM9jRPRhCG+hSaDkyftfUck1zP/oMJu+Lj48ckD+YOQjgUjBvEEDS3FiB4L6IlaGrG/l/gpXfZHz4emKSpSaVdpy7GUCeItgDc6vB46c9aLQhthQUD1JHfH8AYI/wS+rN74dhA2kDuC0SoP8thaxow7hibFU2IT6hjmrkxA8ZYxa71qv+ZQZXa/xcN/V+fxzTGFxgPnr+akMBxAlsbywWmECjMMUVbuvXqryarSA6/AwFgxMSpxiZ25rGKXfaBjSebPBEiSBOiuaNc4OrpaYiertPs7FirN9HgYYbWEz3CMqHPEY8SUQL6skaLMEM3Q2A0qo3crwi1Y0ow0gwcMUaFxIFwgXkDZjpNPfsNIZg8McbRfmhGmhD6C3MV6urIc9mA4aN1khIaMZYR8xBRCAaPmmD0IQWysN6N+y6WNzxHRIPeA4cp/IwPl3CCmIiIK6kJAg+iKJRFCDEFAUYLIWXl1+kQNMHsDIGxPTg24DQleIMXlEXQHlu2asfz5ikViaM/jztNtTkiBOYUKDiYk/sNHakUEJ1e0hHjv3vfQWqsxnC5XVgo1oGi8QyECgh8Nmt0uTm5KsRKbX54385tNGbKXbR90zqjllRShcq6D+kS/+rUa8ANLL64A5M+QqqcLQy8isGuJ2swJ2h3WtqNZqaFjt+xab16JSJL7962EUqnGpRY7KIJmhImdUwQCJaoy0TYG0zSG1YvVZHEE9dcprFTZ6jHIM0ipMmWdSsVI0BdRvCEWREUz5OQjtOGeGVg+PjY0VFog5bclGZb+MK6rG0hxhU+OhB8W4hfhbyY/PEPEvohjv4QY6XGDUkvlieALhxJHRMozs1pJ+OLtiNt8sz7VDLieGHALlswhyXWHBX2ZfwddytmYCq5mZdlzTUiHug+bsh9jkUEMKlBO8Y/eweDwGBaFkLHOPB9SLiwEsAEeGjvTpVFxXVjjRXSOGj31k1K2oZWj/A3GFOQrDEZHuHI2KaE8YGJEpGeEdpGMx3k2bV1g5KUMZagqfdi4aUiCAIOLBcIJgt/5O4tG1SxEJYgJOr+R5iXusHW9T+0JVgJCrif0e7mrEXpRTKQ1E3bZdoGMHeElcHYxDgznVgw4WH8IIyOOTboA5AWGEzLPBvNMRf7D1H9o6JxsJCZeDVBZYH2CcYJxguCdUYLr+pGOf7AqoM2wj9sTtDGof3/vnKJ0vaucFsgiIIg6Abx+5ctmFsYZimefa6zlACF/gZt5rkB5wgvNWH63eoe/kBwRlxDfFOwICE2IMJYgSBoQ1PV3xqYO77tVG53aXSehfu2bF1Si5x4PAfyWEdMybKovFYWCIqgoLr1FWOGJgyLC8JlmWqnlt5/gscbLBx4NzZ2h/CtCRo0BNDkpKsc2y+G+zpGCQM6vaQjxiJiZBpCmSXQysvzVb/o/LDi7eZv8sZe1jlKOCK6NUxW0OwQIRnmu4F8XM9mlIow0Vh6LSaWK4WxmZCug3jiHKHlMSgm3mkYUIghB+amCdIvmBwoh2PLYaBq2r1tE/ViTSGPpStoP1s40CFIBTfk47hC5oZ72lyIiQAxqKDtgGDSqygyjVuFDqrFbQFBgzMNP1RQaCZCGjRpMETdfgRlxEdkTtYyOfPnSrrOMYntpfPA1wacRvNiGU2QjrF6zxpGpydZ9awGvLAgMHNNOdynaGdZlM8aWFTkcaWpY0xAGtWx6sAo8T6NG8weGWyWNKdzzGDNaRczmaGsxY7nRSU5bILZv3ubMdI6TFPBDZsoqRdjDQyxIkitRuaFWqkswYPJ6UkfAhksLLodtvQ/JhYwZMQzU1T4nZRVX0RXHzRiHGFREtoHIUpP0MBm8MjxaoIHM0ReML6yCEwQzAfaMOaXeDYl5+cZIp+DecOc3LJQO8c3ftnMwlBW+bakY9KFsKOZQTa3UQug6FPDGL/DWCTGEeYMzei0a4QNv8Y8ODlx9KASBMeycoDy4ePSQWlhzvNlU6j2S6ONOm5isULMLjIZ2/S0FGXxwTeWoiKVJ5vlqrhL3ZewcG1cvUyZkMHoYN4ti/x4nsIKV1ixME6N444fBHNDAOXh46fyOMhRczxCs5VFMHWfYgEBwaCBezrXYz0LKJpQX0zVNjM6SLgBbPJAAEQEXsQLDnLgycpicqgwzEuYmGD6AAUwYJj4IUGgIRfOxtDu7RtVmi1/YM9dyADDRzdk9ASl9iLmHFR/DNEl7KS+ztKuKaGd0Og0mZoi9b2SjngWGoYmmDaKU/EPQ6eh47VvA/fgZNeUydhACICG+UcTGDBasHQBa8csPGgqlAn05Q1HTJZ4DoxITxZwchf/0C1jc0NhZjdgQuo/dBSPkwzlO4GPB5TJZk2UiMUWpRFMTOaEMbeMLQAw4cB0D00Ei0zA1LFqePWSBWrMQvvq2W+w+ePlukawWa3RmhaQxX41MO8t629d/6Nfli/8idtvWOwB023snG9UtfBNLmVtB9iEtmvPptuRjM23RmHTtO6m5xgjsRylG6Y9BDbdvnGdMTmd3xfNk1nkiSLtpqwxZXy4HCcw50GbRRsgDMAnBy0ZwoWe55bxGDcdG9bUB8wNflWlFbIvrRePG5jbMJ6A24Wz0RReGOVeVdvKIY8grbBiYaI/ExVRjhZbfgRzG1b8Iui1JjA0tHXL+lVGPymqqdcd6HyWjljduW3DWqXRQmuHC0gTBC4oHns50jq0RixwQXDm4nOAzl38iG/jKGuKsLaN51XN8O9Gso/PlIpmTNO7pZyn8MovcGSo5RgMiBEHNdRagiMdZgD9T0XU5YehekPyx+DCP5yDAYGOsukI0hzsrQC+PzNXSFCgGO7Y4MZNlFbn5u5Jk2fcR207dFVppf0BKDC5wdSG96A8LX3D74OJEZKKA7e118ChNJGldxCkEOSHfRnqui2mKUgf7TrCUe+plr2a+tpKqytMHbDZ+7DvA4PFdMk/mHVAYJDSIrAAYPTkO9nXZPBLYeLVGiyO+ry0d5mmXWZbeViX7kpj1Hibppuf40NOZezg80F09bbc1ol33qv61jyv6TW0Y7QDbYTUB9MknOXWSHR2hWPFiS0MkKwxbkzxQTBaRAPHRAC/myalEfF74QtyZAkeHx18pJoUVgo/+xtwg/aENmKi9/T0VhMMvv6CAkOk8OAGjXls+KgxosvD0YHriPqh7KJzfslN0Hn0PwfqhRZZ1P+Gn1ncTP8rHLmu4N7G88J6Dhs7SfnJIXDB9Kknf7wPP7UBjviGPXg85kKIKZywEXEcZWHBDiKU49yesdAErQmLytz4+zDVEI7xQqrWvIgI3xvaOom/cVhxrCX42PR8gyPwR10N7XIxnmtTLbQiMJ+uvLAEfkaY2PB7QhAYH8bU4FHj1RgPZQ1+Eo9xSyZQ8/r1GjBEWQLwHkSnByw6SvqhfTupBa8ngIYOzQ5thL/PGoKgA00Y7iQIdtYQzKj+bAqHORyEc/wznSPQRhXUmr8dTWg/zNJdevTlNjsqt42pZqbzWTri+2jRup3CfRCXbUqtWCiCmdfN3V35X1EPjY1pPvPzhtyfU3ge92GN2NXVXSVbYrr2vgF1Xjd/uKxr/LQADlUscoDJwdrI1j5+fmqFGHxO+h8mOZgh2oR1Zid/L2Ubh6MZkrIHTyJYCIHVPZDEofaiQ/ft2Gpcoo0BmcgaDZzVcGZDQtIrjuA7gCaoTZ1YaeXNAwkTHmzjqbywBc+FNG+lbML7WTPVhMUEaCdMUQVsQlmzdKH6oPFRR2N1JE/GWCBy8tgh1SasAoRJszTCQhD8Zgdtiz51QgkMF1lKhASJhSrxbHKECRUEBpzBWkfilSvKQQ2BABJyOvuj8IHExZ5XWgOYC3xFndgBjrJj2Jl7giUhEJ4ZOHKsqhdWT0LbwOpFawnmBD9/XtHHzADmUf0RYSUntAs9wJvwe0+dCFfFAlv4UNq278zCg6syb2gBorT3YrEH/Iut+GOvw34GCDe634A1/Kh68sPElXItUfkI0S4IJLAyYIwA2/o86ZtqP+gz9D0kX1NCXYFb85Zt6CqPoZ1sdgPhYxvCK9HwHDQMvAP9q3248KWgzZjkILhBm0I/gNB/rTt0UqvHYM6HPxXjBdRn4HDVh5hgMWGjrvBL63apTBb+BPH3An8oBDBzwtgpT/+jXVidhkkXCyrwnTVo3IQXCpxWkzkW6qCfoSWgnvh3lvHCRIcgxxj7WEHnwpMLNFg9KcXwd9O0ZahapAVGuHndCtUvqDcWf0HahpUE3zHKhHlQzx8YJ1ggg3qZmibx/efzt9WJFzPA/ww/K8ZmWQTBpxG3QS9I0HMO+lILIvgm0K+oC1Z16tXe8BlicQ4Ea3xz61csVuMB78S4gd8XC9sgtG7in7ZkZRpWMTfh94FhG8aK4f1Y0AYCxnU48DB8jliwA18erFUgvAPCdWdmIJhXsVoV77GG0Cf4OQ7Gnv5Gy3oOfYsf7gMT9AEEh/oNG6v+11YPLP6CSfXgnp3cHoMZGeWif+o3aqzagTlvxcL5Zb1OpeMbxxyGsQMNDEKSno/ArKHJYTUzFgdhJS9+3lIW4buA6wltwTwREX5ULS7DcygPixUhREvg1bKQlHRBQBAQBASB2xqBIrvBbd0MqbwgIAgIAoKAIGAZAWF0lnGRu4KAICAICALVBAFhdNWkI6UZgoAgIAgIApYREEZnGRe5KwgIAoKAIFBNEBBGV006UpohCAgCgoAgYBkBYXSWcZG7goAgIAgIAtUEAWF01aQjpRmCgCAgCAgClhEQRmcZF7krCAgCgoAgUE0QEEZXTTpSmiEICAKCgCBgGYFyMzrsRab3RdN7Ulp+hdwVBAQBQUAQEAT+OATKzeh69B2oAkui6uNNYi79cU2RNwsCgoAgIAgIAjciUC5Gh/hwCE6IWEjYFPQ6bypqTYTZG18vdwQBQUAQEAQEgcpFwOZNnbHzOmLQeXHIDOwqjt27set4Ggf/27z21sXEqlxYpHRBQBAQBASB6oKAzRodmNpWDrqH0A5rl/2mIkdvXLNMmFx1GRHSDkFAEBAEqhkCNjM6xAJrw7HGsrIyVbw2RKFF0MebCx9ZzVCV5ggCgoAgIAhUGQRsZnQIZhdQpw4hCi+CWSKSMO4hGKiQICAICAKCgCBQ1RCwmdEhAm8uR1M+cfQgIWJsOkfI1RG9q1rjpD6CgCAgCAgCgoDNjA6Qubl78orLDKrHoefPRp0WFAUBQUAQEAQEgSqLgM2rLqtsS6RigoAgIAgIAoKABQTKpdFZKEduCQKCgCAgCAgCVRIBYXRVslukUoKAICAICAIVhYAwuopCUsoRBAQBQUAQqJIICKOrkt0ilRIEBAFBQBCoKASE0VUUklKOICAICAKCQJVEQBhdlewWqZQgIAgIAoJARSEgjK6ikJRyBAFBQBAQBKokAsLoqmS3SKUEAUFAEBAEKgqBP4TRNehQl1y8nCuqDTdVjqOrAzXqHHxTZVTXh+0dHKhpl/5Uq5Zs2V2V+tiO95cVEgQEAesR+EMY3bg3h9LEt4cba+nKTK9++7rGa33SsFM9quywCEOf60ujXx9EdvZVdzIffP/LVLd5Ow1LpRxDe42g0U+8XazsRmG9aOLzH1LTTv2K3a8OFwENmtGUVz5T/8Y/995t1aSnv99NTm4eVtfZ3smJGof1tDo/Mmpsprz8KX8b1jFWFw9vmvjChza9xzxzYKMWVK95mPltuRYEbgqBP4TRrXh9A618c4Ox4p61PWj8W0PJO8jTeC+kR0Ma+48hlc3naPP/dtHy13+ngvyqG38huEV7cvfyM2JTGSc+QQ2pQZuuxYo+d3QXLf73U3TmyI5i96vDReqVONq96Cvav3IOt7vbbdOkLmNmsfBXi3Iy0qyqc4eh0+iJr7bS5Jc+tSq/zgRsDq2Zzwyyl9UavYOjEzVqZxtD1e+zd3SksU//i+7+58808om39G05CgIVgkC5GZ2TqyM17hpM7n6uxorY2dWigCa++A6pbqtA8qlXxLiQyb+hDwWG+FF6YgZlpeYYn7scdZUyrmVRoy5FJsRO09rSuf0X6Xoh/0GZ9cOCVPnGB/nEs467KjMgxFfdbjkwhNqOamGahYLb1aHm/ZqQs4eT8b69g516zs3XldKvZBrvm56gbSE9G5Id59WEeqCNoKCWAWRJ63TmKOx3zLiH7O2sk4SNZdvbUfPug6lJ+176VrGjp19tlW5v71DsPqSBOk1CqR4zxFp2RXV1cfei2o1D1T880LzLQOo0cgY5uRj6DCbJxmE9yCvgRm0az/kFh1AKM4R8DrJrSpC67fg9eB+eNyf/+iFUv2VHpY2jHGtNn9wMnii7U0D9psWKxPtQjm9QA3J2c6ewwZOoRfchxfLUadKKIBBYIqS16j2S3Dx9jMnZmel0/vg+unDigPGe+Ykr52/ZYyhhEraFvAKCqG3/capPzJ+zd3CkZl0GkIdvYLGk2o1bknftYAriusJkjPc6u7oXy4OLLqPvplX/e8V4P6BBU3LzNoxH3HT19OZ+a6LS+8/4E8EaYJrf+GDhiV/dxtSgdRd+Z/E2KmxOHjTPrq4N/W9P9Vt1Jr96jS3mwdhAueZkx99Ekw69VV+aps1iBlcvtCOFb1lmelvOBYEKQcBsxrSuzH6Pdmdm0lIxNDwRviqSNrFm5OLtQnd8NJaZWDa5eBp8cHHhl+i3v6xRBY94ZQCBsTi5OdLObw/QgYXH1H0ws1Obz1Czvo3pyPKT6p5PsBctfG6lOgeDmj1nmjq348k55VIazX1kMV0vuE5dp3egpr0akpO7I0u5uars/LwCOrYyUpkjZ341iTz83Sg7PYec3Z1o8Utr6GJ4AgUww4UJFY24XlBAX90xX5Wv/4zntPrsS8Q7kGfDB9vp5PoocnB2UG1MvZxOngE8EfHsfOVMEv38ZNEH+uCTz1DDRiHk7edHX3z0X11kqUdnNkU9/tVmxVQcHJ0pM+0affrwIGb0Bk4/+P5XyIMZXS3+Lz8/j/47o7MqD5PxQx+vJkdnA/PKzkyjL58YQVnpqWqy7DH5YfL0q0PJly+SdyCbgpnOhe+mXJ7oZ7+3hCCF4x35ebmUlZas0vHnjte+VkzTycWN3pvRiTXefJWGCfGedxYQ3oN3YuLKTk+hj+7vq0xc9/5nEfnVbUQFBflcZg45OrnSJw8PpIzkRGPZlk7qNmtL01//Tk241zm6YQ6X/+lDgygvN4cmsTkM7QRzgnnM3t6R23OBInev5zq40COfbTAyhdzsTPrgHgPzBYO9//1l5FOnAdcnj/vKjlZ8+CJF7DSMR0v10PdGPvoGte4/lvKyMsiBMVj+3+cpgt9XFo149B/Uhplcfm42Y+tCcaeP0Ny/shbG1KbfWEJ6La4HKC7qGM17dZYaf3f/8xd1D23P5Xc6ubhTQsxJ+uHFO9R9/KnDzN6dGeTpfRuN9wbO+jPZOznT/Ndnq3uD7n2RnJhBLvrXUxQbcYB2Lf6K+yfVmF+fgJk+9L+15O7tr26hr756egylXr2ks1g8woyJ/s9T7TN846mJCfT5Y/wtMUEoeOTTdYWMvBZdPHVEtRFpYYMm0dAHX+P28zfH1+fD99AvbzyIJNo67306c2g7dZ9wPwUzwxMSBCoSgXIxOmhf8x9fQonnkqnjpDbU677OitHpiu38dj8dX3ua/Bp4052fjlfHxPPJNPfhxSrLI7/N0FmNx+gdZ6n9+FaKQXqzJgimBGYCGv5Cf0qIvEK/vbCa5yqevOZOo+bMFCOZOYIBHV8dSZPfHUmHl56kvXMPqo8Iz7n5uJJnoDvNf2IpXY25xlpdY9KJl7i8L6f9RI4uDnTP91OQ3UhBoYGKyX03awGlJ2VSywEhNOT5PorR6UwHFhxjZhpBgU39aNoHYxTTS71iqO+in+fRY8+8QAvn/qCzl3ls3m0wM4Y8NUmDmXQbP1tN6pmp19SzmPQ+f2yYOn/qu50U0rEPRR/cxpOaB+1d/j3tWPCp0gSe+m6XkrRP79tEh39fqP4999NBysvJpHfv7GBknL2mPEzX4s/Rdy9w23nWmfHmHPL0r2Os50f39eb3eymzl/GmycnqT16lU3s3MON3pqe/36NSoJHg34ezezGjSmft8S4adM9fTJ4q+bTX1Mfo2KZFtO6rt5Tw8Mgn6wh+w2Obl9Lnj4+g9kOm0NAHXqXF7/6JovYVmb0DG7agoxsW0uY58LNdp+d+OkwNWNM4f2I/+zXDyCuwLn14b0/KYeYx5L6XaPDsv5TJ6Dx8AhSz+ubZ8ZR4MYZa9hxGY//0LkVMt6wxmraqZY9hNO+vM5nBHSNXLx96lJkwiOd2GvbQa7Thu3/SwTU/K4bw5DfblVBw9cIZlec/XP4jn62jc8f2cJ75NOkvH6n7+s+g2QYmnZeTrW/Rxh/+TXdx34GgzTfvNoSW/fdZdR21b7M6WvoDhnly+yraPPc9JcQ88MEy9sX2p0PrDAzX0jOm96AlRuxap9753LyD5ODkopIhiKHME9tW8TjsRNP/9i25sdk9IyWRBbU6tPg/T1PU/s3kz1o7xpymqP1b9KkcBYEKR6BcjO7kulPU77HubJ6sbdTcTGt2gjUfEJhb+pUMcmMTIM5LI2hZ2awJ1m1dm1qw+TH2cDzlZRu0iAad6iof2t3fTFZFOLO2CFMlGJ0pHfjliNHUifswkabEp9L0j8cpLXDndwco7uRl00csnsM0mXj2mmJyyBCxKZoGP9tbTVb6gWOroHnWouQ4g7Ts4FJkprxw/jy98tyTOqtVxxM86Qx98FV6bv4hOntkF238/h3STA4FhG9dbiwH0re7b211ncKazaXo4/TAB8sVowKTNDdDIeO3z00yPo+T2o1b0dlju42MH1pCx+HTi+Up7eLSmRMqOS87m1EwkE+dhpScEKuYHO5E84RmLaMLCmldNMky470UfYJaFjK6wuIpKf4snWbmakrxrBUFh3ZizW0pt7+uSoIWCvJgjK7GRismh+v13/yf+ofz0iigYXOVPJkXYthCeC+03KT48+qxzJRr9N5dndS5GzNPewcnOrXHUH+YgxMvniWYATWjQ8aki+fockxkoQ9OI2vQlIJY613xzEuqPP0n6dI5FjZcWHsfxu00CFpnDpftU029Eq+0rVn/N5/gn3VkRqVN2rrs0o7AHQRrCKhRWHe6FHWcv78CwlgGXT53Sh0deDEMaO+yb6nnlEdp+EOvK3NrrgnDVhnkjyBQSQjYzOhgdZnxxUSK3n5OmRbBdKa8O6pY9ewd7ZlJsamIyc7Rjj+GYsklXpzZHUstBjRRvq+1/yqS8GA+PLToOB1fE2l8NiulSKrVNwvYZGlKsPr9+MAi8q3vTZ2mtqUhzKzAnLd+YdBATPOansP0ae9UxLiUpQkiuSldN7s2SYNpxtvHh5KTkrQCaZJq+TSfTXTvz+xCTTsPoB6THqLZ7y6mn/52D12IOGR4oHBCMX+63cCJ1G/ms7Tms79RLGsxd73xo3kWi9cwLcJEqsmRTWW2EYNrRjB/2rMpVJOW8vW1PkJzzExJUmZJfQ/PwoyqyZH9iFkZKfpSHXMyDBO56c2hD/yVWvUZTcs/epH9bQeV+VenF+Tnsjm1aIijbmhzdoZBONH5zI8FbBoG/frWI2riNk/HNXyU7sy8oKlAEwcBU5ge4avWBK04Ky3FyBAc2MyoyZ7NgHlm/k+dZn7sxQwC78IiGlMCwzyw4kdqx2bBjGtX2Me11GhmNs1nfh7acziNfPxNpUFDIJlg42rJWmb+54JcAwZKcjIODeOJev0DH6xgIeAc/fzG/cpUfs+/fjWvllwLApWCALMt28jJlScLZgKRrOVkMrPpMfNGe3qPuzvyogFHatG/Cbmy3y41IU29xMHZniVeZiA8EdgzA8S56bJ+7afzYHMjzKKaYvbGUvP+jSk7LZt9S7k06Jle1LhHA5UMUybKAuGIRSaaYDqd8dkEdbnls90Uf+Iyedc1LJAB38L74XMDY1LnhcwNZk3kw+/98Du7vg9244mKp7Di361+zQ3HO+++j17+xz9pwtQ7b0gr6cZgNkvd+cYctUBi2ft/Vtm8/INKym68j1VxqVfj+bm9amGAL0vnRuI2au3OXNMDU4SZy7t2Pfbh1WYz4XDjYziB7wtSvuHcVV2ri1L+XGPtwjugHi+2GMi+Hz/qNuG+G3I35AUKD7NvCL48U4rlRSHth0wjV/bBYXEMFpAc/f03lQV+IdUO7icc4RfUBBNc0qXzFHt8Py+MCtC31THlcpxamFGffT7w8Y1/7r8sCPyg0gx97qK0IbAltFczocSLZ5RPD3VIT7pMgazhTXrh42Jld+ZFPQ+zeXXIfUULQ2BShJ+zNfvi4CcDDo9+9rt6Dj7K9OQr1GXM3Zzmpn4ugkUjV84VCW/FXmBygbq26j2Kfv/qbYtj8OimxcqvBQ04nE29mtAmNzaf4h/Ubn0ODN18A7g+iWxG3ESOvMDHfFGJwoOfBzmwloprUwJjxWIZ/bOXmKM7TZMtnkN4ObT2Z0pjP2Aom4NNycXdU9XPmRdQoR90XU3zyLkgUF4EisRdK0vAoo7oHedozN8Hq8k/euf5G570qe9F9/98JxXk5dP+X44psyEyzeKFIViMAuo2s4P6t2/+Edo9x6C1nDt0kZlZjvKn4T2a1r6zhe74cCzd/5PBtJZw+iqd2XVOJfe+v4vy7eHioYUzVJ0+GWfQapLZbJmelEF3fTZe5c1MzqLlrxkmHvxuTy1GUSmGZ5H+zYxflNly/89HaNSrAxUjhE/yl6eXF+ZkmdWU4RVemN5LSkxUEnxS0lXjM2Wd7Fr0JcGMBL8NtIKLpw4bFz/oBSm6DFxrk9GOhZ/y5D1H+dJSE+N58rrK9TNUsCEvm5/21y/VY3+as0+Z8OCvAh3buFitDHzgg5UsXWfzhHtaaSgqkf/gt1qaUCcQfIQZKVw+/jNtcGFGMJb9q+bS6Cf/T2lSFyIOFqYUHeC7w8KQlCsXi27y2Sb2NU177St67MvNSjOKZcZ99ohh8pzNTNGXF7iA0I5jPLGvZg0WtGfptzTpxU/oia+3UjprPIa6GTT7hLMRqp3TeGENmCM0ooVvP6qea9i2O0195XN1jj9oL9I/eWggpSVdoe0//08tHIEGmJeTRVvnF/eXZfICHLQjnfEwJfgKsSBkwMznGaMC2r34a2Pyon89SRP//CF1GHoHYdHMvmXf07VLscZ0nOAZw78ijJuwP9bdx5/OHbdsiUhkH18W6sNa8cXIw8by+t75NHUacZfx+rEvNqvzNV+8zn7OTdRt3H302BeblOacy21UC68Kcxfr/6+3qbtYcILxBWrSvjc/P1uNw+NsVtfjsdiwKPxO9FiJ2LmWRj/1T/X85TMw/RfRzLfn8aKhIiFN1/XdO9szHkX55EwQKA8CtUJahpVrGLl4OqlVjvj9GbQjDEYwsdk/TqVPxv7AmpAj5edg5Z1h0ilP5cyfwepLfIxYXWkLQSvDSs+MxEzbPhpulyubZqG52kowXxVwXW0lTGjQDLKt/J0UyocZzcnN07BqkuvMs73VBL8MVjbqVZVWP2ghI37O0GHYHSy1z2emmknNuw6kUU/8Hy9O6VnsJwrQUPTkZ14MtB2YcbU50Dzd0jXKw7szWZuyVDZWGGJBRFpSgk39j7KwgCIt8ZLF+lp6l64fVrimsKatGYC+jyPMmehfS2mm+fT5oHv+zG1LpZ0LP9O3KuSocGMNGr5ga4cNtOtn5x6gL58cqZ6DEFBQglndUiWh1YFyeXyUhp+lZ+WeIFBeBGzW6PSLTH8HZ0nispUZ6XJLO0LbKw/lZuaxyVP7EGwogRlGeZgc3lAeJofn0q8V1xBwryzCRGP8aYANTA7lgiFVFMHP1m7gBDbPzVKLQLDqEatBzX+HVxKTU/XJzLC5OigPTA5kqWwwTSyBt5VQFszCJZGld+m8+DlHSQSfnS204ft/25Ld6rwKt8JVvTYOG/UOrGS1lcDgNJWGn84jR0GgIhAot0Zn6eVYtOHh7278WYClPHKveiMA7aleiw5qUco1Xn14jf1nQtULAfwgHoKDtRpp9Wq9tOZ2RKBCGd3tCIDUWRAQBAQBQaB6I8A6mJAgIAgIAoKAIFB9ERBGV337VlomCAgCgoAgwAgIo5NhIAgIAoKAIFCtERBGV627VxonCAgCgoAgIIxOxoAgIAgIAoJAtUagUhgdfkDu5uNSbM+/oqlDkwAAQABJREFUao2iNE4QEAQEAUGgyiJQLkbXqDMHiGwZWGKjajcPUPHj2o5uWWKeshKwTyb2qrwZwp5+2EAY/zx4bz/sIHIryJ3fhUCopmFvwPwbcgRv7IFYmYQ9C/0LA29W5nukbEFAEBAEbhcEyrUzChgYwtPER1y22E6knd4SQxePXrKYbs3NLrzHXTjHeysrvE9pZQW37EDTXv1K7ZRuxz9kzs3OokX/fFzFKivtuZtJ63PHE9Rj4oO892Ayb0vlTUc2/kZrP/87b3dkr+oy5693Ufzp8Jt5RanPdh49izc+dqDVn/6t1HySKAgIAoJATUGgQlQcd443pyMI6PNtX+1lJnWtGI4wZ0KzcfV2Jr+Ghh3VTTMg8gC0ODuTCAQ6Hc+1CG1FtevU0besOibz5sH/5fA3H3LU6chda3jj4K9VOBjsxg4tD6FWQAEcCLIeb1llbxLWBfHF/INDVHBJ/TLsz4f9KE3JjXfqR4gZRFfuOvZeWvjPx+jj+/vRnJen85ZYE3mfRV/T7OTGO+lD87KkYWLnftTLlLDzPu458w7v2GuwbtM2and/nQcBN1GejjKu78tREBAEBAFBgCNw3CwIPe/tRJ0mt6Uf7ltIWRw4ddbXk1WRYHyLX15LF44U7RV41+cTlKbXZmQLlefyqav0y59WqPO6rQJp7JtDVQig/NwC3h8xv1jVfH396YHHn6GUa0n05qsvFkuz5gLa3KYf3+Ud+ydw0Ec/atNvnAqZ4sjMLGLXWmrVa6Qq5utnx3Hwy7PU765nmGndw/dq8abH2bTgzYfUzvBgNgjP8r8H+qmNebFB7yOfrqdf336EIwCcUmFkEGsNFM/BQ3988Q7K5h37NfW94ynCzvlgmPEcMPWn12apDYyxS/597y8hr8LgoZF71tPS955Tj03kWGF1QtpwYMtw8uKwOh4+BrMxIlJ7cJiae/69UG0UjDhq2HYr7vQR/To5CgKCgCBQ4xG4KY2ux6yO1JGZ3NyHFqn9LXOz8uiziXPUv4J8y1ELvOt50acTfqT5TyylwOb+KigqeqHPQ93o/P6L9MXkeSqgK2LemVIWbwabnZVFcRdjTW/bdN6Sg02CstJ5J/jfvqCP7uvDWpW90o6+fW4ifcZhSJI5bArijyEEyYI3HqR37+qgYmjd+Y/v1bPZ/Cx2bIfmBkK4kmwOkYJ4ahnM4OKiw2nGW/NUCJjOo2aozY2xG78mRAf/8N4e9P1fpnKU75bkHRisklpyfK7LZyPpA9Y8578+m1ogVhzvgA+a9+rdtI/D0dRr0V6FqEG4lG+eNYQeGjz7JRVe5uP7etPXT48lVzPtURUgfwQBQUAQqMEIlFuja9q7Ebn7u3F8t3V0jX1y1tK6/2zhuFnXKSnWsNu8R4CbOg9s6ke7fzjITCSfrpxJ4mCtRVoQys7IyKBX//y0ta8x5vPwrU33/GsBa4ou5BPUgDb++B9CTDRNiF8GxoLAmJqCWHtKij/L8b/2qVtb5v6XurDvS4cV2czXnUfOpG0/f0xt+o+j8K0rOMyNITrCvL/OpEbtelDbAeNp4N0vcLTwh+mLx4cZd/A/uOZn5SsEU0P8M3snJ/WO8C3LeOf9Aho46zk27fqpewhCaroLPhgsogGYhtQJ6dyPtv70IWuX6eofokWrmCu6MXIUBAQBQaCGI1Bujc7d35UQiXv4ywNsghBanyKzuCCIFF4srpVZuk0vMcmclXaN1n75D1rx0YvMcIbT/hWGoKw6C3ZgN2VyuF+L/WD5+UWmU4QTMQ0pcmrP7xwItKFa3QimFr55iaE49iPy/xRzeAct/+AvrDH2VhGzO3KMNk1gVppMd3+f+MIHNOKRf9C1hFg6wYzTEl1m06gpk0Mee3tHFXBT5y8oKKq3vidHQUAQEARqMgLlZnRHlkXQohdWqd/KjXlt0E1jmHjuGjXpbogwbOfAAS8D3YqV6enlRW/8+wN64tm/FLtf1gWCisadOkrx7N9KvWrdKlBoW/68uAMLQ0DtB09RJk7N7MAYwXTGPfseXb0Yo0yOyNc4rCc9O++g8pfhOifLoDkmWRGqpnFYL4rc+ztHzP6OrsRG4fEbCGZPczp7bBeF9jb4F7G4pUnHvuZZ5FoQEAQEgRqNQLlNl6zisHZxnX5+cjnN+GIC+TfyUebGe76fogC1s7ejMX8bpPIs/es6pf2VhvSeuYdpxEv9qdXwZrygg/mvmUbnwL+Jc3ZxIW/f4isYSyuztLTGHXrT2Kf+pRjYk99sp4zUROXjwjPxUcfozKFtdP8Hy1S0ayxYWfTvp4oVt2Xe+zTlpU9p+4L/Ge+fPbKLTZ7n6LEvNinzpAOvwsxMTaLTezey2bN0mWL/yrnUddy9FPJdH17lWdw/Oe7Zd6lpp/5K00RdT+5YReu+elO9F8cH3l9OT/+wW70D0cmFBAFBQBAQBIoQqHLx6DzYJJp2NbOohiZn+IkB89dbRvDJefGCkOSECza909XTlxq07kxRB7dQfs6NWlhJheEH7vgpQVrSZcW04LOzlrD6Mv3alWImVmuflXyCgCAgCFRnBKoco6vOYEvbBAFBQBAQBG49AqXb0259feSNgoAgIAgIAoJAhSIgjK5C4ZTCBAFBQBAQBKoaAsLoqlqPSH0EAUFAEBAEKhQBYXQVCqcUJggIAoKAIFDVEBBGV9V6ROojCAgCgoAgUKEICKOrUDilMEFAEBAEBIGqhoAwuqrWI1IfQUAQEAQEgQpFQBhdhcIphQkCgoAgIAhUNQSE0VW1HpH6CAKCgCAgCFQoArec0dXvUJd639f5phpxx4djqf341laXMeDxHuRZ293q/JJREBAEBAFBoPogYDOjw36T+GfHYXVApuemsNjZI6PpHUPeoNDahAjjupziOTgPl4s0S6TfaSlNlWfeGlSBy8P7PALcLb7T8JzlF2KvSweH4hssW3q33BMEBAFBQBCougjYvNdl3we7Ur2wIApo4ksJHI/Ot6EPObo40Pwnl9FVDpjqVceD7vhoLDm6cpy03Hz67YXVlHD6qkLg0aWzjAxSQ/LtzF8o41oW2Tva0di/D6FgLhu0i4Ow7v/lqDp38XKme76bwsFT7SnlEkf4zi6g42tO0eElxxXzGvJcH2oxIETlPb01hta8s0Wd93mgK7Wf0Eqd6z+xR+Jpyctr1SWio/ea3Umdx0dc5rBDq1W0BZ33wcefpuahrenzD9+lqFOR+rYcBQFBQBAQBG4jBMx1IKuq7uLpTL89v4pqtwig39/bxuF50qj7jA5Ke7rrswl0Ztc5+mTsD8yITtDkd0eS0u645M8mzCGE40EU8U/H/aj+gcmBWg9rzjHo3Om7uxfQ+v9upx53dyRnD0P07dk/TKU0jjj+2aS5tP/nY+TX0Fs9gz8NOwdT/Q716KfHltJCrlOzvhxHrtBMue3rvfTpeEOg1cUvrVHvW/KKgcnZO9lRh4mt6dfnVtK8R5dQnRaBFDa2OFPMyc6WaABGpOVEEBAEBIHbE4FyxaM7s+s8xZ28TIgWfv7gRYrYcIaCWgUQGCA0s1NbYii4XRBdYO2p09S27B/zoOS4VLpewJG6+R+ooPCoYTu6IoKid54jn/relJWcxVpbniEuHWew4/h0y//+O4e8yafja09R52nt9GN0dt8F+vXZFczcPMje2WBm9G/kSynMGBHTDjHzQHif6Tvzcwpozv0LKbBZAHkGOtG188nkFeRpLBcn33/1GWuMtYTZFUNFLgQBQUAQuL0QKBeju15QFCfNwEYMf7Xm1mZECyMKYIoFeUX5jQlmJ9Do+j3aneKOJ1AmMzoEbjWl9MQM42V2WlFw0ZCeDWnkywMo7sRlSr9qiOhtzFjKCbTF+3+6g65EJVJKfBo5s3nUEumo4pbS5J4gIAgIAoJA1UegXIyupGZBCwMd/C1cMSz47kJ6NaQsE8aUz347aEnm1HZ0Szq2MoK2fblXaYZNezcqlqX10OZ0ZPlJcnJzJN8GRabL1sOb06VTV9gXuEotfoHp0pygybl5uxS73XV6e1WPX55ZofyGs+dOK5aOi34Dh1C3nr3pm88/psSrBj/jDZnkhiAgCAgCgkCVRqBCGV12ei5FboymMX8brMyQdVoGsCnTnk6zKVNT5KZo6sU/L5j875FKk9r48Q42U+ZTQsQVajW0Gbn7u1Fw2zrK36efObgonHo/1JWC2wexf86nWNolNqF2m9mBRrw0QC2Q0c+YHmMPxdGAJ3tS8/4hFM/5D3F50TvOqoUqo18dRFjsgsUz5hTWsTPVrluPGjYOEUZnDo5cCwKCgCBwmyBg86rL2s39VdMSTl1VKx1Pbz2jNCw3H1c6zwwF5svG3RqQfyMfXiGZRmd2n6ecjNxicIAB+jf2VfciNkRRfm6BWlEJbczZ04nijiWQT7CXYpZYuAIFEItO/Nh/lxCdqJgnFsAksV8NadD+4Ae8GpNE7n5udO7ABUpPzDS+09HFnuq3r0fuvq6UHJ+q6onExl3rkx/XM/HcNcrNzFV+wUuRRZpbYO06zOSa0JGD+yk3t3gbjIXLiSAgCAgCgkCVRsBmRlelWyOVEwQEAUFAEBAEzBAovuLDLFEuBQFBQBAQBASB2x0BYXS3ew9K/QUBQUAQEARKRUAYXanwSKIgIAgIAoLA7Y6AMLrbvQel/oKAICAICAKlIiCMrlR4JFEQEAQEAUHgdkdAGN3t3oNSf0FAEBAEBIFSERBGVyo8kigICAKCgCBwuyMgjO5270GpvyAgCAgCgkCpCAijKxUeSRQEBAFBQBC43REQRncb9ODd7/xMzTr3r9Sa9pj0ED3y6bpKfUd5C5/++rf0zI976fn5h2n8c++Vtxh5ThAQBGooAhW6qXMNxVCaXckIzH99tnrDsIdeI1dPn0p+mxQvCAgC1Q2BW8roRr4ygPbOO8zRC7ooHC8cjqP9vx4zYtpjVkcVtRw3jiw7QTF7YlXamNcHq/h02HgZG0cjBt3pbTF0fM0pld6aox4069eYz2vRlegk2vHtPnVf/7nnwUfV5syfffAuXU64pG+XeKzTpBUNuvcvFHtiPzXp2Jey01Noybt/oqz0VHJ0cqZpf/tGPXt0w28U2msEedcOpsPrF9CeJd+Sq4c3jX7y/8grsB6lXI6jxe8+wxHVs8nDN5DGP/8+Lf/gBUpOuKCeH/vMv+n03t/pxPbV6nrog69ScGhHup6fz+X9SofW/myso7tfbZr22pccbsifYsP30fpv3jamhQ2eTGGDJnFUBzs6tnkJHVw9X6W16TeWOgyfrs7Xf/0WjXzsTXJ0dqFf33qYkuLPU6/JD1Hz7kMpOzONrsZGG8sr68TN24/GPPVP8vALouyMVFr0zpOUkZKoHgMjGv3kP8ndx59Sr16i1Z+9ShnJSdSkQ29qx/X0DqjLYZtSKC0pgYKataXNc96j6ANbacj9r1BS3Flq3nUQh2LyoHNHd9OmOe+WVRWV3m7gRGo/ZAoH6HWgmCM7acvc9616TjIJAoJAzUDglpoug8OCaOp/R9OeeYfowtF46n53R3ItDHjadlQL6jilDR1eclxFExj9GiY8Q+gcRC5AeB/EtkPcuuS4FOo0ua3qofocugcheMJXRtLuOQep4+TW1HJASLHea8Rhdjy9vMnbxzptABNtcMuOVLdZO1r/1Rs8odemBz9eo8rMy82h1Z++Sm5evjTwnhc46oIz7fz1M7oUdVyl3/2vX5nh2NPyD/9Czh6e9OBHK9X99GtX1OQP5gNycfdkJjOE4qPC1XXDtt0IE/bqT16l3Uu/ocGzXyRvZpaaBs9+iQ6v/YX2Lf2e2g+bRl4BdVRSQP0QGvrAX2n/ih/p5I7VzKBfpKCmbVRa9IEtqq5BIa1pxptzKHr/Ztr125eUyYymBTO4XlMfo4Nr59OBlXOpbf/x+lVlHsc89Q4zfFdaysw/JzOdHvqfgVEjkgTMrI4urrTxu3eUADDikTdUea5eftSi62DawVg1ateDGXYApV65RN3H36/S/bkdA2Y9R0c3LqZDa+ZTp9EzuY5DyqwLcIOAsGvxV7Tuyzeo29jZ1KrPqDKfkwyCgCBQcxC4pRodYP3tL6vpEseeu3z6KvVgRuffxI9iWbM7se40RWyIptysPDq7/wK1HtZMhe5BiJ/8nDw6+XsUhY0JpZMc7w7PQ6sDNe/fhMPyXKSonefUNbS8sAmtKIIZo6Z/vfEqOTk7U2pKsr5l1XHp+88r7eO75yfT0z/uUYFaEXEc2k8+M7wr50/TT6/dQzoKuVdAEHkyU/zu+Qms6aSrtD/N3a+YIbS6vUu/o7AhU9Vk32HoHVx2Ml27ZNBaXdwNwWRdPL3p5LZViinlZhWFGtoy732K2GXwoQ24+3lq2KaH0t4SL8bQR/f1ZobDEdiZ0bQfykwwsK5ioJlcPv6BwJyPb11hbHeTjr0VYzyyfqG616T9MtZe+6jzWf+cz5qfqzGvPtn12xeqDAcnF3J0c6f05Cv069uPKC0ReRgabvtkys3OooL8PNq7/HvqM+1x/TilJl2mKGa2oHVf/p08/YOUsKAz7F81h8K3LFWXLXoOo46sjUbuXq+TLR5b9R5FMYd3sGa8UaUf2bCQOo+YQSe2GQQMiw/JTUFAEKhRCNxyRofYb6DrHPUbBC0AFNwuiGCirGVXeMNwW/3FBAoqKChgppePhw03+K8rRw5v1CWYHl9+t/Fe5rUs4zlOsrKy1L9iN8u4KCjIV0wO2fLzctXEbf7IuaO7jEwOaV5slgPlZmer43Wuby3+DxM6zHJR+zexpvYS+dZtSM26DaJtP39kfD5y9zqKPjiGprz4KV3n/xIvnqFvn52oysGflCsXjefXuf217O3VNUyZD/1vjTJb4l0gfVQXhX9MmRxuuXr4sPnSIBzgGgxTMzqYYR0cnXG7GCWcjVDXi955nO59dxE9/uUWKuC67Fv2HW2Z94FKG/X4WxTSqR/3q8FYABOlpvxcAy64BjPMZ2ZoSjD1arp6PkqVo69LOsKMGsLm5efmH1JZ0Pa0a5dLyi73BQFBoAYicMsZXUkY97inEx1dEUFbP2fNiZndwwvvKilrsfuZydl04cglWvzyGnXfwdleaV6mmdp36kLtwjrQTz9+y5MrM0oryI7NjzBPZqQkcaBXJ7K3vxGqzFQD09bFJcUZGIcTm+7gz4MJE0xLa20pV+Ip9uR+gjYXFNJGmf70s46sJa386CXKycogTzZLPvzxWmrTbwxrOMsNWQqZvc6vj/BtJcRE0JyX71TtfuwLg2aj00s6prF25VO7vjE5sElL47nW8ow3zE7y8/Lo88eGMfPPV1rXIDazgtF5+tehpp0H0NfPjFE+wC6jZ1GXMUUCiFkxN1z6BjU03qsd0qoYIzYmmJ2gf86F76Ff3nhQpcAHqVRbs3xyKQgIAjUXAYPYXQXan5aQTk17NaLQwc3orv+NU1HEralW+KoIqteuNnXnhSzwzT28cAZ1vbN9sUenzbibwjp3pRahrYvdL+ti2qtfUsuew+mRT9aqRRcwUdZiFbRBaGf2twVSQMPm6tzZzVMVlZ58la4lnKeZb/+ktIyHP1nDCzLiWQEtYq5gIp1HzaQLpw5TCi/W0NRt3L30xDfbqFXvkdSm7zjW9AqsmuhhPvWr14hNopNp4gsfkYvJqkQnVzdVP660Oga36KBfx9rjFqVVDr3/Zeo7/UkK7TnCmFbWyV1v/si+uF+oQesuvBhnJJtxDdHX83KyVL373vUMdWA/Yt+7ni6rqGLpMLv2mvKoqg8w3r/yR5Ver3mYwtOnTgPGPUCdw6cHOrzOUI9e0x6j1n1G09Pf76YevMhGSBAQBAQBjYC9b0Cd1/VFZR9hnjy15QxrAqyesJWtfvu6FL39HGUkZarVlEGtAgkLVo7xwhKkR20/q0yVuAf/XUCIn/LtpSdmkm99bzq9NYZwHnc8gVoPbU5129RmX18U7fr+QLGmZKSlsdkznzZvXMfvLjJ7FstkcoFVlG37j6NtCz6hTuwnuhR9gub//T6lwdixZjfqibfUKkOssGzYrjtdijlBaYkGE93hdQsUA2zVewSdP3GAFhRqGrr4a5fOM4PoTDvZ33WNVz5qOn98H5sLnag1L1aBZrPpx/+w72mnSsbikouRzBivGEx79UM70VleXQhN8ULEQQpo0Fwt8Ig9uY9NpOcoLvKIyouFKv15gQeYLepZL7QD+9gMGiLy4f0h/Ps8+OP2rfiB7B0cKbLQD6jrZekYuXOtYnIQAvLYBDnvr3eplaXwQ8afPkrNeOUkMNy96Eu1aCVi11r1swCsyDy1Z4Oqa/jmpUpTxoKbKF4003bAeFW3gIbNqE7jUNq56AuK4PeAek19VK3GhJbNnJTQfggCwASa6cXIQ2ohD1asHt24iLbN/8hSteWeICAI1FAEaoW0DCvBKFZDEeFmN2jTle549Sv6DzRDQeeWDIQ7/va1Wqiyb/kPt+R98hJBQBCoOQhUGdNlVYI8MzVJmfaEyd26XoF2lly4AvXWvVXeJAgIAjUBAdHoakIvSxsFAUFAEKjBCIhGV4M7X5ouCAgCgkBNQEAYXU3oZWmjICAICAI1GAFhdDW486XpgoAgIAjUBASE0dWEXpY2CgKCgCBQgxEQRleDO1+aLggIAoJATUBAGF1N6GVpoyAgCAgCNRgBYXQ1uPOl6YKAICAI1AQEhNHVhF6WNgoCgoAgUIMREEZXgztfmi4ICAKCQE1A4MbYM1a02pFD4SDqdy17A588uzdWBUx1cLKnxt3qU9L5ZPJt6KP2iYw7fkltvKyLbdy1Pjm48Gt5c15sxoxNmTXVbV2b3P3d1GVaQhrFc4BVTU5OTnT/Y09RTHQUrVq6SN+WoyAgCAgCgoAgUCoC5dLoBj/Xl/o81I38G/moKOEzv5ykXuLk7kTDX+xP494aRg061OXQOR1oynujyRGMjanL9DAa+coAqtMigFoPb07TPhiLCDKKmvRoQBPfGUFNmFG24Kjhk98dRZ613Q2J/NfTy4uaNG1OXXv0Mt6TE0FAEBAEBAFBoCwEyqXRebDWdfn0VTrw6zH1L7Cpf7H3rPm/zXQx/BK5ejnTPT9MJZ/6Xpw/kdqNCaVVb22kmL0XOESLHT2yaCbVbh5AlyKvUMtBTSlyYzStf2+bKqv3/V3Ip54XpXKcOlBSYiKtWPQrJVyKV9fyRxAQBAQBQUAQsAaBcjG6PXMPKc3twQV30pWoRNr/yzHju9giySZJQ0DRzJRsyuRYc86s6YFg2hz6Qr9ioW8CmvopRufu56riy+mCtn+9T5+qY0FBAW3esK7YPbkQBAQBQUAQEATKQqBcjO7cgYv09Z3zVfDTDhPb0IiX+9P/xvyg3gVTpKuPqwqmiuCpTh5OKngqEhH0dOkr6yg5PtVYr7zsPHWek55LbvycJgRbTeF8WqNDZO9efQdQ3MVYij59SmeToyAgCAgCgoAgUCoC5fLR3fnJOBr2536UmZxF+bn5N7xg9KsDKaCxLw35Ux9ycnWk5DgDY7vGi1TG/GMIuXq7qMUs934/lbzqeqrnzx+Oo3bjQtVillZDm9G4N4aQm28R4/Pz96fxU6fTzPseuuF9ckMQEAQEAUFAECgJgXJpdOv+s43GvzmUZs+ZprS0X59dWaz8CPa1Tf1gDOWk59DSv66jjGtZKn0Jn49lRjfzy4l0Pf86bfpkF12LTVFpR5YcJ89Adxr96iCCJrj3pyOUwL47TWmpqZSelkanTp7Qt+QoCAgCgoAgIAiUicBNBV61s6/FjI6dcoUEDWz2j1Ppk7EGMyb8dZaoll0t/nUBJ1pI16swS3rWUnlyTxAQBAQBQUAQKAmBcml0ujBTJqfvaQalj/q+6fF6gQUOV5ihtOdMy5BzQUAQEAQEAUHAGgRuSqOz5gWSRxAQBAQBQUAQ+CMRKNdilD+ywvJuQUAQEAQEAUHAFgSE0dmCluQVBAQBQUAQuO0QEEZ323WZVFgQEAQEAUHAFgSE0dmCluQVBAQBQUAQuO0QEEZ323WZVFgQEAQEAUHAFgSE0dmCluQVBAQBQUAQuO0QEEZ323WZVFgQEAQEAUHAFgRuKaMb98ZQFcHAlgramrfnPZ1o4FMSs85W3CS/ICAICALVFYGb2hnFVlDqtPAnbP9VmeRT35sQL09IEBAEBAFBQBAAApWi0fk18KZ2o1tyBAMfiyj7cWRyRBHX+1rqTGCCDTrWo6DQwGJpiEge1DKQ/Bp6kzOH/ek4qQ21GtJUP6aYZygHbnX1MsS9MyYUnoS2bktT7pzJZVYukzV/r1wLAoKAICAI/PEIVLhG12V6O+o2oyOlXU6nvo90o5Pro2nDB9uNLZ319WRycndUTKf/4z3oy2k/qbR6bWrTxHdGUH5egUHr4/0wP58yjwr4eshzfVTIHsSzc/F0VhETEKfuxPooQty6CW8Po4LcAmbbPcnO3o6jHlw1vg8ndz/wCDk4OtLxo4fp+LGjxdLkQhAQBAQBQaB6I1DhjK7dmFZ0dNlJ2vbVXvIN9qLazQOKIXh8TSTt+uEgx6lzoAcX3EXQ1i5xOJ5azKDW/3c7RfweRfaOdvTwwhkqMjli3s19eDG1GdGCBjzRg5a9tp4Q+FVTl+lhFLXjHK1+e5O69eiSmTrJeFy7cim169CZTkdGGO/JiSAgCAgCgkDNQKDCGd2BBUep9/1dqPXwZhS+5hTt//lIMST3/2rQqPJyDAFbXdgUCbp8+qoyWd77w1SONO6itDpzS2PyxdRiTA7PITTQoYXhOFV0Zud58qztoS/VcdP6tYR/QoKAICAICAI1D4EK99EdXnKCvpr+E23/eh817lqfZnw+kZlWEbC1SojQ0//R7tS8XxNa/dYm9XxOZm7RQ4Vnlu5dZ3Oms2eRb86VmaQ5eXh6Ut16wea35VoQEAQEAUGgBiBgwoJuvrUwOd797WRqOzKUIjedUf8c3RzJ3qHs13jV9aSk2GRKTUhjhhfCpk1HY4VQroOTvdLyHJ3ti5V37UIq9by3M3nz8wEhflSvbR3jc/rkqT+/TH966TUKadpc35KjICAICAKCQA1BoEJNl/m8IOTgb+HUa3Zn6jm7E+Vl59O2z/dQXg4vFGGCMmdU6ApPCgqDsB749RgN+3M/atankVpMkpuVZ8w7/eNx5MP+PtBD7Ls7yX6839mfB9r08Q5ejDKcZn45kbLTcuhieALZmf2E4fKleHJ1c6O09FT1jPwRBAQBQUAQqDkIVErgVTv7WuTi5UJZvJBEMzJrILVzqMULUewpNzPPmuzF8mBxS04pz8HfJ9HLi0EmF4KAICAI1AgEKlSj04gV5F+njKRMfWn1sSDvOv+cwHYmhxeUxuSQLkwOKAgJAoKAIFDzECjbeVbzMJEWCwKCgCAgCFQjBITRVaPOlKYIAoKAICAI3IiAMLobMZE7goAgIAgIAtUIAWF01agzpSmCgCAgCAgCNyIgjO5GTOSOICAICAKCQDVCQBhdNepMaYogIAgIAoLAjQgIo7sRE7kjCAgCgoAgUI0QEEZXjTpTmiIICAKCgCBwIwLC6G7EpNre8fALpBY9hlbb9knDBAFBQBCwhIAwOkuoVNN7/vX/n72rgKsi+8JH6ZROUQQVQcXu7u7OXd1yu7v3v11ur7rr6trd3d2FjYkCIl3S4f985zGPB4JiLuI9/Hgz79bc+e68OXPOPXM/X2oz4tUyenbqtBQCCgGFQNEIKEVXNC53lWrCbObNW7XlxaVLDq+NoyszNJiRhXUFcqroU+D41vZOVMHFgyxt7Zi5wZi8A5uSV81GBcrYu3mRg0flAmnaF5fK1cnKzlH7qrYKAYWAQuCRQuC+rHVZWhD0blKR2r3QjMozTZC5jZmsd7nu6610bucl6WL/b7uSe4CL7GNtzjnPL6O0pAzq9VlHIYE1ZYqh6LOx5OTrIBRBfw+ZTRkpWeRVz516fNyBrjPzAiiI9k4/QgeZcFaTx59+jqrVCCDf6n40ffJELfmm2yd+WkFxVy6SS2U/KZccF0nT3x1KqYlx1PPl78i9ai2KCjlNdq6VyMLGTsp8P7QO0xlZ0aiv5pC9WyU+v+uUGBVKsz56TOoZGZvQ2PFLqYKzjovvytmgm/ZBZSoEFAIKgbKIQMlNjof07C0qmNOyD9bTH72n07ntIdRwaKCciTHz2qWzUps8fC79xQrMzNqMAnv568/y9PpztObLLeRczZGmjV0oFEBQiuWYAqjXpx1p77TDNLH/TFrxyUZqMroemVnlk7/u3bmdcnhx6j3bt+rbK8mOrbMH/TKmOf32ZCsqx3QLzfo/I9XmfDKGDiz/l5VdIO1eNJF+f6o1TXxON9fWsOdjUuaXx5tx3WaUnpJEjfLSGvcZSzaOblJ+/MiGZGJuVZJuqDIKAYWAQqBMIVDqLToTUxP6/PtfbgA9LTWNPnnntRvSCyfEhyZS9Pk4SQ4/epUq1nGTfXDlbZu4l9o815SsHS0pV5jKzfTVoy/EUcxFXT1YezlZOVTeKJ8A1jPQjTxqMskr0/+AAsi+oi1dDY6R+kePHKJjQYdumzHh8OqZzMKQIm0cWT+PKvo30PcHO1kZaXR47Ry2JHX8fkjzb96Vzu7fSJnpqfhKwbvXkV+zLrJfuXZTOr17LaUlJ8r37bPGU4ex78m++lAIKAQUAo8KAqVe0WVlZtFHb75yw3jATVcSAWWQJnA1imbiT/uKFWj4hD7scjxORxYep1bPNtGK6bb51Qqm5307svgE77GGYwlaeoriLifIvvZRwu5pxWWba1iJ92HVGUrUpTMFlBzyyrHy1Z2XruR1pqstV05nqGOOsJxBm8hTohBQCCgEHjUEHgrXZUZGBhX+z8zMvKuxqtmtutTf8+8higmJJ9fqTiVqLydbZ01h3i4sKIJiuW6TUXXJws5CX7/f4GH07S8TqEv33vq0kuw07DFSikHB1es6nOIjLheodj33Rq6+4F1rqWqjtvpyfo07UeipA/L90rE9VKNldw6KMZLv7R97R19O7SgEFAIKgUcFgVJv0d39QORbMYYWzcG5R3lOrgY9v2K0WEQZKUUozvyq+m7ksqJb/9026vh6K2oxtqGkXzkRRYkRyfoyllbW4s+0rmCjTyvJTkZKMr0++4hYcumpybR99s9SbcC7f1CVOi1k/405QXRy+3Ja9fsH8n3vksmiFF+fc4S/l+NgmSRa+M3zkrdzwZ9Ut/NQem0Wu1H5Ly78IrtfdUpPCqgPhYBCQCHwCCBQzscvsIjb+SNw5nmnaONiRclRPC8mXkKG4npBd2GxSHAxew9bSoq6xvN3+XNmWnkjdhvmGMylaenFbV+Zvp/2LppEe5dOJmt7F0qKvVpc0SLTTcwtyMjImINR8hWuVtDS1p7n6RIkKlNLU1uFgEJAIfCoIPAIWHQ3H0pRcigi6r6ESi6vfHx4UrGN346SM2wkl5Xj7So51M9KT6Msw4YM9lOT4g2+qV2FgEJAIfBoIfDIW3SlZbidvKrStfhoSr+mi5AsLf1S/VAIKAQUAg87Ao+8RVdaBjAm9Fxp6Yrqh0JAIaAQKFMIPBRRl2UKcXUyCgGFgEJAIfBAEVCK7oHCrQ6mEFAIKAQUAg8aAaXoHjTi6ngKAYWAQkAh8EARUIrugcKtDqYQUAgoBBQCDxoBpegeNOLqeAoBhYBCQCHwQBFQiu6Bwq0OphBQCCgEFAIPGgGl6B404vfpeD0/7UBPzh5yn1q/N826MOVR3nrT96ZB1YpCQCGgECgBAo/8e3Rd321Da77aWgKo/rsilvYWNGJiXzKxMBFKoKTIazTjyUUFaICizsSSidm9G05ZA5RPWVsr5syWi7T+++23BMG7kaeelBbcfSfXnKUtv++Wvvb+vBNNG7OQMlOLW8Plls3fUMC9Tkeq9/j3BdIPTXmdrh7dKGk+7R6jGr1e5ePnUkZSDG39qjflZKYXKK++KAQUAmUbgXt3ZyzFOJlYGAuXXBbfYHOFqoeYdbyckKj6tqhMRqY6wxZ0N7nZ+Ut/ljcqx2SlxnJjNmC7IZC2QnJ5jctyXMbU0pSX4MoicNxBcINHveyMbOa5y28PeWjTmBVSZloWGZsYCc+dYduoBwoirS3U6fhaS4pipvOVn25kZWdMj00ZSA0G1qYDzGqOYxmZlKdDC47RwXlHUbyAaH3VEnGOhmtzoq4R96Ow8vm95zSydbWmwT/3pL+HztGqy9bY1IiyM3PkHMG0gHOBgOQWzOtHFp+knZMPUPU2VajjGy3pzLaLBC5ATVAf/c5Kv5GNwcbGlrKyMik9vWTKyMLRk+IvHKbdv47RmtdvrZwrsZJ7hQ5NeZUiT2yltu+vpBo9XqITi7/Vl1E7CgGFQNlHoEwrOtC5NXu8AdUbUFOIVdMSM2jeS8spNSGd+n3Tldz8nGWExy0aKduwIxG0lNnIIbWYxqfVuCaimKAE5r64nGBJQRE9wS5CKIcTq86QX0dfwo07aMlJ2vH3AfKo5Uq9/9dJlA+UyryXVggNENr0aepFXd9rKzf5CGY8cPC2o0VvrKY4JodFXwd8141c8vp0ZvMF2jB+h6zBCYVzbmeIKBcomEVvr2VLS6dA/TtXFfJY1AfB7PxXVuJQIs4+DjT4l57aV9nGXIinuYwBpP6AWtT08XqynxSZQvNeXMZK60blIwXyPqAYn1k0gi7sukw+zStJ6jHm49v2134hnwVJLZQc5MzWi+TbsjLZ8sLZ4ZJCVLNrdWo+Vkcoe5bz132XbyU6O7vQmx/9j3JycuiD11+UbV61YjeWDp6UGhvGDPH2/PBiQmkJUfqyzjVa0LWr5+nqsc2cZ8rlQsm71XA6ufQHZqzQPZToC6sdhYBCoMwiUKYVnYWduSi5VZ9vpkv7w6j7R+2pShMvOrH2rCgYaJfnlo2iP3pP1w1wnmll52lLbZ5vSht+2EHBWy5Q9/fa0ai/+9PvvaaJFTKh30wmbe1L/l2r0aF5x+gMl9F46pqMrJtnXR2jPl90pl7srpsych6ZsiXW7YN2dHxlMG2ftI+ajq5H7jVd9BdW08fqk71XBZo0YCZZ2JvTiAn9KGRfGJ3bEUIX94RSg0G1yamKA51af47Cj12l9KQMqQvXIP6rskKpN7CWvj3sgCUdlhnExtmKRk3uT7unHJTvmC9r8lg9WvLOWrp6OpoG/dSTz7lZidyTaACK9c9+MyigUzVWtE1E0TlWsdf3C5arkXF52sDuTkMLEopuAtcDOztcmac3nKfLh69In7KysyiDF6dOTU0Vq1YSb/FhXsGF7CoHkmdDnULPSkmgTZ915WNmkLWLN6XGhZOplR01fvp3Mrd3k44bm1rwOF67RcsqWyGgECgrCJTpYBS4/2ABNWAFUK11Fdr62x5Rchg86DSNmRtb+c/zMoKENZnpd4LZqoLhtPqrzWI/4eZuKKGHwmnvjCMUH5ZESVd1N85lH65nxRHDbjsfimQFghs+xNrJSm7eO9jygTtz15RDBVx3AawAItk96dO8Mrn7u1LClSSxDlF35z8HxPIpz+6+jq+1oCdmDSkxUSzqow+Y4zu88IReqTh427MSSCNrZ2uq2qoKxV6MpypscZZUdrHChOv2+KpgfRX0T3MNN2euvqcXjpD/hkMD9WWWf7xBFF8oW88JzP7g1cBDn5cQHy9s8l99/B63cyP1kb6gwU5WahKlRPH84futaO07Tflky1ODMT9KCWMzSzK3c6VWb82nrLRkOvDXi5JeLo+I1qAZtasQUAiUYQTKtEUHl+M8djnW6RtAjdnSggtwPbvK4FK7mcgcWmq+C4/jGHSasVClSFZohWXExH4c7JBDuJEbzo+VMyovylSz/FAvNzvffWbC835mPNfnHqBzp0aciKTI4GhpHgoWbj78Q2mN/Ksfu167sGU0s/Dhi/w+8IceYt3tZjZ1TTA/WJ4tLu14mGOEdYVjGc4ZauULbw2tNC0vJTZNXLv4vmfaIZ4zPEbd2Yo1lPRknSWKtIxrmQUwQlreswZ2SyRH53zC/c1XiqeXjSe/ni9L3ZSYUPJs1JtCts+ikzwvB1cmJCcrTbbqQyGgEHg0ECjTFh2iFas0rUTbJu6TKEXMwfmzq62wOFd1KJCUEJZIdhVtJbgCGd4NK8q8WmEFgGATQ0EwBohcl76/jrZN2EuZKfnRhemJ6aykylOleu5SxZVdh6ZWZvrqcZeZnoeVzNY/9so/gk9S2OJCOD7mxHz4PCCwBmNDEthCyW9b30gRO62ebkRwxS56c3WBXFhzUJqYT8Mxz20PocSrySVScgUaMvgSExIvDxOOle0kmAZ9rOBuQ7GXEvSlGvC8IATzmk48hxh7Pp8rz8LSkl579yN64tmXWOEyGCWQZi9NoYC+b+hLetbvLtGVSIi7eFis6DNr/pRtxca9KTH0BCu6Itjk9S2oHYWAQqCsIVCmLbrrObnUaEQdqtHJl67FpPKcmCtt+3NvgTFMikimfl93pehzsTJXtXvqIbrKllQsz28h4hBKz50DTPZOPyL1oBy6v9+ObN2sqSYHrHjWdqN9s4MkKjKNlRkslr5fdaaU+HTCDR8RlJDUhDSxyLp/2J5i2E0I5XPdwD23mucRR08ZQP05IIU9gOTC7tMFr6/iMsTzcuepy7utKYaDTXI4KhRW2NJ310m7mHOs1cOPrFipo0+9Pusobtct7Ka1Z2Vdu1cNig9Not48XwjB+W7+dTdbnFfEhTj0996UzG5XtwAX2jdTd44oN/CH7hyNasQRpSayf/lgOO2bFYSsYiWR2444GUUDuC7whJKDBRt+NEJfB2PhxnOT1o6W7LrNkohMLdPB0YncPDzl39jYmKMvb63ML2yaSvXH/EAVvGqKcrTzrkvbvxsoTcZfDKKU6BBq9fpcdtOGkYNvI9pTRHSmdny1VQgoBMomAmWeeBVWlru/M5nZmImiiLkYV8BqQZg75uTMrE0phZUhrBIIXImOHPwBd2fc5QS2ouKlHgwNj1oc1GAgsSFxrOB0VoKVg4UovxSOPow6E0OIfLzCN3/Us+G2zLkf+I+9FM8uyP405/llBAUBgTXoUtVJLLtotuiSeJ4QAqvOtbqzKLg0jhjFXF48R2pCrBwtyM6jguxrH1AgsAjxKoK0p2XwVstDEpQYIk/RZyhfQ2ygwA0F0ZTxrPR15+8qDwWa+xJlESADwYMAAk2AaTS3GXk6ijLyLFt3VqYxF2LJlY9pbGpMUediKJUfCAylkrc3paelU1Rk/usIhvlF7Vu7epNDlfpsRV5ji+0kj2OYvpixuSU5+7Ug8wrOFBO8h5IjL+jz1I5CQCHwaCBQ5hVdaRlGzIc9NW+YWFSnN13g4Bi+OXOUJd5RQ8CMEoWAQkAhoBC4PwgoRXd/cC2yVVhQjYbVEZdmGFtAeNWg8IvaRVZUiQoBhYBCQCFwxwgoRXfH0KmKCgGFgEJAIfAwIFCmoy4fhgFQfVQIKAQUAgqB+4uAUnT3F1/VukJAIaAQUAj8xwgoRfcfD4A6vEJAIaAQUAjcXwSUoru/+KrWFQIKAYWAQuA/RkApuv94ANThFQIKAYWAQuD+IqAU3f3FV7WuEFAIKAQUAv8xAkrR/ccDoA6vEFAIKAQUAvcXgTK91uW9gs7Ow4ZGTOqn53a7WbvuNZyp1bNNZDmvlNhU2vPvYQphLrxbSc9PO8jSYVjsODI4Rta5vFWdkuYH8nqXR5efLmlxVU4hoBBQCJQpBJRFd4+Hs8enHenK8Uha9v56Or/zspCtlmQh/hUfb6SJ/WfSkcUn73GPiJo/0fCet6kaVAgoBBQCDwsCZdqiq1jXneqwNQOSADde2Dk7PZsWv7NGmAwwQLWYfaD+4NrChI1V99d8tVU/brWZEQB5IEgzXNUfBUzMjanv113IhslU069l0Oovtsgiy1iU2czKhAlOjwvFDhZJBoEoFnFOY0ZwLCDd48N25FzVUda3BDce2L1LIm2Z8dybmQrAyLBn2mEdKWxexbr9alLdfgHMOVqOmQKuMknrNlmAut1LzcirnoecH5gRIAm8GPSyjzbIvn+nqtR4eB0CVx6syDUgmGWsQG80aHwPKYM+dn6rFfPGGdNWZn4AJx6kTYdO1Ll7b9qyfi2tX7NC0tSHQkAhoBAojQiUaYsOxKdQDqmxKTTvpeXCCtD+peYyDmAVaMPKYwdz1YEOp3LjitTt/baShxX9W41rQidWBDOP2ypqUcgiGv3PAFDH0cxnlhA47gazUgDDQHJUinDQDZ/QR9i6wdBzcO4xUXJouOOrLcjey47mMhksmLn7f9tVlIoc9CYfzUbXJ78OvrT47TW0+ZddzDLekpUXesCsBsxr13xsA9rO/Herv9jMDOWVqC4TzUJ2/n2A5r+yUqhysMX/2m+3SV7FOu7U/uXmtJtdq4uZq86jtiu1e7mF5KUxpdBcxsvayZL6fNmZLh0Ip/Xfb2fmgTjJx4eLixuZmDJRrKenPk3tKAQUAgqB0ohAmVZ0ADwp8hptnbBPLCzMUzn56khWhaeNaWcu7AkVBbWMyVIdve1ljFz9nMTyOTD/GCVHp9KaL7dIOj4wh2Zua0bL2SoC5c3uqQfJmC08+4o6qpwpo+dRSmy6KM3nV4ymQT/pLCPUrcJKCOXBWRe05KRYlpZ25si6qYC/bedf+4VnLowtNtTXCGSrtfURJvLzuy5TxKlomjVuiZwTGsSC0eDIg2CLf7B6Qzy4zZC9YXRmywVKZIyg8P3b+woNDxR0Zoqu3JnNF4S/DspOowZC/fmzp9O7Lz9L0yZPxFclCgGFgEKg1CJQpl2XQN2Q5TuLb/xi1vGnrSszX1/MZ77OSs0WlyTqQHGB3VuThCtJ2q64H/Fl2J99xK2JfXDEmZibYFeYtWc9u0T2wck28MfuVIOtMSgUE3b/tX2xGbVma1ETU0tTbbfYLVgPmo1pQI1H1JUy13Ovk7WzlezDzZiRx4WHhEQmUS2JWHA9kMFqIpx4bCSWYz6560zuqsnxVcUHseQYEMdq5dVWIaAQUAiUNgTKvKIrDvDIM9HMPF5Vn+1QyU4sJSSks+VjX6mCkIjm5lynSvU99OVyeY4MsvS9dUyemiBlbN1sxNqq3roKdXqzFU3oN0PchZFnY6QsyF/RDqyp3VMO0Ym1ZyQdDNzXYlJk/2Yf6Ty/d4Ettv3MZA5BPVh1kITwJPJp6iX7+ICLMycjm87tuKRPw45lBTNKTdTVwfdE1GMLU3ywrNc8mEU9MzWTcg2UHMphbrEocXJ2pqGjn6B5M6beFklqUW2pNIWAQkAhcD8RMLJ3cv3kfh7gv2zbrqItVQx0pxOrdYrF2deREKByeNEJimfW8IZDAsnWzZbdjrYyX4dyCOaAy69OX3+pCyXWaEQdMjIxov2zgjhY4zp5+LtQA64LxYVgjiaj6tHRZacpISKJAnv7U/U2VcTaA/ccGMrXfr1NFB8COpqMqitBMbW6+RGCRU6uPSvH825UkTwDXcmLlaqVoyXlZGaTubUZJbGFZmRSnlo+2VCOXYmDS7q804ZOrDkj7sVkZiFvynN4OAePQDdq9lh9urA7lOJYCWtSq7uf9AvBMNYcQIO8LA7M0XHj2TNDuS01GVmX9s44og+O8WvnQz7NKokitnWxFnZxuDQ1GTh8NFWr4U8eFSvS/j27tGS1VQgoBBQCpQ6BMq3oEIyiRSICebgOIZcOhlNWWrbMZcG9CAvp0ILjFLT0lORDgYUdjuDAkQpkylGUG37YKZGTsKogZ7ddFFelZ203dv+l07pvtsn8V05WrkQlwjp0D3Bhl2aaBH9obtBwJluF+9SrjodEY274fgeJy5DbrNbGm6MxnaRf12JS+T08a7YCcyUaMvp8HCWEJZFXXQ9Wfqa0g+frkAbJ4Lm0SwfC5HgWtuZ0YN5RdpNelDzt4+iyUwSr0t7Tli3Q8oR5PrhbL/H7fc4+jqKMg5ackgAZrU69AbUoNiSBrOwtWRHacNlwsUq1/JAL58jC0pKWzp9L6en5LlAtX20VAgoBhUBpQUARr5aWkVD9UAgoBBQCCoH7gkCZj7q8L6ipRhUCCgGFgELgoUFAKbqHZqhURxUCCgGFgELgThBQiu5OUFN1FAIKAYWAQuChQUApuodmqFRHFQIKAYWAQuBOEFCK7k5QU3UUAgoBhYBC4KFBQCm6h2aoVEcVAgoBhYBC4E4QUIruTlBTdRQCCgGFgELgoUFAKbqHZqhURxUCCgGFgELgThBQiq4EqGF1lXK3gVR5Xhi5y1utZTUSw+bBfAAuO/yjTGkS9Af9exDSmhnYK9ZxuyeHwvJoRsa3MTj35KjFNwIM72RsTbCKTym7Joo/y/uXU4eX0AvoXO2OD+DCtFW2btZ3XF9VLJsIlJ47RCnEF+tUgmZn3NJR9Nyy0UJhU5JuYvku31bevFZk/mLLqDfk11705Lxh9PSC4XqanZK09yDK1B9Um0b+1f9BHEoIbxsP1zEx3O0Bu7zdhtcMbX7HzTj56KiZ7riBQhX7fdOVGgwOLJR6669PzB1GDQYy0W8pEiemrQKR8IOU2j1ryLqr5e7wORCEwVYOlg+yy/fsWD71WpKNoyu5+dYkVx9/fbse1QIJedo/8jWpUqcFVXDOX3Te1smNKtVsJNmVazch50r5C9eXNzKSNqztnbXqN91aO7hIedTTxNzKRt8P9KdKneZ8Xyz5YFnY2El9Nx8dZ6bWLrZeNRuSlZ0TeVQP5H7f+cOOYZvavlJ0GhJFbJvyAskmpsbC8fbP8LnC2l1EsRuSsH7lX4Nm8cLLZwvkgaj1z97T6cqJqALpj9qXSQNm0iImkS0NMuSXXqWhG6WyD0N+6yXExQ+yc6C4mvrY/BL/1gz7VqmBB11nlpCIkw/n76v/27+z4mhBLYa8QM0GjNOfWuuRr1LT/k+zgmhN9boOpxFfzCQPvzqS3/fNn6lao/b6slXqtqSuz/5Pvvs2aEOjv1nAHg/dGr8Nez4meSmJsfryN9vp9tz/CH2q3rSzvpiDp4+k1WjRjep0GkQ4/lO/rdbn32zHv1V3em7SZqnfbOAzNxTtOu4zqlijPrUd+To16DHyhvy7SdAhcDctlMG6WMy5ZrfqslDytdhUqtXDT84S5KdYwR/usrp9a5JDZTtKZK66IF40WSM0BRu55gLcNnEvMw6UDCCwE4B14MqJSKkQyE+2ScxMELIvjBoOri2MBvGXEyk7K4eqtqosCyyv+GSjlMXC1KDngUv0/I5LFMKLNZdEwE7gy1Q9KXGpVN44/6kNdS2Y1iewV4AsbH3l+FVZ8BlUQ75cx9LBgtxrulLo4SvChuDIOGz+dRcvMJ1FJhbGVKe3rl48E9tiQWmwQUDArABuPQj6GcaLXGsClxXKYzFs4Bp66IowNBgyJmhlC2/xQNlwSG0CO0VYUAQdWxmsLwLmhZrdq8vC1WFBV5kt4oyMYWDvGuzispFyLZ/WPQEnhCbS8TymCzBI1GbWBxtXK4o6G0sg7QVzxe2IFeMEhgywZYBlotUzjWXhcG0h76bMenFs5Wk992F5vq6AETwCF3ZfKkC1hHGqwtiDEPfU+nP6Rb0DmGrKuaojgcop/Hgk1enjL0wba77cTE5VHIQNI4Wv4Ur1PaUPe6YfFuYKnAfIgv07VyVrPtfQIxF0esM5wcaF26ve3kdOFVyKaD8tPp0OMhExBCwYuD49mS0DrPNIx4LmEDMrU2b2qC1tJ4Qn0qH5x4ulepIKeR/V21Yhd2YFgUQGx9DpTefzcvh4PL4gGvao7coUWhl0ZusFGRN9gbydjq+1lMXZtXQb5mysP7CW9lW20dxfMIZA3Go482/JW6YYLvNC78GbL0g62DwCulSjq6eiqCpTb2WlZdGeaYd44XYdZRVc5bA83fydhQkE15tGcIwGatauQ70HDGYKq3/p/Dkdc4o0fLFMXCAAAEAASURBVBcfwbvX0sFVM6WFIR9Npu7Pf0l/v5RP6lxU05umfkt+zbtRj5e+pXUTP6FWQ1+iBV8+w9fxrW9KRsYmVKlWUwo5uotqte1Dp3cWVGYb/v6CMtNTydLWnpXXFvJv2Z1O7VhVVDf0aZ2e/JA2T/uO/AwUpz7zPu8oi64IgHNYmaQy8Wp2Zo6wDWAf/9ptru9XXeTmCS44P2bl7vhqS30rUHzxzDQQ0LW6MCfoM26xU6tHDcL8giY+LSrLTR/fcRxbZlhoMCyQWo1rzDesFCZ4zZai+DH3/74b5XKfr3F6tw/aMsuBu9ZMsVuU6fZ+W8rKyOEbl+6Ha1h45N8DWJk5U/S5WIJbs/NbbSQbvHXNWZlnM81P+5ebi1Kq3MiTmo9tKNx2/b7uwpj4yAMAHhYwH6cJbvA6bKqRc/X8c0W+L59v94/aM1uEKV2LTqHWzzUlO2ZbKIlUZ0ohIdINiZfjNWZ6JIi5jZm4nu0Yu8gzMQQLvW4/ndsnPSlTxhTltPHVHlYwHzuQMXXlG2FyZArTINWjev3z3UWocysBW8Sov/uLWwcs97hb4+aI8dKkRkdfZqvPZ5gH9ROIb9OT0oWKqSpjAvHncp14zheKGBfhoJ966q+tJB5zPEjU7R9APT5uL/up8amisJx8Hajh0EDybelNEaejKIDHo8vbraVNKOEBfI5WTMALJgwoe/+8uTFc98AEgocX7KdxnzQBTRQUavixSKrU0JNGTOqnZVHH11sSKKcuMyM92DY6s2u5JJLKihTXBn4DaNNQGg6tw2TFjfn8k3hMTQnXGBhCDMXS3lyw3DPjsD45JzuHx++a/OMcArpWY7emheRbO1lS/++6ERhO4hnX9q80F9oqZNq4WFG9ATWpIV9H0edjqTKfDzDXpNv77SiQzx+eGSj7Pl90EmWs5bdq14HsHZ2oZdt8S0vLuxfba3GRzGJSQd+UsZk5mVlYyb+Jaf71hAILvxxH1Rq3ZytwBl06tof/9+rr3Wyngqsnj30ibZ/9C7lXDeTrrWhVkZoUT/FXL1Fg+1tPe0x6rjMdWj3rZoe9b3nKoisCWnDAgbYHARNX+CkZ+4ayY9J+SopMlie8hCuJzBWnswhQRrMImo2pb1jlrvbP7bxETmytgAB22tiFoui0BqvxE2csP6Xu+PuAJFk6WojSwBN608fq8RO2mVZUvw1ackK45kDTs+W33ZKOH757gKvsY27SyLgcLXl3nXwHrU+/rzvrgyVgjW36ZRdV46fwzbwFHx64/yBbf9/L1ENJTAybKeSw9frnP1GfXKd7km5eDDbBG8/T9on7pJ0qTbz4JuIuNz9JuMlHHCs4WJSw/oyZNxAW+D4mqQV5LizgNV9vlbzc7FxWCDXFwgLjO6TZ4/VvGF8okzVfbWVi3XhhjK/ANEV+7XxvLFdMn8yYSmnkX/3EQtjyx55iSt2YHMYW8q5/DkqGJc8zYZ4XY48xPsBciAfm6SwqKHafppXo3C62itmCBfVT/UG1aPXnm4V6qnDLyz9aryf+bcAPLRBYMyDv3fDjDsEGFFawfmDtxDFXI/6BDa4RWJD5wkTEzIm46K3VFHMxni3dUzx/PUqfbcdWIpRLMOMLOisLO51i0RcoZgfngX+Xqg5UnsfQUBrxAx6uC1hO/LxA9mzxV2lcUfqolWv/Ugu2Ltklx2OnCZTnIbamIV3fbSNWoPZbhgcBNFpbftONDyxunL9Gbow6Kz/dKNY2LPq+X+rcd/Dm4MFu1rglcm2eZety7MwhYoXLAw3XmzZ5IgXUCqRjR3RjibZKInM+eZziroRQePBhw9OQqo7sMvQObEouVfzZSutKm//9Vt9kyyEvEv41SYqJ0HYpKoStTVZGdq5eNPXNAZKOObX2Y96RB1x9wbydbTPHU2ZaKrV77G2KvnSG+3ORTM0tyad+Gzp3YHPh4vL96vkT5BXQUKw6zxr1bihzKWg3nd2/idJTkm/IM0xYPv4NSowOl2NmZegetAzz72ZfKbo7QM+Lf+jydMhPw+XZjWHotriD5kpcBT8kWHOG4ljFnpWgAz2zcIQkoz+a+5NjRYVA3LC87PPNAK65eLYUNYk+F6dXdK5+TkIUq+Vdiwb5q5He+tDYzeHKw39Gis6lg18nFJQfWyCWbNGgLxoXn9bWzbaGZLFQUJoL+GZ1kHeVXV2ai/P87stiuSDdkm+ycMs9vSAPG75JIYIW0Y1wwxYnaAvWqDefC1xxKA8+wJIKrB2I5rItab3LzIGoSeTpaMKcE8SCr7OGTPALiw8CK8Sd3XhQdJrA8rqwJ1T7qt/mMKehdq4J7BqGooBAkYKHUcMGN3C4JJGvYakrWfAT5MFwTw/8sXsBtzxwAjfi+u+2UR9WCk/MGcpWfTLtmryfFQJbonch6NclthAh6FsMW6DWbHUZCkiLZz+3zDBJv1+3TwA/tLrTzGcW612sLuzuN5wrx0ONuW3+Q2EuX9fatQsvjSa4piGDf+6lJckWlqKm6FJTUujAXt0DZIFCt/gSdlpnjcJKKiy12vWjGi26U3JsBG2b9RMdXjtHX2TXgj8paP08+V6zTW+q23moPg+BJwgAKcduig6Pv0Pr/vqfPu8GbYqcvJ9FlcDmlBgTLvNpubnZosSKU3QOnt4kyhWDk1c//yBIKiLRsEDe/tULJ2UvLfnurpcimial6IpC5SZpmAcDSzjmx8BGXoWfrFs9k2/R3aTqLbMs7PLdDrCqIoOjC9RJiSmo5JCJ+ZeoM7Fsfa3Vl83N88Hv/veQPq3wDpQV3FaawGrRJI5dOYauCrgARaFxnZsJfuyYn1n6/nqZ30CYeH2eXyyp3OznAHdio6F1BRMQ5xqKZk0iDfNLuElBMJ8F63z2c0vlOz7wo9Nu/FpiYcWHm6I/z33NfXG53KQx94P5LkOB1QYX6eHFJ5iFPdUwi87wXM8ptk77fN6JjjKZb7KMm65PJha6OUpU0OYrtcrO/MCiCVzVYIGHYI5oN1t6YJXXBNapoWSlZRp+zd83ANVQgQEbWG3zX1mpL3udCxiWQQaIeg0lh92aIARe8NoqcalreXB3QmD9TB46RyIfG7Fy7vZBe5o0cKZewaBMa3aTHudzieM555KKI0eAaooEc5hX+UFAE1hn6GcyP5AVFsyjNX+iAS18c7V+jg1lEsKTydPgFRcLG/PiH0wMMcy7tmDRGT7gYrpDEzNzM+rZZyAtnj+Hr8X8dC3/TrZbZ/ygn6MrXD8z9RqlJMZJcgbvG8qwz/6li0G7aPfCP2nYp9N4O5GS46Jo4z9fGRYrsG9ZwUH6vXXaD5Iece6YBJ4UF13p4h3ALs6f6RTP4+G/NErBq7g09rCU9Qk3AwhcR3D/tH62cYEeVnC35rklG3k6hhtH9vOeom2cma2b80xZWWJOAfua1RLB/v5A/sGizVZ8I8A8gSYI8baSOQgzUU7G5vmunTNbL8q8Rg2+MTuxdQeXWcMhdbSqxW7D2LWJiXjMPQVwQAKCDjSJZZcUrIbOb7YmhJh3+6CdBB3kFLq5auW1rRas4c1uJczl4YHAUPB+E87ZiN81s2aLAvslDV+v4GZLjYYHUofXWhg2KfseHBhTnxnRqzT2kjlMuJshmPPBMZuPbSDWC0L/+3yRH0EmhfhjAM/VuPMNEQ8XkFye24HAdYo2EbRTWBoPqyvzNK2eLjj+KJfAlgzwvXoqmgb93EOqIigJc61NeL4PFjNcYYZKD4WqtalCNXjOt1Y3P7Yoq+mjB/FABVe4Ww0XsUxgLTnwWENgaSM4yJijg/HgAgVcEoFCwjxXI1bWmAsd/HNP6vlJhwJVERQCzOEmtM9zTePyB/N8l3fbiLWMYBu8MgPBA8O4JSOp58cdZK4RjPdQioYPFjV57ro2X+e9Py84Dgh+kuuBH6rM+Rywb5n34Hdxb6jM/eG3AfeiVz13fsjMt34De9XQua4L6n4JqMJ44zdynfsBt6ht3u8qaOkJqsDXRmAvf5kL7/4RX+MXdcqiAAiFvkDRYw65Nz/EWPN8a2NW5k/x+ZtxvzV5+oVXqUnL1jT22Re0pP9k26TPE/zqgSct/f4Vijh7nCLZYhr04V+37EuXcZ9SamIsndm3Uf4PrpzG83/WhNcVNEHwSduRr9ELk7fz02Mu7V82RcsqdotXEXzqtSJXfj3CubKf7Ff0b1Bs+XuZoRTdTdDEjTsn2+Bxjstmc/AG5m/gukTwRBA/sRv+kIf82ptGTOwnLzEP/U23D4UH6ft1V8mDq7HxiLqyjyAMyLIP18kTPAIEELBwfudlvuHqfrmdWOFAkdl72dHj0wexBZl/wSHqbe2322SyfsAP3SV6bv+sI9LmzT7w49/P8z4I0Gg8oh4dWXRSf4NHPYR4u9VwIoSYJ3EQyYLXV0lzOezy0/qlKX1gkstRd6kJ6bTp510SqID32xCNihudJlAowAaCyXzsB3KEJgRKFDcjTQT7zPzv12JTZE7lIrsmDQXtw2pC1B5uVohSXfPVFilyjS2peS+v4GCOqjT0996StvyDDYbVafKIuTKPhMAELXAGLi2Ma8unGnKQRmOZh8rOU35a5ZPrz8p4FZy/wm+er5k862bxO2skoq/lUzqLH14AKNOB33eXQA5YmxqGUK47ee4X44GHp8M8HojWhOybeYSjXs+wS7CTBJzsmXpI3HfIq83zkd0/bCduN1wbPT/tiGQRREJqfUECjqFZbHAnLuZXPDAOeL8TFr4WxaurzdfkB+skGAfXeZd322rJci0gGGkEP1QF9vWnWU8vkTz8DmY/u5ScOaAEgTiufP3MfWG5YKJVPrVBh9uRvHPT0hHMhOsBD0le9T1kv9MbrSQbc48hrOzw24CiW/3FFsEPmc4+rLzY+r1YhNsWAUp4kPTjOU0Ek+AfQU4QWJOruN1mPI/d75suHOV5gdZ9s03ycB7aNY4E7cEH+8BvJltzCAYbMbEvB6X5ibWIqFdNlrIll5WVRUvmzdaS7mp7PYd/X9k6675wQzlZGZSTk6VPzs3J5t+c7nuTfk/QnE/G8G9L933BV8+Sg7s31Wxd0O2qr5y3g1cUts78SZ8MazHi/DHy5lcf0D4EEZQB3M6pXatp/IiG+utYX6mInT5v/MSu0N/I2NiUbB3dZb/LMx8XUfLeJ5Xz8QsseCe/98dQLSoEFAIKgfuCAF67gCV71OCVkvtyINXoQ42AUnQP9fCpzisEFAIKAYXArRBQrstbIaTyFQIKAYWAQuChRkApuod6+FTnFQIKAYWAQuBWCChFdyuEVL5CQCGgEFAIPNQIKEX3UA+f6rxCQCGgEFAI3AoBpehuhZDKVwgoBBQCCoGHGgGl6B7q4VOdVwgoBBQCCoFbIaAU3a0QUvkKAYWAQkAh8FAjoBTdQz18qvMKAYWAQkAhcCsElKK7FUIqXyGgEFAIKAQeagSUoitFw2dmaUPP/bXlnvfolek6jrd73rBqUCGgEFAIPAQIlGmanvJMHmpswqfI7AHgtIKAnkRb2BYcXODXgmBB4cw03YKl4NsCJQXqYPFWrYzGQI32zCyZbgXkXSwgvtSoYfDd1taWRj/5LP39xy+Unl4yAkEv//pM28KL0JqYMYmhbkXvmNDzlJacgCaZ8cCCmYI70rWEaAo7dYhpT/JpWcytmBi0WRfmfzMRynutjr17ZbK2d2LKHSN9m5lpKRR58bS0qT4UAgoBhcCjgECZXuvSu0lF6sarroPXC9xRoGw5MPsY7Z8TJDpq3JJRsiI+lJSNkxXNfmEZgfyz12cdhWYmOzObKUPMhG8MRKXTn9CxezdkzrWGQwNlBXSsRg9aGKyErsmLb7xDXpWr0Pkzp2nir+O15Jtux/ywmClXTIRWIyEyVMpumzGezjKrr0e12jT0038pNuwCK1grsnF0ox+H1xOFDSX3wuQdFBt+gVeJzyEnr2o05Y1+UrYDswh7MzWGnVslSrh6WdqMC79Ii797+aZ9UZkKAYWAQqAsIVDqLToYTZW8q9yAOZiTwy5fuiG9cALoX/59bAFlsWUGXrIaHXxE0YEpeCeTWR5delKU3pgZg4XOZefkA9LE/plBwtQNapBZzy6hUZMHCCVISlwq86zVo2Xvr6PQoKvCcwYOOJCOaozEs6f9Q/2HjKA5UycX7k6x36e83o+VmA099etKmvyKjlJGK9yo9xg6sm4ubZr6jSS9OGUneTKPU9jJg2Rha0/Zmek0//On6Vp8NFt97dky1RG0bpzytZR/dcb+G9rU2lZbhYBCQCFQ1hEo9YrOyMiYlcbIG8YBLsE/f/r+hvTCCYnMpQYlB0lgIk4TSx0xJbi6cpkVePSUAUyCaiH8cSCx1CQ1Po2tQJ3bEZxeGleakbGuTEfmiDMUWzcbvaKLiYqiSSW05AzbKG6/gktFqlSribgnUcbU3JKqN+4giu4aswXHX71E4/7cQPERIbR36T9CmlhcWypdIaAQUAg8agiUekWXzYSD47/+352PSzFseyA8bfNcE1r+0QaKDI6m3l90KdExNKLMxW+tFpeoVgmuUU2gDP1q1KRTJ46ViJBQq6fb6ub9DNNArrh7wQQ6zSSHmmSkJstuVkY6/fvWYHZZMkt4i25MiPgBW6jl6djmxVpR2ZYrX55dm/lEpgUy1ReFgEJAIVCGEXhkoy4dvHSs39eiU8ilqiP/O5RomGEJIiil2eMNhFncPcCFmYt7kKWdhb7+6CeeocefeZ6GjhqjTyvJTm5uNrsvralqo3Zk4+DCViYHvLBEXjxF9boOIxMzSzKzspX5Oo9qdSWvcmBTGjt+Kfclh46zcstiS9fUwlLytI9cVnBdnv6Y7Fw8yZJdnUoUAgoBhcCjhECpt+juajA4yESzwNAOLBrNqjm86AT5d6pKw/7sQ1B2kcEx+jzKq3c9J88c5A0CVnJ5XvA6bxe/vYZ6ftqBxs4cTHBr7pl2mK7Fpuq7eur4caruX4tOHj+qTyvJTjZbZ0c3LaLuz38p7smVv71Lp3asou2zfyF7t8o09qdlCPik4D3r6dLxvdLkleAjfOxIGvvjEvkeeuoAndi2vMDhVv/xAXV64n2q1bYvRYWcpmnvDCmQr74oBBQCCoGyjECZjrosycDhVYKsvNcKSlLesIyZlQkHfmSx8jNM1e0jiEZ7jeHG3FunlGdXIywxQzExM+e0HH61IMswWfZNzCwkqCbzJq8zlDcyEsvvhsoqQSGgEFAIlGEEyrZFV4KBu1Mlh6YzUm5UONoh70bJoY3CSg5pmI8rTrIybv2+HtybShQCCgGFwKOGwCM7R/eoDbQ6X4WAQkAh8KgioBTdozry6rwVAgoBhcAjgoBSdI/IQKvTVAgoBBQCjyoCStE9qiOvzlshoBBQCDwiCChF94gMtDpNhYBCQCHwqCKgFN2jOvLqvBUCCgGFwCOCgFJ0j8hAq9NUCCgEFAKPKgJK0ZWRkbewMyf7vGXNysgpqdNQCCgEFAL3BIFH/oXxe4LiA2jE2smS3Go481qWOXTl2FU9I4N26G7vtyNnXweaNGDmXa3IorXn6uek7coWi1YnXb1WIK24L84+DuTobc9sDqkUzn3NzVtKrfW4xrSLqZGyedm0eyUmFtZk7eJdoLlrkRcZJx1VEVaDcfBpQGY2jhRzdh9lJMcWKKu+KAQUAmUfgUde0Y2c1JdmPK1bJ7K0Dne11t7U4bWWsq6mCTOig3Zo2pgFBVZm2T3lINk4W90TJQcc+nzZmZcUY4Z2UyM53rmtIbTpl123hKjDK82pRseqTGibTuYVzCguJIEWvL5KlFv1dj6yLijdQ0XnUrMN1RnxBeVm569Sc3jq6xR5YhszxBtRo6d+I3vfBswsn0C1zG1o1/jhlMyKUIlCQCHw6CDwSCg6l2qOTFBqThGnoigzVXdDhKvPxNyYKnjYCvM4hjybmchT+QatCeo4VrFnBvF8qwRrWNp56pgPYLGYWZuSR4ArRZ2PpfjQRKlqyutnOjMjQmxIPKUnZ2rNydaCb/72XD/idDSBnTw5+hrfpPMWj+YSsMrAkBB3OUFfr07fAApafJL2TD8svHljpg+iVs80oQ0/7pBzsGZ29PSkDLoWpbNitIq8XCafn66vWlo2K8lkXsRaE1iK6EfEqWhZsFpLnzRglqQP/rkn/T10jpYsW3tPW0qISCLHyvZkzIr3Kp8LBO1AyS3/cANdPnyFcbKlIb/2Iq+67nRxX5iUwQfqG3G9mAtx+jRtp0nzlhQdFUkXzp3Vkm66tXTwpNjgPbR3wrgbylXw9COHqo1o61d9KC3uCjV5dhL593md9k164YayKkEhoBAouwiUaUVXvnw5Gji+Bzn52FMWKzgQqy5i5oGos7HU7b125B7gLCM76u/+sg07HEFLP1wv+13ebkNVW1Ym5j+QRZvXfrOVLuy6LDf2vl91FrLWsCNXyTPQlS2HchS05CTt+PsAtWL3XO0efmINoSG46sCUAGn5ZEOC0gKjAqh+TC1NaO4LyymOFSQYz8cyyzkWmS7Hf/HhSTTnhWWifGDFYf4N9eD2m/bEImkPH+DVa/1sEypvVJ5iL8XT/FdW6vPsvexo6O8F2cpjzsfT3JeXywLQvT7rRBXruomixdqac55fdkv3pJFJeRo+sa8wPlg5Wsq5J15JZqt4MTlUqkDJrGyh5CAJfA67mLE9LSn/4aHPF53ImR88cI4gwgV7u7YuaKXK3jRw2Cg5zw/eeIkyMws+JOhPzGDHwsGDUmPDyNmvCZPq2tGVI2t5NW1dAcfqTSjx8gnODxfXpZVLZbYyXRhrkwIWoEFzalchoBAogwiUaUUHqw0W0vxXV1L0uViq3bMGmVubyTAuYuJUyPMrRtPvPafJvvYBC7Bqq8o0a9xSig9LpMBe/qwY20q5LLb6poyaT8Mn9CU3fydRRpi70ttkvLMAxzsfRy2fakT1BtYURQdLDkpu3bfb6Nz2EPKq50G9PuuoHZI6vtpSlN/kYXNEIT/+70AK6FyNTqw5QwfnHaNOb7aiJ2cPpYQrSbT1jz18Pjpr6PTG84R/KOV6A2vp28NO7KUE/blVqu9B3T9sT0vfZ0XA4lHLTRT9P8Pmsgs0k7q+25bavdCMln6gU/RS6CYfB+YcpZPrzpK1szWN/kf3oACW9UxuCwJrGYr8wu7Lcl5aU4nhybTgtVVkUcGcxrBir9a6Cp3ZelGyI66EUUx0FEWEh1FW1q2VHCph7s3Jrxl5NevPDwW54sbc/FlXtnBjyMq5sszJ2XnVpCbP/0VJ4cGs6FzJyNRCKTptQNRWIfAIIFCmFR0CKNL5v/+33SiOb/qYxwoNirjlsDr7OrKVlSBKDoWPLj/FSquhWEGa9YH08zsusYtR567Ed8i+mUfEqnOr7kQWTMYKDjuIpT1urrl0lpUctOLlQ1cKKACfZl5iyQwa31PKm1iYcPCJkyg6KIKLe0PJt3llajamAQ3+qSftnHyQjizWWYpS4SYfsAihVKFg0tmShMBChIXb+/PO8t3GxYqVhtkN5yiZRXyEsvULLJKj8gNUhJoor2yTUfWoTh9/+bZ/VhDt43/Iton7pB5cxJFnY8i9pote0WVlZdM3n30o5Ur6kRASRHHnDtCFLdPkYaPNWwup0bg/afu3g1jx5ZCzfwtyrdWWglf+QjHBu6nlG/Pujj+ppB1T5RQCCoFSg0CZVnSI9ps8Yh458Txb8ycaUm92mx1eeIJ2scK7qfANvHy5Qm9egPG0kMBiKixjpg+mS/vDaMUnm9hqMaPuH7XXF4F7Es1w8yJweeqFd0+tO0/HVp7WJ6UnZ8g+FBICUE5vYuuN/wf90J1aPNGgxIruiTlDKWjpKYo8E6NvG9oG/V//w3Z9GkhlDRW5PqOIHUNCWy07npU+OPogO/7aL//9vu6iZcu2vFH+ORuxu7WwIAAGCJW0H+c3s4LLyebyOlTPrptANQe8L82mRF9iZW7Oc3LPUfSpneRZvxta5qCeW1MaFe6X+q4QUAg8vAjceKd5eM/lhp47sNWCYIiUuDRa8fEGunQgnOfrHG4oV6OjL98Qy/M8l+4mDEvDrqKtuD3LG5ejJiPqcp1y+psvFJT8c3FDZQVXKdrZ/e8hCTKBVaPJtRgdA3mdPgESyQi3JFx7moTyfF/1tlV4jiyZowKvUbPH6xOiFCFjZwyien1rSj20b8xuwfi8YBXoBfRb+sN91Pa1djFHlxqfJtasESta7RzhbnWsbMdh+NmUyIElVZpVorYvNtOq6Y7FEZfQzIi8hJK+lWBe0cbFWtyR6CeiQN38nenKiSh91a7vtBGMEASDscA8pyYODo70zS8T6MsffycQz5ZEGj35CzV+dgL3z1T+a7GSSww7JVVjOEjlOrPipsdH8HkbU+WWQ+nq4XVsZWeXpGlVRiGgECgjCJRpiy6RFYYEecwcLMOFm/qKjzYUGDrMl2FuqsMrLSiU3YnLOB/RgCdWn6GBbDmhPuotfGOV1MMNfNzikbIPNyL+V366iULYikNIPebORnCwBgyMqxzlqQmCT7ZP2CflW7B1mcgKzfB9spWfbiREU2ptX4tNpc2/7pbqu6YcolZPN2KrtIF8x5zajCcXy35tnj9EnibPLh0lwS2zn11KeBcOygwybomuz4gEncMBMAgYCT96lefXBoi7Eue4+vPNWjP0zKIRBfbPbLlI67/frrdG9ZkGO4jmPLzgOHV6oyUr3lZiZUGRhR/Ldxcj6OWZRSPlmFE8b3p+1yV9CwioyeHXBDIzszifNWwJ5NiCL6jFK9Op63f7WCeXY3dwLO2f+JzUTLpyhq4GbaBWby2S9rLSkujw9HdK0KoqohBQCJQlBMr5+AVqnrSydF4FzgXuNDMOQsF8UpEusTyrJTuj4IvMuNdibg0W4e2IlYOFvKYAVyDawDGhIBF4EXpENzeHsHwothlPLZZIRa19cxtTuSmn8esChgJLDC5YzG1p1qFh/p3uw1qzZEs0qdCrCXfaHurBcoS1hlckoEALC84Fx81MuzFP9BvjdbsXpZVTJcrOSObgk/jCh+OxtyczWydKijh7+w3f0JpKUAgoBB42BB4JRVcaBgU38IE/9hCXaAS78uDSg3W19D240m73tl4azkj1QSGgEFAIPBwIKEX3AMcJ82gI87fm98/i+R0yuDZz2epTohBQCCgEFAL3D4EyPUd3/2C7s5bhykRAjBKFgEJAIaAQeHAIlCy07cH1Rx1JIaAQUAgoBBQC9xQBpejuKZyqMYWAQkAhoBAobQgoRVfaRkT1RyGgEFAIKATuKQJK0d1TOFVjCgGFgEJAIVDaEFCKrrSNiOqPQkAhoBBQCNxTBJSiu6dwqsYUAgoBhYBCoLQhoF4vKMGIYCUPrJBS0hVJQFGD9ShBcppVxOofRR0Sq5No60mC5cCQALao8ipNIaAQUAgoBEqGgFJ0JcAJzNkjJvXTc7vdrErd3v7UgteexDqWWObqEK/9uHvqoZtVkTxwyblUcxL27SReo3PB67q1NW9ZsQQFenzYjlb+b3MJSqoiCgGFgEKg7CFQphUdLDEjVjbZvN4i2LAzmWUc/4YCBgFYYEWtZ2nO/Gwa/YthHexjlROsaQnOu5wsHeccjtd0TH1a+/VWOrfjEnnWdqU+X3YR4lTtuLJ+JtfLTMkqsA7kTmYnh2DBZ/cAF9kv/GFpb84UMzlMlFrwHNAmiExhEYKpQFtSTGMd8GrgqWdKwEvrhutP4vyNzYx0FqTBIi1m1qZyeCxGbWFrJlx1KTEpTBekWw8U7AKeXpXoSuhlyuGFmpUoBBQCCoHSikCZVnSVGnpSS1Yc5XhVfFhluMljbcnw45EyHqCM8WVmbqwgDCsKDAVwGUKJdXy9JVVvU0XKBW+6UGD8HL3tacD33WTxYtDYbBy/k7C6P5QNuOPiQ3VkrOHHIvl4a/Xkq9ZOVlIPChKrPe9lOp+DbPHdSrAodV9WmA58XChT9GfDjzukGhaLBju4d+OK8j2BqXIWv71GzqPzW62pSlMvSX9q3jDZxoYkCCs62mn3UnOq0cFX0kENBCZ2LCZtxW7akX/1E/frzn8OUouxOtaETT/volPrz0n5voOGUtOWbSjo4H6aOfVvSVMfCgGFgEKgNCJQ5oNRbN1taBffrP/sO53CmJamed5N27tRRVFyM59eTBMGzBTLrPPbrWWMvOq6C9PAsvfX04R+M8jOw1Y/drCeBv/Ug05vOMdtzqAtTKXT8bWWBBZvWIVgMh/yWy9Jq8pKNOJkFM/V6aygDq80FwogtLnknbXUeHQ94WzTN17MTrMxDUUx/j1kNk0bu5CqtvYmayhLlsqszD1qudKsZ5bQlFHzxaqr26+m5K36YjP90Xs6U9/kyhb7c19cJnnejb3It0VlmvP8MprE5w/m8c6s+CEpbBX+xceCNBoaSKu/2ELTn1xEIcxyrklEeBjl5ORQ2OUQLUltFQIKAYVAqUSgzCs6WDjnd16i3OzrdHH3ZbJhyw7i37mqLKqccCVZ3IHbJ+6lCm42kgeLLZq50kKDIsQtufXPPZKOD7hC4SKEy7I+z6tZOliKBWjPJK+QuS8tp61/7JXglS6sOEZPGUjGbHXBSvRgVyaCU6CIwF6guVSl4k0+QHkDctTaPWuIAs7NyeX+V5MalRtWpNgL8QTSU7gt5720gg7OP6ZrjS1VWLEQbOVf91Xco2BCB8s43JH7ZwVRxUA3JjxlTW4gB+cdowuMG4haDamDdu/YRu+9+jxt3bTBoLTaVQgoBBQCpQ+BMu26BNw5mfnzR7q5NN2N3NTClEk68+e6clgRalGP2GpWGNrIMpjX0whBmbia3Yi654S904+wkknlkqxMrpcT0lYQtyJSE5xzNbvXoGMrTkn5HFZSWr3DC09QChOs3krA74a5Qq3eoXnH9aSusCRzsvN59EDKWhLBvJwh8WtWWh4WBfUchewLK7a54uYvi62gMhQCCgGFwH+AQJm36IrD9OLey1Sxrps+26+tj/71gaSIZHKp7kjmeQEZdfJcgSiM0H9IUmQyHZh7VBSYOQdrgFzVu5EXPbdsFGFODZKWoCNsxRYBImDgTolJlXoH5gZJEEhJlEVKbApbY5RX76gEz+TmMchGno2hCp75rtVOb7SixiPqyvH1H1y2Yp38c0V61NlYCZYpl3cF+PFcXSJbt1ogi1Y3OzNb2y2wbdSsBX381Q/UvFXbAunqi0JAIaAQKG0IlHmLrjjAT6w5Q83GNKDH/x0o7sQKHja05N11UvzivlBWUuk0ggMyMpIzycQiHybMd+3hIJIOr7ag+oNqCzt3Ogdw7PrnAF0+FC5s4Y/9O0jYzBGcAgvr3I4QaXfX5IPU+e1W5NPMi0wtmPWc2cTx+gGk85utJNgEgSpgHx/6e28KD7pK2yfto/1zjnIQS3dy9nUQF2gFnnfcPydI6gVvPM/BIg3p8WmDRAnbuFhJUIlk5n3Atdnr044ScAPWb8y5Xdh1mRqPrEuPTR3E559FFXgecuGb+a80DP6pp9Tu+UkHsYoXvbW6QLSmj281srK2Jr+AANq1fYvh4dS+QkAhoBAoVQiUaeJVuOfMrEz1rw7gNQKEzWsvfiP83pIVC6IMQYSanpyhHxwTrguFAndnUtQ1fpXAUhSFFGD3Hr47VbanxKtJotygACFwMzpUtiO3Gi4UeiSC83gOMO/1A+RD+Tl620lUJCxHzX2IPmD+z1DwGgDmAiHot0MlO3kJPfFKEmUavIiO80TADF6HiLkYx+dRyH3J/QXZK7DAOWqvUqCejbMVW4gmcm6G548oVUNJZgzyjEhJNjLiY9rbU0J8vASlGJZV+woBhYBCoDQhUKYVXWkCWvVFIaAQUAgoBP4bBB7ZObr/Bm51VIWAQkAhoBB40AgoRfegEVfHUwgoBBQCCoEHioBSdA8UbnUwhYBCQCGgEHjQCChF96ARV8dTCCgEFAIKgQeKgFJ0DxRudTCFgEJAIaAQeNAIKEX3oBFXx1MIKAQUAgqBB4qAUnQPFG51MIWAQkAhoBB40AgoRfegEVfHUwgoBBQCCoEHioBSdCWAG6ukgIGgpILlvUb/M4A8axVcX9LGxZocmOUA/yA8LU2C9TltuX8PQkZM6kutn2l8Tw6FFWUsKpjdk7buRSNYacY0b63T22nPjlfhKW3XxO30/16V7fFxe8Kyc3cqXZhqK7BXjTutruqVUQRKfvcuowDc7LSqtfYmEJY+vXAEPbN4JLhSSySgw7FysuClv/JZBVCx+wdtaeD4HjTszz5Ct1Oixh5Qodq9/Kn/d90eyNFsnO+dQm3zfFNmZW90x/1uOqreHdctqmLX99pSnd4BRWXdNG0oXxN1eAxKkzQeVkeWs3uQfTKzNiMszXenUrWVN53dFnKn1f/TeqO+nkPVGrWnDmPfpXaj39D3pcu4Twh52n+HMe/q80Z8PoMCWnbXf6/euAP1f/s3+T74g0nUrP/T+jxTCytpw7tOc33azXZ86rWiUV/NIVNzS30x58rV9f1Af4bz8Y2M89cC1hcsZsejWqDUb/fYmzeU6Pf2L1S5dlPq+uxn1HzguBvy7yah5D28m6M8pHWrt/WV9SrXf7etAJfbrU4nKyObJvSZUWBtSNSZy1xxkH7fdJXto/oxsf+N2PxXWDQYUpv2TD/8Xx2+VB+30Yg6lMgsHSATflCymBcPN1xT9XaOi7EE76S2Puzt1C0NZV29/cnCxo7s3CrxQ3L+erX27pXp/IEtdHTTIvL0q0s9XvqGrsVH0d4lk8nFuwZZ2jrou29ha09OXlXle9DGBdTr5e/owIpplJWZTn3eGM8E0eYUErRLX/5mOx3GvkcVnD2oTufBtH/ZVClqYmZB6Oc/r/WhCi6e1OPFb+ilqXto/MiGN2tK8oZ8PJm8/HXlrsVF3lDeqWJVMreyJQc+X1Ce3UtRiq4INMHa3f3DdswUwAYv/+qeXjBcSk1gRnH8CLHA8uh/+jPLgAllpmbSwtdXEQhcIU/OGapnOwBzN3juSiJPzx9G4LULWnZKivf+vBNFBcfITXjor73IvlIFCmeGdFNemNmlqqNcBn8yYzikbr8AavZ4fd4rR2e2XKCN43dK+q0+urzdhnyaV+JzyqXz2y8VKO7IC1MLgwETsYIzb9a4JbIAdcsnGpKLnzO5+jnRlROR5FTFnl1upgSm9qRIXvyaF48eMaEPL1BtzKzlGTT/lZV0jemJII9NHcgcfeayv3vqITqy+KTs46Pvl52lvbp9A8iI2RtiL8TR/NdWyQOGvlAxO6AaEtzZHZzKff13zEJ9SbDFwx2GsYwPTaR5Ly8XKqL+33Ul1+pOUu7ZpSNlG8aLcC//eKPsgxi3D49BeWMjusY0SWBwN1ycW3+Am+y4cPsDvu3KrBCrKfp8HI1bNIKWfbiewo/pfuRwb6/8dKOQ36IZE0tjGrcEnoNyFMpMGCs+3aRvvdv7bcm7cUX5/e+YtJ+OrQqWvK7vtqEqTb1kYfHzOy5RvQE6dvl/Rs6jamzdgBwYngUbJhXOycyhGU8tYu5E3ULhVVtUpo5vtBRsYi7G04LXVgre/h2rUtsXm0r7HV5pQe1fbk4gMJ79nI6dHnyNo/7uJ6TD15lfcQofKyNFx2cI8uIhv/diV7+O7xC/DZD73kpwDL/2PlIMFtmGH3boq4C0ePDPPWVRc3hLdk85qP+d6AvxTsPBtWnt11v0SS7VGP/vCz5Ugl8R7B2QBoNq6SitGO+rp6Np8dtrJB2UVp3fai3sIT6MEUAHobF2HqbMZjJiUj+ysDVn0uJsWvzWGooJiZe6+Og3eDg1a9maNqxZSetWLden381ORmoyXYuLouDd68i7djNqNuAZUXQ3axNlWw55kZ75cz1Nf2eIKJnfxra8WRV9HhSirbM77VrwB1Vv0lGv6LQC6EvclRD6/cmW9PrsIGo78nXaMuMHLbvIrXOl6vTTY01o0HsTisy/n4nKdVkEupcOhNHE/jMpjBnGQZGDffxrT5ojJvalGKa++WfEXN7GMfVOG30rfw+dQ3+yNVeY101foJgd3FDxg9YEJKvljHTf57y4nA4vPEle9TzI2smSlr6/njb9pHsqA/t4s8fq04JXV9L0sQvJlxVXra7VtWaK3fp3qkq+LSrRsg/W0bwXV4jCMywMmiAwlUNZpzKf3qA82h700c7ThlZ8vEEYyXf8tZ8JbDPYfdhQXLtDf+vFuF2lKaPmUTKzkoN+SJN/H18g2Fxnbj7Dc0U+zrcB36gWv7uWleMKcqziwAwQzlrVm26rM5fg2q+30tQR80TRQmlCKrhZEx4YtjHj+8QB7GLhedYOr+p+6LipYUwh2vhqiqU84w5aI1AoTWNMwXqBG/7tiLOPIw36sbvcVMH9B4GC0Ih75TvG18AfDub5Oc8vkwenSvyw1Xh4HanX8qlGzCfozgplPoEuqdWzjdm9p/vprvlqKy16Y40wbdTq4cc4bKNVn2+WBzBgbM1zhsGbLtKEftOZ0T6Lev9Phw0eULqwklz/3XaaNHCm0E21GddEjndqwzk9Nlv/2CP7c17Iv2EP+aUnJTDbx4S+0+nEmrP0xJxhUg8f/b7uQuFHrtIf/BAGZnoojJLIpp93ybVxdstFPcGwVq/f111lXP8aPJvWfrWFWj7diPAwaihOPvZCb3VhT6g+OYq5GvFbxP/UUfPlNxm86YLku/HDWlP+3Sz7YD1NHjaHrzc76pU3N4gxAssIuCcnsPchhh9S8HvQZMyMIaL4/+gznY6vDKZBP/eg8ga/XSsrKxlXaxsbrUqJtjk52fygkcv9zJb/4irZsiWVkqi7plDGysGZHDy85d/a3qVAtSlseZlaWtNTv66mgyunU2Z6aoH84r64Va3Nv/tYOr1rLbn61OTrreh5cNwTr5w9SpVq3nr64LcnWjH7iu4hq6jj4rzx0J2bkyP/RZW50zRl0RWJXDkGmkeQRxFPrIWVFp6W8TQH2ptz20OoyT2e5ymyS5yIi2rm00sK8ML5tfNhap54tp4yRTGe3RpCHoFudJz59qCQrRwtbmhuxUcbRUkFb76gty5OrTvHyq6ylIW1ls1Pqvtm6TjvNv64k4azlabNnZxj6w8URKARws3MzqMCudZwkv79M3yu3CQQWHF+1yWq06fk81VgTo8+Fyd9SGbrEBZXxMmoG/pfOOHywSvSH6TDmoVigNhygAeszFB+YAGtEm5K4OCD8O8JfPCyX3h88R0PLJZ25kKdFMrtwzooqSDYqBErqXXfbqOQ/WElrUYn156VGygqHF16ipzZcofg2AfnHRNPQSrzJGay9RTQuTodXXFa8rUPWGSgmyosIPnFtbP51z3UipUExJEVXdzlRIo6F8tWtgUrrDMEa3oLKzaIhgm22j7SYT3beVagbX/u44cuK7bKT0jwB/Q1jpEUk8K8inYydtsn7uOHoHwXHOrfibgHOItCwjV5kS0yWGUeAa506UC4vrnOb7YmXM9FCaizMF0QvOG8XK8oU7unH1to8RR+XGddr/pkE7VnjklD2fz7bv79XycoYU3RgdoK/9v+3Evgfjy1/izzUtYiex5zzeKbMeUvMvp3MuWw0rodGT+igRQ/tmXJDdV8G7QhC2s7qhzYlNyqBtK8T8boy9TpOIjn6XrKd2O2xDJSkvV5udyHtMQ4sqzgQDvn/S7peAB6YfIOseT1BfN2/n6xO6UmxVPnpz+i8OBDPJ5X+GLIpZptelPQ+vmFi8v3xKhQqhjQiDB3WLNt/gOBVvjQyhm0I+/YWlpR28mv6Oqe2buhqOy7SlOK7jbhww+6zxedybmaIyVFXJOL/jabKL44t60JjlNYQJoK5WIoFnyTwo+s+wft9cmRZ6JlH9aWCbsBCwvaMeHI0KSr+T+Ia+zy0wTRoXARaZKZmiW7WjRhLit/vaBYOV1Z9BkBLegPFBWOcTuSZsAHiB9oSQWuRU3A1adZi6YWpsI1aIgNzhn5huen1dW2uDEOn9CXjNmSg9sWZLhQLiWVqq29mS8wi+qw4rhpYEShQU5kfkJNwBno6G0vX0H8W6t7dX0AU3JUCrt3CwZsYF6qKCUHnkQoIIgh3yDczbauVgWuG3AOoktaeV2tgp9G7JKExdv6uSaUm8ezCO8GOA1xzis/3kAIyIHrHwr0ECvo3dPufg400eBahbI3tc6/tmBxgzh4Piv6woLzacduUeCwdcJefTaUdEJYPt6Z/LvCeGuSy9d/doYumMxQWWvXVsfX8z0VOH8tXat/u0pOq1fc1sbRnVx9sykqJJjWTfqMoi+f1RfdNe8POrBqhnyv03EgNen7pD6vcq0mZGXnRKnJ8TT006k0473hcu2v/uNDtkJvdOhlpF6TuvaulQj/1ZvoPAB+TToVq+g8qteh2Mvn6NimhRR6cr/+2NpObHjRDyBa/oPY5o/sgzhaGTgGflSebDHNHLeUfyiJfAPyYz+/zsV0N6eHeRS4ISFwseEmh3kDQ8lkF2FhSWCllcTzaXNfWi5ZUDLa/dPwibdwPVg6cA9qgjkpTSJ47k3nStVZPmBfx9M0WNdvJlaOVuJunP4kz9fxjakRR+3V7Fb9ZlVKnAfce3zUgS28SNo740iBep413fTKy69DVT2ZbVpSuswdwdLBjQ6h/3gKL6zkbJwtKTk6X9FXauBJtuz2nDxsrigHPNiAuNZQ4Ppr/1JzmUO9fIifeg0ELs8gtsjGTB9Evs04kGD3JdEesIxwg4WYM7s8iHINpUoTLzq86AQ/OJBcY1pQRTorsctsvexmZnuIR4CLkAEb1r3d+cM0dkenJfEcKmMDFx3OF+doqOTQX1jChoKbP+alNv20kyJ5DhniWdtVlBxu9s6+jmzJbpeAELiim46uJ+5/jWAYr7HAtXycXZ4nVp8xbLrYffQP84mHFp6QcXat7kjBG8/ryzcf04DJhFNveAhEgZrd/Mi7UUWa9ezSAuOO+eVaPWvo23Bj70H6La5vFIaFB9ny226KPBMjv1W42A0fUrx9fGnAkJE069+/KeJKvtUpFe/w48i6OXRw1czbqm1kbEK9X/+Rts/+hY5uXkjPT9pKVeq2pItHdtC5/ZuKbcvNtyZlczDM3y91lzIV/etTt+e/5OjLG71Djp5VOGClIm3+9zuKunRG/ott+D/MUIruNsHHDRP/nXkS/+qpaLmRZ6Tku2cwwS1PvWwVNOQbPX4YR5eflhtmHX6/x4xvbmDvRmABLIXzuy5TLE9kH2O3Wv2BNUWZyNwU3+w0wY/cM9BV6tUfUIsnvuMI7jrIaZ5zaMyuUwQrgLG8Nh9j+8T94pbS6he1Pb/zkricen7cgW8QWVSpvgelJ+nOA9YE5t2G/d6HLnD/Avv409ntIQVugkW1mZWWyW6uXOr0ekuZuwzoUk1uplpZBM3gHUMwqVdmZQJrM4wDbK7kuY+0ckVtgRUwcOCgnMKKzooVVY+P2lNKTCoFdK1G2zlYAxLLbOvl+aGhHweEhB2KkLwQVhhXTuS7Q6FEBo3vScEcxBPLLuDTfANF4AWUYXuel8tgK9OjJisWnm80FLiMYdUHdKlOhRUdlEFqfBrtn32UOr7ZksJGR4gLL/TwFWrxVENx7SEMHgrNUJyqOvCcZmu5eWI8Vn6muxmdWn+OOvFcJywOPATV5GNO5flOCAKT/Dv5SoAUrg3c8Itz4RkeCwExcL0j4OYqu4dr8vwe5q8MsTmz9SLVH1xLHhDiQhNEeaONy/vDxatxmBVPRX7og6t7gsx3XhfrCWXQZ8ydxnEAkOFrNj5NK5ETK8NGwywLKDofDqjBgx7yYDFifhLKA+eyi4NPmo9tSBZ27L3g8ce8o+FcnG/Lyjx3t5W1EI6cL3b8gNaGLc8I/p3W4WsYksD9OcVjjN8kFHH3D9rJ2OIa3zn5QH7lYvagsPHbwdxv0JKT8kBi72VH059YqK/RvU9/cvXwoK69+9KUCb/r0x/0Trfn/se/7VTat3wKX8+5dGDlNOr+/Oc08bnOosiK609XrhdzOZgjO3UP2hcObZNL1bdhO0qM0inuLvwKgI29M7mzNRd2+hCdO7CluOb06R3GvMNja8KRo/UoI+0adXryQ3aTxrJL9Q99mfu1Y2Tv5PrJ/Wr8YW8XT6gINknOixrE+eAGiOg2zN/AjbhvZhBH5aXq55IQNICbEW4emNRGG3Al4ubnUdNV5llwQ4V1hLx4voEgCg6BL1CKiFo8ty2ELu0Ll7Bu3GAxR5PFbiH0BUoiLTGD3VSJAi/ciud2hPDL3jZyI8TNB5GXtxJEQl7hm525rZm4GWFJwN2oWZHHOarPiANELFjBnOSnb9y0RficEiOS5CaEABIoKTxxw52GJ9xLPH8CdyrcPQjkwXHwQADBk78xK7cIVjTXWCnh/HFMWJfAKuZCrGCJsoiSRF/gOoTgPHMyc+UGCkWkCerh6R4KCTfuo8tPyVwX8mHlBG84xyHbZtInuBH3zzpSQGGjPMbUhCNoYUHJfCdbOlFndHNXcOchOhQWKs5PE5TL5vGH5WboEkRQAurimrly/KqcL/qIPl9iBYGHILj5Ds47KlGgkXyOuI64CO1nSxX44GFh36yjegWKuR9E4GJuDBjs+Hu/1EVfbF1t5MYP6wrXBiIrMe8GgXWWyopP/yDBCVl8HQJXWOhnWIlYsvLAfDMU/CEOPjJUFpf2h/J1miF9Av6aBXdu5yV25Wbq5qX4IW31F5vl4Q91gzee43M0locyeAa2/L5Hb2GjT4hOhH7HnCOuAU0cKttLoBVwwrWNawPuYlzzOC4iZm05ojOJo5vhkteinKuykqvGCnX7hH0F5hLRLrAEHhhDOS/uXzqPrYwdnz+uByhPPEAcnHss30rkcll8vlp07PU8MxdBVhDMSwMPO3aXxoYk0KZfdhWYiww+dYLD+TNp5dJFrFBK7vKWxov4KFeuPEVdPEXJHOlYWHDdhJ46IBGZurzrEkSCABHHir606Z+vCBGbkLBTB/nas6C05ARKSci/lnX18j+t7Z04onMKpeYFvORkZ7NCipPv8RGX+JwyOCYggWJCz4mVCYuxJOLOAS452RmiGK+eP87XBXtcriVKMEtJ6t9NmXI+foE8rEoUAgoBhcDDhwCUDdza0awQlSgEikNAuS6LQ0alKwQUAqUegQQOPlKiELgVAjeG3dyqhspXCCgEFAIKAYXAQ4SAUnQP0WCprioEFAIKAYXA7SOgFN3tY6ZqKAQUAgoBhcBDhIBSdA/RYKmuKgQUAgoBhcDtI6AU3e1jpmooBBQCCgGFwEOEgFJ0D9Fgqa4qBBQCCgGFwO0joBTd7WOmaigEFAIKAYXAQ4SAUnQP0WCprioEFAIKAYXA7SNQql4YB6GpEy80HH5Mt9ROSU6nyYi6QpMBri/I7z2nlaSaKqMQUAgoBBQCjwgCpcqic2UyxD5fdLot6PfOPEJ/MvP3lt90PFq3VVkVVggoBBQCCoEyj8A9t+hAuNnyyUZkV9FWVlLfM/UwGXJJgYkaFDSgUNnHi9hq9BYdXmkunFJYzLXLO20E+D1MS4J8LFxaj1dmx6LI2Zm8kC6vGo4VyUsiYBLGyuSgRMEiswd4MVmNpqUhr17uyYswg8/sPJOJujP9iUaFgrY7d+9FDRs3o7/++Jmio3QEjSU5piqjEFAIKAQUAqUHgXtq0UEh9WdKFI9aLsLmbM38ZAN+6EYgsoR0Y0JGMPsGbzov3Fd9mJdKkxBerV9jk77Iq4PjHyvSQ/za+wpj88V9oaykiHr9r5Oe7VqrX9QWNB19v+kiK5af5RX9QYT5//auAryKo2u/xN2IKxIIFtzd3d21tLS0pe7efv3br+60hVLcKU6LFyihuDuEECOBKHHjP2cue3PjgeajSTjzPPfu7NjOvnvvvnvOzM7Lch8c6vbwRyvSygohBejY4Hj0e7urktwwbKdWQF0/vNwjAABAAElEQVQ4VK0KDy9vw2SJCwKCgCAgCFQgBMrUomOtNbbWlsxYq9SOQ46Eo063miTiaaRkPP4ieZFdJFjIUhlhJyMx/ueheqiu7A9Rgo5NhzcA62AZBm5nyWNrlfQJE6B/h5FKBoS1rooLHvXclNTNnrvKwizT0OmJ1tg/9xCaDK2vtOCOk3XIwYEES6uSgKlhWPjLj3B2cUVIcMmyN4b1JC4ICAKCgCBQfhAoU6Jjy43dgnFhuhXFWZOM9bq0UL2NL5qNCiSRSHOSca+SR6dKK1PY1tHLDn1IINHMykyJMqoybD6WEOypnqZnxkVZB87E3FjpdrGLNcJg0gvrguUnusSEBPBHgiAgCAgCgkDFRaBMXZcswMljbHauNgoRFoIMJLl61ovi0JJmSO76+gB+HLIIv05apdIK+8rPYYM/6qUUtX8athjzi6mXvy1W3La0t9AnOxDxsaglizGykKlXoLs+j5Wa8wdvH1+MnjAFpmZm+bNkXxAQBAQBQaCCIFCmRJdKY2q3byZhCI2LeTf2UON17ae3IKXnbAVHDilos3w9z66c8NPgAhDFXY9Xad2faw+Puq76sb0cUor2aeKh0vq93S1PPVaPZkvMzk1Hrhx3pIkwHG5cuEnHckbHGa3g3dADXWjCy8XdwUp5+eSG86jR1hctxzZWn/p9a+dpl3eGjZmApi1bqwkpBTIlQRAQBAQBQaBCIGDs6Oz2Tln29MzvF1G9pQ8a9AsAW3grn9mI9GSdnPw1mkzSiGZA1upYDfvmHoGrv1Me1ybL08fRuFu9HrVoAkoNNVEkNSFNlQmk9mp2qIbzO67AyccBZ/+4qOTrGw+ph06Pt4ZLTSdkpWWpMcHqrXxwatMFcN3rNL7XeFA9BHSrgQtUd/d3utcQbl6OUZZd4IA65EaFKu9EJHlu62U9HNmZmfDw9sGGNSuQmZGhT5eIICAICAKCQMVBoEqNgIY8R+OhCz2eb4+a7fywmCbOgBAY+VV/XN4Xgj+/l/fxHrofg5ywICAIVGoEHlqi43HAYZ/2hZ2HDe5k3cEtmqiy8e3tzHkSBAFBQBAQBCoRAg8t0VWiayinIggIAoKAIFAMAmU6GaWY40iWICAICAKCgCDwryAgRPevwC4HFQQEAUFAEHhQCAjRPSik5TiCgCAgCAgC/woCQnT/CuxyUEFAEBAEBIEHhYAQ3YNCWo4jCAgCgoAg8K8gIET3r8AuBxUEBAFBQBB4UAgI0T0opOU4goAgIAgIAv8KAmWqXvCvnIEcVCFgROuY5eSQWF8pQ42mHTD0pW/1pT8b24SUJ0pfX19RIoKAICAIlHMExKIr5xeoNN2zd/XCs4uPlqaovszVo3vx6ehGWPHBdH2aRAQBQUAQqIwIVGqLjjXnrBwt1XUzMadTvUNaebRodDYtNs3BgpQPbFysVZxlexJI1oeDvbutEotlmSHWs7N2ojZozbBbV2NVfhV6POCFpasYU4TajA9PzKOt5+bmjjGTpuHXn39AfJyujqpYwpejuy9qt+6hjnV+32Yk3IzQ13DyrIbqjdshLSkBV47sQVqyTvOvRtOOcHT3oe5VQd22vVX5qOBziI0MUXELa1v4NmgFJsPgY/twK+yKvs3iIiamZvCq0xTedZvi0sGduBlygU5Vt0Aat1mtYRtYOTjj4t/b4BfYBmf+XF9cc5InCAgCgsC/hkClJjrPQDf0ea2zIqv4iNvwqOeKkyQEGzT/KPMWpi4eSeQVpzTqWM5n5bObEX3pFjo+0QputZ1JdSFDyf9EX4pR6giLSeWcybDtlOao16sWwk7coHRHJFDb697Ypr+Iw8dNhCdp2Q0fOwFzvvtKn15cxMmrGqZ8thZh547AzNIa7UY8gfkvDkNMeDDqtu+LvjP/g7DzR2Fb1Q09H3sXX4xrppqrR3m2VXW6eg26DFFpd+7kKKJj8pv+7R9IiA4j9fYUdBz3LJa/PQVhF44V1xWV9+j3W5GZloL4qFA06zseZ/ZswI5f/o+Eb40x4aPlpDtojJiwq+g49hkYm5oL0ZWIqBQQBASBfwuBck90RnSzDmzStAA+WVnZOHPyeIH0/AlZ6dlYMmOdsrhaT2qK2h2r6YiO1NB3fLkfF3aShUOkN/nX4ajdqboiOm7jyLKTiDgTheFf9MPaV//AhLlDle5d0s1ksDTQmhe3IPLcTdi6WmPiL8Ng42yFpFsp6vBLfp2DHn0HYNNvRYvL5u/n4Oe+RPTVs1j+7jRlnfV/+mN41GqoiC7+RihWvPcIQokEjUxM8cyCv/XVN379irLWpn+9GSv/85g+nSNMRjt/+RBn/9qsxt8e/WYLGnYfViLRWdo6wNzSBt9P76za86nfAkNe/Ao7530ED/9A2Lt44fvHuiAlIRaufgGY8PEKVU6+BAFBQBAojwiUe6Jj92Dr9p0KYJeellYqokuMStK7FVlx3MTCVLXFYq6sOD5l4QjlwjQi4uOPFlIT08lNmK52WTj2To7ObaeV6ftWV62o2tqSqrpGdHGxsVixaH6e/JJ27Mi1uG/Z16oYuwg3fPWSvko6uSmbjZyJQS98CXMrGyLC3H7qCxUSycnOgp2LJx4jq87SzoGEbM1gfOVUISXzJvk2aEnu3Vz9vXhyg5pZWMPKzgkOrt5IT01SJMe1osmlKUEQEAQEgfKMQLknumyy3H78+vP7x1DHTwXq1+nmj+ajArH6hS2IDYnDkP/2KVCmsARtnGrVs5uQTkKxWshIyiUGU1MTNG3RGocO7C/1TMisjDQ40FibFlx8a1P7t5F4KxI9pr+lxuQWvjoKyfExeGrefq1Yni27KrX+cUZAqx5oRwS57N0piA4+jxFv/JSnfFE7STHRecjU1MKK2s1BBrk/M9KSlbVnTJZldlYmuTLL/U+oqNOUdEFAEHhIECidaVAJwVATTOi8crJz4NPYE87VHUt1lmzdsXJ55yfb0NiUMWq28cW42YNh6WChrz/p0ScwbMwEjJv8iD6tpMjR35cgsOtQeNYKRO1W3ckduFxN+OB6PGbHY2NMLl0nvQTjfOSSkZqsmu84dhacPPyovJXat7J3Ulu27DxrN1ZuR5VAX9yWjaOLstI4zcbRVe1zPPzicZiYW6DFgElkEXqg86QXyYV6lcbsUmkM8SiRdzY6T3yB2muAse/dm+XK7UsQBAQBQeBBIlC5iY7cjYYWDpMafzgcX3sG8WGJGEFjcG2mNkP4qRt664vdlFwvJ5vMQbYI6cPxHJqtSYYNVj23WU1SmTx/ONo/2hJ/zT2M5NhU1S5/HQ4KImsnCweD9unTSorsX/kDLh7YhrHvL8KAZz/Fye0rcWrXb6ran4s+g0+9Fpj6+XpFQIZuRS6Qejse2+Z+QONvIzD1i/Vo2G24qndy52rwDMyx7y1Erxnv4OrxfXQe2SqPZ03O+GE7eCyQw2Pf/aH2jU10Ftqaj2aief9JePSb32Fl64Q1/zdTlUulWZ+bvn4ZtVp2w6i35tKsy+0qXb4EAUFAECivCDz0wqsm9ApBVobu5n+vF8nE3BjZVPfurPs81cmLWGh6nkKF7OiIpopyCxpmV6EXwvmlcCbQ4kJ+9yWX5VcFsjJzXavF1c+fZ2xKLsrMXBetvasnBj3/JdZ99iwSb4YT4fUgYv4En41unL+q7AsCgoAgUC4QeOgHWO6X5Pjq8YzOokJh5FdUWcP0ooiMVy3JLsXKJYYWrNbu/ZIc1zckOd5PiI4gCzIO08hyzEhPVZNjVn/4OGdJEAQEAUGgXCLw0Ft05fKqVIBOsZXILyPy+J/mDq0A3ZYuCgKCwEOIwENv0T2E17xMTvmfWIll0gFpRBAQBASBUiJQuSejlBIEKSYICAKCgCBQeREQoqu811bOTBAQBAQBQYAQEKKTn4EgIAgIAoJApUZAiK5SX145OUFAEBAEBAEhOvkNCAKCgCAgCFRqBIToKsnlZfUE11rOleRs5DQEAUFAECg7BOT1grLD8n/akr0HCag29UQGLSQdfOA6MlLzrpDS+9XOcK7hhB+HLVLLlP3Tzvg09sjTBAvQxpJobWmCZ31XuAW44HZ0Eq4GXVfLp3G9Xq90wo4v9hX7on1p2jcsY2btADuvAMMkJIaeI3wSVRovOu1WvxMsHNxx4+R2pMZH5SkrO4KAIFD5EXjoiW7yguH4dWLpdeP+jZ9E/d610fHxVnTzzqAFm01pzc3WmD95FdJu5y7rtfOr/aT4bVEmJMfn2PuNLvw+OExJmT0jLQuX/wzGrm+CSjz9fiRfVK2ltxK7ZXX326Tft2zmeloQOgs+TTxocWp2IhS9okyJB8hXwLVeBzQc8x6Rae4yZUfnPY/os3tpyTRjtHl6Pmw8aiLjdgwC+s9C0FcTkBAu0kL5YJRdQaBSI/BQEJ1nAzfwTTf0WATS78rpsHqBmZUprJ2s4Ohtpy5yRmom3aBzF2fmOqw8HnI4XC3ozIX45l+1mk4VgC0WS3sLZWlFnI0mtfJY1Y45tetOVk30xRildKAS737xcatWcyR18kg4eNopxfJsWixaC6yCnpWehZtXdG1xev0+tXFw8XEcXXkKVYyrYOqiUaSe0Ba//99uOgcTWmBa1//b0ToVA60tI6MqcPLLq8qQmZapjqmVsXO3gaOXvcImhxaz1sLPw5eohatHftUfc0Yv05LV1pn6H3M9nlTYq8KU9P1Cj0eqdLY6meRWkVJ7FCm187mO/2kIqUN44OqBUH0bXN/EwgQ3zt/Up2mRLj16ITI8HOfPntaSit1aOnni1oUgHPzxiQLl7H3rwc6zNna+24uueyxaPPot6g5+EQe+e6RAWUkQBASByotApSY6IyKFcXSjtXWxJpdfBkytzLD2lT8QSaTEbjQmFQ5jSWaHQ9ixSKx7c5uKD3ivuyIwJbhK5Lbji79IjfwqeBHo/u90hXVVK6Uw7l7HRZHfibVnsY+IrsdLHZWKuWqEvo6sOIUDC46p3a6z2qJuD3+ljJBNwq/GpkZY9sR65RJkQdfpK8aQxUMHo8CEu3D6Gtwh1QQmLK9AN0V0OVl3yAJdqcrwV/XWvmTttVb1Yol8Vj6zSZ/n6GOPUd/01+9z5NaVOCyftYHUx4Hhn/WDi78TWIS2Ch1jKVle8eE6l1+eSgY73OdR3w5QDwz8oMD10kmkds7Y5XDydUDijSRFclyFFR12fRuERHog0MKobwYoVXZefJqFahdMWaVf/LpajZroO3AoiUXcwZsvzEJ6uk74Vqtb2NbKyQspMWFwD+wMM5uquH5gtU5xggpX9W+J+OunFMlZ2LvCwa8hPRjYKZX2HNLSkyAICAIPBwKVmuisHCyVVbL8qQ24FRyHgM41YMQmGYU1L/2utjM3TsR3/ReouPbF5MXjYfMnrUISjU3V6VoT3Z9rr4gukxZy/pXSmRxZw27e+BVIS0zTquI2KZovnLYGrGzeekJj1OsToIiO3YpMchvf2aEsRLYUh3/WV1+vFxFkMrn5Fj22VpHH1EUj0IBclqc2XcDfi46j75td8Pi6CUiJT1OW3I1zOmuIyZc//u390GR4A317HIkJidefW402Puj5YkesfE5HhN6BHmAi/HHoYlq4OYfyOqDLU23wGz0IlCbsJjfm5b9IeZxcqdNXjlFV7FzpgYKsYg5mliYwtzFD5JkowifXxRp2NBK7vgsiS9AEj64ai4AuNXF+5xVV5/q1q4i6EYmw69dKRXLqOCQh5FKnHXzbDFc6eQ1GvIFd7/WisbhoWLv4ISMpDk7Vm6D1k3Nx69JBuAS0oYcVS2QI0SnM5UsQeBgQqNRElxyXiiRy57EVwcSzn3TjIs6WPBmBCSyWSIJJjgPfiLs+01ZZboaqBJf3BBdwTZ7aeA6diTDcaTKGha05jaPprBJLIl3Ws2M3KIeoC7fyjLH5tfAmS8MIE+YOVfkWdhbkGnRWRBf8d6girOotfdDukeYY9kkfHF52UhGgKlzClyX1o8/rXbBkxloay9K5SR287RXZaNYsu2nZWuXnAMNzLKppdk1y0IiN4+z4vPscgeajGyGwfwCMqc3DS0/i4JITXAT7fz2itjxmd+PCTbjVddYTHbtOP/3POyq/tF+3zgch6uROsuTWqCrtn1+KFjN+xJ6PhpCkUTq8GvSHW2BXnFn5AVl3pxXRsVq6BEFAEHh4EKjURMdux/lTV8OJLJdmoxoqt+JpspD2/Xyo2CvM7kG+QWtB3bx1hqCWpLZxJNxqGNgdOGHuMFzYcVW5EG1crBTBcBmWz2EiY9ekEnSl9oxNchvlvnLfTqw/q29SjSdSER7L4/HA4IOh6jPko15EJA1LRXTsapy0cASN8Z2AYX+Z8GLIyt3yf7v1x9MJzup3i4/kDufpy8XRwwFbcRz2zzuiPkM/7k0TZHILsyWXnqyz8MxofI9ds4bB2toaWaS5Vxq3JdeLOr0LGcnx+iaC/1yIeoNfUvvJ0dfIOjamMblpiLl8GD4tBtB1ILmjjFwLXF9RIoKAIFBpEeApcJU2MMGN/WGQIpbdNFYUeSYaDl66iRuGJ91oUF01MYUtGg5RF2+CJ1Z4N3RXVk/7R1ooK0ezdIwVYelIi+OaFWNuY07kZYQzv1+gcaF0tJ3cXH+YJHJLMtm1IEvH0s4cTYbUhym5/bTAJBbQtYYa70qn2ZSdnmhN+zWVmcQWnFaPiYRdsjcvx6iqTK4sAGtsaqzcsrq47rJyv0Z/M5BmGSbiBCmqszuR8zkkRCTCqZoDWXEmSKGxtLo9apHV2k7l8Rf3kS1SUBscZ4IqKcTScWycrRHYrw7MrU3hUtMJbuQGjiDctdDn9c6KDHlCipOfA0LJlakFZxcXvP3R53jn4y9gbJz7oKHlF7ZtMPx1tJwxm7C0pTFYO9Qf+irirp1URW9dOKCI7Q5JCZlYWMOv41iEH95Av4e8r2YU1q6kCQKCQOVBoOS7VwU+14Qbt5FKEyXG/aSbbJJG8Q1vb89zRifXn0PriU3RfnoLuulGYP1b29XY1tGVp9Hv7W6KGLiNlbM2qnpsIc34bbyKt57UFPzZ+O5OhBwKo7GodJpNeQMjvuinrJhgmmlo72WryvL7bzu/3K+O02xUoCKqTJpdqYWtH++hcb9BmLZstEriiSUXdujGrvbM/ptmWbYhqzRQ5fEkjlXP68bamFQ6PNZSawaPrR4HrruUJrnwC+QOd2eUTl85VpWJuRaHZU9uQNjJG7i8NwSjvu6vxgTZxbrpvV36dqYuGZUnfnH3VWz7dJ8ia11GXkuM0/hdu6B5R9FuenOaINOSxszu4Mq+ECK6G/q2EumaTFvKbVdRszWZ4LWQnZ1Nllwa0lLYZVywfa2c4fbUyvdp/G0eeny4l1qsguRb13Fk7ixV5PaNKwgNWo3WT82jhxEjpNE7dIc3Pm1YXeKCgCDwECDwUAivsiVjRjMuk2NTlGVW2HVla66A2vhdayY1QTfOVli9wtL4lQMmDnbZsVXFliC332hwPbrxX8PtW8lkJVkoN+eiR9aod820dtgS4kraaxBaOs+8ZNLidlPiys71xsTNlhvPkCyrwO5ZJx8HxEcmFvpyOM/UZDx4nC5/0PDKn17SvqWjB7kkU8iNWfCldp5paWrtSJN9QkpqRvIFAUGgEiLwUBBdebhufAMf+EFPuNdxJmsullYxcUQoWX9/fLhbWT7loY/SB0FAEBAEKiMCQnQP8Koy2fHSWGzx8YohMddiy2wlkwd4GnIoQUAQEAQqFAKVeoyuvF0JdmEWthpIeeun9EcQEAQEgcqEQKWedVmZLpSciyAgCAgCgsD9ISBEd3+4SS1BQBAQBASBCoKAEF0FuVDSTUFAEBAEBIH7Q0CI7v5wk1qCgCAgCAgCFQQBIboKcqGkm4KAICAICAL3h4AQ3f3hJrUEAUFAEBAEKggC8npBKS4Ur+Lh6l+VlA9y12wsrhpL8rBaAcv3lHbFEV77kfXdOLAiAMsKSRAEBAFBQBD45wgI0ZUCQxtnKwz5b2+9tltxVVqNa4zmYxqqFfrNrc1ogeeL2P3tgeKqqDzfFl6oSmrgLM3Dy3yten5ziXVKW2DQf3pg3es6QdnS1pFygoAgIAhUFgQqteuSlQQsaLV/XlvRkfTXeBX+/MGC0lipoLDAKuKs01ZY4PUcWbjU1CJ3lX1eN7LJiAZKXHXOqGVYRSKn9XrVznNcXh2FFRTUmpYGDfMi0ts+3QvWnisq2LnbkHKBRYFsbpNFT7k/fM5aYMUBPmeP+m5qy/H8x+U0bpfbyA131Hlr585yQywUq1mcXI7VBeo1CISJiTwr5eImMUFAECiPCFTqu5RPM090pJX9WQfO2slKrby/6R1SGjiiEz8d+F53+JCSOK9Ywgs+r3lxC+m+JYMXUO7zRhdUa+mtrtm1Q7ry2gXk9SoHfdiLyIHWyyfC2/vDQZzecgFmZMEx0bAKOIeoizFY9ewmckXqFi9mXbmhZBma2zL5GuH4mjNQQqQlLNTPZMQWpb27rTqXkINh2PjeTnUMdqsOoPPwbOCm9nlpMVZPZ1mg7s93ACuLc9DUCGKuxZN6wXrVz16vdEL11rp8drGupL6yAoGVoxXG/ThYERsLvLL2HYedX+3HuW2XVXzoqHFo0aYdTp84hgVzZqs0+RIEBAFBoDwikPv4Xx57VwZ9Yn20HZ//hR8GLSQpnXC0mthYtVqzra8iufmTV+HHIYsQdz0B3Z9rr/J8ifz8yJXI7sPZgxeplfa1rrD+25CP+5C+21nMpnrb/rsHHZ9oqbTeUongokknjmV6BrzbnRS269B6lnHIzsxW1buQ8ng4yeP8OGQxVpDsT6PBdWHnYq01XeS2zeRmSCd35s8jl2LehBXwbuJBFpyNKs9ExbpyC6asxtwxy5FFigCNSSWBw5YPd+H7AQtIaTtHbTm+/Kn1unqtfOAZ6IaFpJ7A588K7L1e7qjyUkiZfe6YZSregGSA1r7yB36duBJX94eoNP66fPE8tZuF82dO6dMkIggIAoJAeUSg0hNdHImBhh6PVOKrrBnHxMehTnd/RJyOAmu7MREcWHCUXHg6F6YTjZVFkzUWdeGWyjNUJDcxNVEq4SyA2uHRlsqSYsuOXaMcVj23GZvf34VMmlDScUZLTCZ1b7a62H3qXt+VrDlztCMh17p0fD4uu0dLClVJ6SArPRtMeM1GNFQWaN2e/qqaTxNPxJKVxpYcj+2xVfb3omO6JslSZGuVA2+1D++713PF9cMRSLyRhKzMHBxdcQoelMYuWcNwaMkJhBNObPGlJ2fqs44dPojXnpuJg0F/6dMkIggIAoJAeUSgUrsuGfAcuolrISeb7/q6GzkrazN5aOEO5bEbkgNvmYS0kHPXIlP7d3kg+lKMlq1cemwRoYqu/WskJsofJsNHSEiVLbsT684ql2hsSDwJu+pmVO6dfRAJkbf17RQVMSI3J5e7FRyriuz54W/cuqqLs7K47rx0tQvTeCusXR5PzMnOPccsw3M0qBB6PMJgL29UI9G8qbInCAgCgkD5QqDSW3RFwX2ZBFC9G3vos+v3rk3CnMlqP56sQHeafGFpr5u8oo1RcWbOXQI0MjZS41XBQdfhS2OBJuYm8GvijSfWTyAhUzPVTkZKhtqy1cRkpMiQlLN5nOvc9kvKquJ6JQUeb7NystTVo7qeZHlpE0VYDcHxroo4t9P/nW5oN7V53iaJf6u30o03ahk3zt9SLlC2NDk06F1LuW8NSZPTNbcrxw1Dxy7d8cGnX6Nbr76GyRIXBAQBQaDcIVDyXbbcdblsOnR26yW0n94cj64aq8iLZxQuf3qDajz4wHU1KWXSr8NJdTyHxr1yXXZs6e35/gA6zWyN1pOaKIJjYkwi1XD+sOU1ZdFIZKRkUZ6xcideDQpR7bIF1+/trsptyhNkyJmIfT8eVHmDPugB55pONIvThCxKI0xbOopci+HY9tk+5VYd9e0APLJ8tJoAw33d9W2Qqndh5xV04PNYPVYpmptZmiJo3hGVp31FX7ypJtdkkOsxhizK317+XSmdtxrfGNNXjlHnz69CLHlinVYFUxaOVPGRX/ZXwrCLpq1R7/dpBdw8PWFmbg4vX18tSbaCgCAgCJRLBCq/8CobLOxR1EK+fSOTKrChGZmJNNsyf2DLLDsjG5nk4qRhOP14F5fjfX7vLT4ikcgw1wXKeVYkrOrZ0J3cl2HkHtXNuOR0LbAFxmNeGSm5BMoeVe6aYcjvGrRzs0EmkW5qQrphMRW3oLE/tkDjwhIL5HEC99eUSJBfRjfEw9TSRJFrSpxupqhWmcsbhvx94Tx+xSA7O++5G9aRuCAgCAgC5QGByk905QFl6YMgIAgIAoLAv4bAQztG968hLgcWBAQBQUAQeKAICNE9ULjlYIKAICAICAIPGgEhugeNuBxPEBAEBAFB4IEiIET3QOGWgwkCgoAgIAg8aASE6B404nI8QUAQEAQEgQeKgBDdA4VbDiYICAKCgCDwoBEQonvQiMvxBAFBQBAQBB4oAkJ0DxRuOZggIAgIAoLAg0ZAiK4UiJvRslysQFDawMtp8WLOfs3zri/JenQuNZzUh8uUp8CrwHD/HkSYumQker7QoUwOZUtqFNa0Dmh5CSziy2K/9xqcfBxoEXDTe61W6coP/aQPRnze777Pa+gnvdFybKP7ri8VKycCQnTFXNd6vWrh8XXjMZ3Ww3xszTi1jFYxxfVZrAnHS2vx2peGoefLHUjLrhdGft0f/h2qGWb963HWnRv8f70eSD9MLUyVrFBZHKwDSSGxfNH9hs60ZmlZhp4vdUTggLr33OTIb/qjYb97r3fPB7qHCixa7ELrrz7IwIumpybkXY7uXo7vUdcVx0jQuCKGmXP+RL0O/THg2U/Q98kP9acw9OVvwHnaZ8Azn+jzZszegcY9Ruj363cagIkfr1T7075Yhy6TXtTnmVvZqDZqteymTysuUqdNT1XezFInbcZl3f3r6/vB/ZkxeztMTEv/gOZbv4Wq3++p3PPT+jDxo2Xwb94Zw175Dt2mvKIll8lWiK4YGGuQOOvlPSH4rv8C9cm/3mP+9SC1prJJ/uaHQYuU6KqWxtsVszbhpxFLEXEm2jD5nuN83MKOXVhaSY2XVKeofMN0w7h2vMLStLwfhy5G0Pyj2m6BbXF1CxQ2SCiuXlF59fvUNmihYLSoegVLll1KUccsKt3wyFymsHKFpWn1isoLHFAHTn4OWrEC26LqccHi8go0ZJCw9tU/sPHdHQYpudGS2mxDi6yzLFdppaq0lotrV+XlW/e1dPWKqKRVLmRraeNApGFGIs429MklFzMiqANrfsJ3j3TC+s+fBxNVh7GzVAuWNvZUR6eywgkct7DW6Wru/PVjNOszHmYWOs3LkW/NQVLcTVw6WDi++bvUZfIr4D417TNOn2VkZKLSfn6yD1Z98ChJj5lg1sJD+vziIlO+WIsRb/5MHg/7POen1TG3toOxiRmYkE0tytZL89CqF2jgFrat1sJbqQxoebW7VFdRVuhmsrMlVfBxPw0Ga8Hxn+q3l37Hzbv6cNNXjFGLJ/MfZPbghaRrZ7iitNZiwe2M38bjAN38j5NyOQe2rqIu3ETQr0cx+ruBtIC0A8JPRcHCzlzFuQwTMB+n5bjG0KSEru6/jt8/+lMpGXCZooIRyfP0fasruVe91BrPwVTPMHiR+rhm4bFy+lJSNkhNTCelhBZKmdyZXLAsTMs3QlZcWDpzPVhrz9HHHqO/GQBWZ0inRatXP7dJv9D05AUjlLwQ93k/KSwcW5375D30496kzn4LbFkaU9240AQse3J9Hq09w/4Zxk0tjPEYqTew5BFbA79OWqWXU6rZzg+9XulIOFVRyhLLqU1epHv4533hVttZNTNz40S1DSOB3nVvbFNxv2Ze6jfAMkYp8alYNP03EtMtuEC3YT/yxxlbVqvgBxxWmmcJp3WvbUUYqcxzmDx/ODa8vUP/QGRV1RJaXyJO3cC617cp5QgWw+3/Tnf4kLI8h78XHMNhEsrl0PvVTuAHsmQSEL5GwsIN+gao9F/GLketTtXV74KtJBb4ZeWNZY+vQ/xdDcR6PWuh81OtFTaMN6t3ZBNRcHqXp9uodro/1x78YYWOxY+tVWnmNuYYT79/FhFmDcZF0367K0HFC507kMdiAAkN09rhOXfUf+MG/U5KCl2faYs63fzV7/nSnmvY+t89+iqsnTjmu0Gw96QbOP2dDi4+gUPLTujztUjDQfWw6b3cmzhfX77OhoEXWt/03k6V1HZyUzQZ3kDFb16JxernNyuMfEi+q/drnRF5Jgp+dC/gsOalLYg8e1PFrRwsMPbHwTCzMqPfWba6ppHndHlcYOT4SWjeqi3+3L4Vm9atVnXK6iv07GGc2rkGzftNwN4lXxXbbPCJ/Yi6dh4zftyBpW9NgrOPP76Z0q7YOlqmqbkFrOwcsWfJF6jdppciWi1P20Zdu4DvH+2M55ceR7fJL2MHEWtxwYh+FJ+Pa4bRb80trtj/JI9+jhLyI3DtUCh+GLhQKZMfXHxcxXlfWXR0kx7yUS+EHAnHzyOXqptWt2dzfzycxoSYX9Eg/zHuZX8ZkciRFafB5HMnJ4f+kFuw5cPdqgkXf2c0HlpfEdG8CStI8dwVgSVYKVyxbg9/eJPCwir6cy+mm7hXI3fVnvqic2SSY2X12YMXKcHXIf/to8+3JHWGNUTubqTZt+OLv8B6eSz5wwQ24N1uuPhnMOaMXoZbV2LQ7ZlcbH6duFJhw4oQhYV6PWtj5ayN6lzs3G3AbqjShOpt/LD+ze2YS8dkt+jg//RU1RzoxtjrlU7YRjfNH+ihg4mq6zPtVR7f1PiacuAtf9a/tV3tM7F0mdUGf/1yBPMmrFTXvdus3PNQhUr48m1KJEfagOuJrDSR3BKqoC4RzMJH1mDZzA1wq+OKFnfHmtqTIn3Vag6YM2oZlj+1AS0Ja5Zq4vD7//1JDxNbYEMPX9Va+mAjEee617eSGrxOC5Gv1dFVZ/D9wAXqOvV5o4uqxy5JJrlN7+xQ2LC+YqfHW6s8lrD6YZAOG5aDYmyWPK4jOS4wjMbBwomIf6A2Dy05ifFzhqp6/DXgve4IPhBK13khzmy5hHbU99KEnV/uV7+NCzuuFCg+lH57RkR27AlYTw8iLcY2RLVWPnnKedRzUePo149F6tOjLt7Se2MWTl2ttBVPb7qg8r0auCmSW/XcZvKyLIElkVc/evDTAuObGJWM7wctQNiJSHAfOPBvfOIvw4gEo1V/Dy87icF0P+CHMy0w+fGP5s6dXGFjLa+4bVoyK6Gkk8JIMj1AJxdZlAkrITpcn+/kXQN+DVqpT1Xvmvp0jix6bYyy8iaROzNo1WzVfp4CRez41GuO5PgYXDq0E67V6hRqgWlVwy8eh3fdkocP5j4zEHeKUTtJT0miB40MpKvzT9WaL5OtWHSFwlhFPUmrHys9lebQRx8oyjcjB297Nakkmp5WWaT1QQR+Ql79wpY8yui1O1dHAj1tm1ubq08o/dE9A91xkv7Q/NTNT/L5w4a3dhBpuitCYquMw/ntV+DfvpqKM8FkkrzQiXXn1P4e0tEbR0+wpndFYq8GhdLTbbSyZq8fDcf5HU50Y3ZWhLDwkd9ICNYeztUcEX0xBrW71FBtlObr2G9nlF4el719MwUu/lURfjqqxKqs28f94bDzq/3o+HhLFbejiSHJMSk0VpoKt1ouSvW9ET31882KH1ruqCcXEtM1vL5Uk8VnF0xdg6q+Dupc+BpXpfMpbWBLouW4Rtj8wS699Vaaumd/vwQW6eVwasM5Gh+rquIutaoSxlfgRP3hwF4Etro065/T+FR+e+V3fX1O08KpjedU/r6fDqEjjWly4PPhY7FuooYNE+3Or/erfE2A9w5hYYgPW7j2NGnp0NKTcCcyDqPfG0/+4IcDrsMyUfwAVKONL42VnVa6jqrBf/DlSue/9tWt6uExlEiHrTKPunQ9/w7Vt9qVHkROb76o3zeMsMdhID38nFx/Xj2gcl59snzZC8NkyGEreUG6P99BxbWv/b8cphszsPfHQxjz/UCVzJPSjOlzasN59SDGvzt+SOD7AVvtHFYtW4Q1K5YQbvdGdN9O0x3/7L5Nqh3DrwCyqhzd/eAZ0BgufrWx+LVx+uyaTTvR2Fmg2reydaDrQJ2+G/jBOC0pEZa29jj2xzKVytfwqV/+IqvbWCum3/78ZG+kJMah27TXEXbuMJLJ1ZmTlYUGnQbi6O9L9eUMI0mxN2Af0BTdp76G+p0HGWap+JFNC7Fv+bcF0vMnLHh5pEq6fHh3/qx/vC9Ed48Q8k1y+Kd9YUsWR/SlGP2T9T02U3hxalsL/GPMH1g0NYvcbobBws4C1s5WaDZS90PnvFvBsarIrq+D1J/SsDzHYyjfhP78KQaD/uye1AKTI5OqFnhyDQdTK93PJYfGIPWBi5H7igO7Q0eQUKuVowVuXo6FxV2FdpVZiq/0JJ0VwkX5D1rawK5FLSTdTCIi02HHxMyzWw2xCT9NbkON6bRK+bZ8Mxv30xB6usxGXEgCHHxoNmrpu0PuLi/lQmWXMls3RYa7/dTyDScvsQvWuYbOSmCXrG9TT6V/yGXZmlC6glpF2qYlphVKcuyuvMvneiuPq7Hly25wQ2wi6KGiBGjIXW+kSK1+71r632LIoXDlxs/JzsKWD3aiw4xWNEGoKRy87MAW1J8//G3Q0/uLJhtM7Eq7nU4WRu4ECHOa5coPNfvJG5A/8P+oBxEY6y0GzT+iz7ZytMTtG7lWE/+vjEkoWQtM7ppXJuOudazy7v4vGw6qSz9SXWk+f3YPG4Z7JTnDuoXFmZSMjE1wmSysDV++iLjIEH2xQ+vn4fDmRWq/UffhaDX4EX1e7dY9lAsy4WY4Rr8zD/NfGqH+2+s+e5auda4VqlVIT7mtovbOnuBPnbY6S7Z2q+5FEp0XkdzNkIuUvwSXD+/SmtJv46OK+Q/oS/1vI0J094gvPx260hMrj1fwuEUj+sEb3izusTl98ayMLHpCdlH7fKN1ru6IG+d0VopWKDMllwi0tNiQOHryd9QP4HMb2o2+OGuIBWO143Fb7PLUQvjJSHXj4psEEx6Pu2WSYKshGWplDbdMkM41HJXFy9ZC6wlNUIdcpGUR2JU0iJ7Kb9BYyN6fDuZp0ruRh96i4DE+TeyWySI7M5vce7vVTYvPg8eQDEmcG+IbMl9LLfg08YQNPTzMHbOMFOIzaKZsbyWmq+XzlrHjcaxDNF50+a/cmw7nHVl5GifIOp26ZJSyvNgVyGzDpGPnbgvQGB2/EmFJRGMY/Gk88eiq04psfOnVFI34UonI40IT9efN446a9aDV57G1ewkpcanIppv7lg93qXE5vm72HnZ6UuS2VH/dqL8GgQmBLUoeJ4ugMSy+29fqVIPSMpVlU62VLw4uOq5m1TYdVh9tpjQjF/BhPSmyK5Vd/xd3X8Xh5acMWi46ytcwoGtN/E3DCGw5etRzJetN54LkWu2mNUci/Z4Lm4TShNz67G1g97+hJ5Hdkezy1wK78VMJk5KCRmjHaWYnj7WaEDnWaO1LRJqir1q3QSAGDh2JFYvmI/jqZX36P4mc/2szjmxefE9NmJiZo/eM97Btzge4cOB3PDlnHxFXb5zf/ztCThX98OFDbsiszHT8NLOXOp4XWZEDnv2MHhptChzfs1ZD2Dq5Ycv3byA24pr6FChUDhKE6O7xIvANhf94fWmsg2827KLRxkO4KZ6Sza4N9tl3mtlG3VT5j59Mf6I2E5uQlWMBR7qxBnStAXbJnNt6GTdo0slRujm2ntQUPV5or9xKfAwtNOgTQOMv3uSGtFTtc/mLu4NV9oWdV9Ca2h38YU/lpuPXFnaSJReZjyS1trQtD/g3HlyPxh56KxJgV1B6UqbKZgXzFFJAn/DzEPozR9GNrBrO/nExz01Qa8dwm56UrseGiaM6jaPwBBYttJvaDGZkYTE+taif/N5eMLmf2BVVUuAbJOPFBJSf6NgyGfJRb0XE1dv4YPtn+1Rz7Jpid9qIL/upiTN8rS7QDfbyvlxiYtfmsM/64jqNud4kC53dgTyphl12fV7volTg2RV5O0rnUtT6Wb21j3Il1qTzyE90PAbJ580ur46Pt1LnyKR77e8wtJ3WTI21ehE5G7oEuV17+l0MpDEunsjDY07rXjuuDsdWEY+tsRViZFJF/eZ+GbdC5fENOrBfgLLO+LeXGJ2E47+dVXnFfYXRwwwfZxh5J2KC41CznS9OkDvuigFp82+zydB66uEgNjQeB2gSDAcuM+D97uDxNNdazuS2s8MlGpflB4hmIxvQDbEpguma8oQe9npolhHX9aWHCH7g4EkzhkRXt7s/3Ok36E4kxp6BLk+1QSxNkDlB12PXNwdobLWtstrs3GzofUOzPP3ka7GpkJmafBy2LPn8mAw58H/2GOFzauN5tBjTUJEu/wb8O1bHLnJ7lxT4/3+OHlx4Ihefsyu513l872rQdX3VTt16oqqLKzp261FmRKdv/B4i/Wf9l7w2sTi5YxX9d+9g34pv0f2R13HlyG4amsj14ORvstfj7+LG5dPKhcl5104E0bXNQa3mXRF715Ic9MKXylJ09q2lrLjrp/M+fOZvk/f7z/oYxsam8ApoQsdPxaDnPkdS/C3s+OXDwoqXaZoojBcDJ/9R+U9w667vXStq62qtxrP4KfbG+Zs089ARF3ddVdl1u9dUT7ZaWd7yjZXJsFbHanlcLpwXRoP6CRE6d0Edemrl8Y8Idq+RW4TrRF+OUW4rnumphTgiEXYzaYH7U52eKvnF9ggaMzDM08oUtmWrkcfq2GUYez1ezWpjAuRgbGaEmm38YOtqoyaVhByNUOk8/sJ947GNOt1qqidznnlp5WCJ61SGJ4BUJ0Jhdw/f5Hi8jiencAjoXEM9Aaudu198fjzjjWe6Jkbdpn4kqBy2WuKoT3yz48BP8rXoZsSEw+eoBZ4hx9YmW5P8sja3FUqzJ7XAN0Uee2QLiomPSdXQouObPVtSTJZs5V4/knueTCJ8/ePCE4hgrenmmnsz43aZOEOPRZDllfs0X4NuuonUx1t0c2U3II+lMbY8K4/frQzoXFPdqJlY2ZK8TvUZf/7d8Hgpj0takjs64myUwk87D8bdO9BDPUjwuKiGC1uohpY5u6M1dyljz/V4fI+DJbmS2frVrjE/PNSkGZt87aJp4lAIzdrU3JxcnjH3a+ZNE12slJv7ivaAQOfFVgxPaGFi5Ru+5lLnc+SHLTuyBBNpduflv67lna1KdZnU+FwZFy3wRKv8CxYkEfYhNP7KgfOZVBkrxvw2TYDiwP+ZzkSKP49coixTlXj3i8+Pr4dh4Hr8O+XAD008aciCZo/yWJv2cMi/FV/675/bdlmVYw9LAI01n/mDLHMK7OngdqtWc1JW99WgEGX5q0z6sra2Rv2GTXDi6CGkp+c+6Gn597qt0bSDmnwSE6a7xxjW57GzyCunoeU5efjBpVoALgRtVeNqV4/tI8LSDWUYm5igfseBCD13JI/r07A9jgd2HYLQM4cQH5X7AMrvtzFpshvSv3kXVYUnzsRHhyHi4on8TRS634DG74zyjQumpyapvhZaoQwThejKEExpShAQBB4sAjb0gMMegoS7r0w82KPL0SoKAuK6rChXSvopCAgCBRBgq0+CIFASAgWn3ZRUQ/IFAUFAEBAEBIEKhIAQXQW6WNJVQUAQEAQEgXtHQIju3jGTGoKAICAICAIVCAEhugp0saSrgoAgIAgIAveOgBDdvWMmNQQBQUAQEAQqEAJCdBXoYklXBQFBQBAQBO4dASG6e8dMaggCgoAgIAhUIASE6CrQxZKuCgKCgCAgCNw7AkJ0946Z1BAEBAFBQBCoQAgI0VWgiyVdFQQEAUFAELh3BMp8CTCW0Gg2QidPf410mqqRNte2T/fSAsW6lfFZ8dmUpC148djja88gnFbH5xXJ29DK/bzCtpmlGS2uGqWkOHhxXk3805okIp595U1EhIfil9nf3vuZSg1BQBAQBASBhxKBMrXorEiuYvD/9VTq1EdXn0HT4Q1IhNJbaZsxut2fbadWS/974XFaET8WfV7TrYJtSiKK/h2rqRXfWTuqDq1uzivCt5/eQq0Az3XNLcxh5+AAT6+8q5FzngRBQBAQBAQBQaAoBMrUomNZDNbh2vrxHmWxsSXHemdaMDIzURIpGSmZOLjkOOlCndGylO7XsdWnwdIoLCPCwoz1+9TW58fFxuDDt15FBklDSBAEBAFBQBAQBEqLQJladGx+ZZCLUtO0uk1aVYZh+yd7kER6UOPnDMGMtROUiKiWz0KXXI/dl6y2nZ2drWWpLefFx8UiJVmnQ5UnU3YEAUFAEBAEBIEiEChTi44FLS1JwJIFJ5mYWPjRMLDI5eIZa5XqM6s2D/+8L/bNPWxYpMi4kZERRk+YgssXzuHggf1FlpMMQUAQEAQEAUHAEIEyJbqUuFSlojz6u0GkznsJLcc1NjyWIjYnXwese2ObGqvLzspBBikGWztZ5SlX2I5T1apo3LwlatetJ0RXGECSJggIAoKAIFAoAmXqukxPSseyJzcgISIRfs288ee3Qeqg7I7ksOyp9Qg+cB0dZ7SCK1l0a178HTlkBWamZiLq0i1VJi40AanxaSoedVGXxjvxcXG4cPYM/tyxTeXJlyAgCAgCgoAgUBoEqtQIaKhjodKULqGMras1JswdSq8T7EPM1Vh6zSAQHoFuWDBldQk1JVsQEAQEAUFAEPjfIFCmrsvb0cngVwdajm1ErxQYITEqGetf2/q/6bm0KggIAoKAICAIlAKBMrXoSnE8KSIICAKCgCAgCDxQBMp0jO6B9lwOJggIAoKAICAIlAIBIbpSgCRFBAFBQBAQBCouAkJ0FffaSc8FAUFAEBAESoGAEF0pQJIigoAgIAgIAhUXASG6invtpOeCgCAgCAgCpUBAiK4UIEkRQUAQEAQEgYqLgBBdxb120nNBQBAQBASBUiAgRFcKkCp6ETtnDzi4i45fRb+O0n9BQBC4PwTKdGWU++uC1PpfIWBuaY2e099C7Ta91CE+G5N3ke3/1XGlXUFAEBAEyhMClZrorBwt4ehlB9YNMrc2AyneIexYBCmg67TueG1OlxpV1fVITUxD5NloFfeo6wITEoll5fOYkDiw4kIVauMqLUjNwci4CnyaeMLYxFjp50WcvoF00uHTQrXqNTF87AQsnvczIiPCteQSt7VbdYdfYCtcPbYXZla2iI8IQeSV06pejaYdULNpJ2SkJeP0rrWICQ+mfhijWd/xSIy5AVe/AJzdswGNuo/A9TMHcfnwbnSa8DycqwVg7qx+mPbVphKPLwUEAUFAEKiMCBg7Oru9UxlPjM/Jq5E7+r/bHa61qirSaj6qISxszXH9aASqkNN22pLRMLcxg5OfI9pObYbwkzfA63V2ebotGvQLUPVaT2qq6jYbFYgre0OQRgrqXWe1RZNhDYgws1C3hz/821fD+e2X9TCOmTQN3r5+cHRywrHDB/XpxUUGPPMJWg99FLfCLqN2qx5o2nssEm6GI/z8MVRv0h5DX/4WkZdOwt7NG90mv4r9q2YTGZtj1Fu/wK6qG/watUXj7iOJeHPQctBUHN44H7FEhkGrf0RaUiLaDp9B8dnFdUHyBAFBQBColAiUe4vOyKgKOnTpXgD8zMxM7N+zu0B6/oSM5AysfHYTsjNzkByTgoCuNbH350NEdFWw+YNduHYwjCw+YMLPQ1GjjS8iTkepJo6uPI2IM1EY+VV//PHxHkz8ZSgJydoh8cZt1Onuj5WzNiL6Sixp6Vli8oIRsHGxViTJlRf/+jNat++EvTtLLylUq0VXrPnvU7h2Yj9MicBmzt2rPxUX31rISEnC4U0LkBAdAe96zfR5TGzL330EbUc+AXsXT/wx+208/WsQzCysEBN2VV9OIoKAICAIPKwIlHuiq0Kml2+1GgWuT3q6TrOuQEa+hKRbKYrkOJmtNRNz3SnnZN1BjbZ+6PZsO3ITmil3pJExmXl3QzoJwmakZKi9nKxssHo6B1ZJ5zDo/3TjXmqHvmycc4kuMSEBWzet17JKta1CCupMchwyM9IRG3FNxfnr9O51qNuuL6Z/vQXx0aE4uX01ws4eUfnZ2VnIykynvt5GOpFhRnqKvp5EBAFBQBAQBIByT3TZ2dlYOPfH+79WRajtBfavg7rda2LpE+vISkvC8C/6leoYmojs8qc2IO12ur5OZlruGJ2ZmZmyQndtY2HZHH2Z4iLcri25IG/HRKnxQFtnd33xlIRYzH9pBBzIbenboBV6PPIGTu5cTQSuI2J9QYkIAoKAICAIFEAg14QpkFW5E0zMjNUJWtpZoFbHaqjq51CqE87OyEZKbCp6vtxRjffV710bk38dDm5HC1NnPIle/Qdh0vTHtaQSt+nJtzH+P0toMkprdJ38Miyt7fV1uk97HdO/2UxWpymSYtm1WoUszJIJlF8r8KnbTH14Qo4Wt7Qr3bnqOyARQUAQEAQqMALl3qL7J9iyu9GQEHKycpBDFiKHE+vOqvG6wR/1Quz1BIQcDqc8HXno6t0Buzdpoqb6ZFMej/OR4YXlT2/AYHJdspp6ZmoWtv53D1Lic12pu7b9odytO/7YrI5Vmq+fnuyFwS9+jeGv/YCLf29HbOQ1fbW9S7+Ca7XamPr5WpW2b/k3yk1pakbkyh2iwC5MMh9VnMft+Bya9hmL5v0mqjT+GvX2Lyr+x+y3cIrcoRIEAUFAEHgYEHjohVf5VYGcbB1Z3OsFV3V57O7+quc53IwftuFC0B/YvfAzWNk7YcYPO7DyP9Nx/fQhfTl+nYCJW3Of6jMkIggIAoKAIFAkAg890RWJzAPO8KzdEGPfW6je9eNDXyKrbv0XLzzgXsjhBAFBQBCofAgI0VW+aypnJAgIAoKAIGCAwEM7GcUAA4kKAoKAICAIVGIEhOgq8cWVUxMEBAFBQBCg958FBEFAEBAEBAFBoDIjIERXma+unJsgIAgIAoKAWHTyGxAEBAFBQBCo3AiIRVe5r6+cnSAgCAgCDz0CQnSV5Cdg72ELr4a562NWktOS0xAEBAFB4B8jUKmXAPvH6JSjBpx87ZXuXRqpKlzYcTmP0Ct3s+dLHeFc3RGzhy5Wy3/9067XbOubp4nEqCTcJFmi0gS/Zl7wbuyO+PDbOEc6fbz0GochtNzaxnd2IDONlisro2BuWxWO1RvlaS3uyjHCJ06lGZmYwrtZf1g6eyP0wG9IiQnLU1Z2BAFBoPIj8NAT3fQVY/DzyKXl+ko3GVYfbSY3VaKvrJTejkRi509aiZSEXPWEze/vVHJDmpzQPz2hLs+0U5p9ZhYmtK5mJi7/GYzd3x0osdlhn/aBex0XkkRKUtJFrSc2wcJpq5FBa4JWJSJmHcCyDK512yFw9LtEprlKDkfnPY/oc/toEWwTdHxpDcztnZEWH40aXSbjwDeTERdyqiy7IG0JAoJAOUfgoSA636aedNO1wtWgUL20ji0JpZqRuriZlam6AfN1YpFW1qzTAmvMeTZww5V915B91yohEQC41XJWReIjE2HlaEW6dr4IPRaBqAu3VLoFtevdxINEXKOREpeqNae23A+uH3wwFFV9HRAblqDXy+MCPo09kEXK5ZHnburr1e5cA/t+OoyTG8+xRiymLh6Frs+2V9aRubUpHL10SgdMSIaB1+J0rVnVMIl06zLVMbVEBy87VK3miOAD1/Os+TmHyN/OzUYJz84ZvUwrrrZupNjO1p1HA1eYWZoh+O9Qlc5tMcktfnQt4iMSKc+URGmHw6eJJ67sv65vg+ubUB4ruucP/QYNRej1EJw8ptPby5+ff9/SyQu3zu/HwZ9m5s+Cg18DWDi6YfvrnZCVkYpmUz5HvSEv63w6lQAADqdJREFU4a8vJxQoKwmCgCBQeRGo1ETHN/opRArmRGasHdfl6bZY9/pWhJ24gR4vdIBHfVd1ZUd/M0BtQ49GYv1bOlXw4Z/1hVuAMwkC3KGy7fHn93/j9OYLMCZ5H5bosSUS4Ju9S00nVZfJjYlu4Ac9FFlpPxmuw3U59H61E2q281MadUYktMph6ePrEBuaAGNTI8z4bbwiVCazjNRMzBu/Qkc+pFBQq4MfThHRsVjB3LHLVV3+8mvhjY6PtyZB2CqIo3ZWPrNJn8fEM4zOQx+o4VvU5+Wkjs6W1djZg2HvbgOWHjKx6ISlM9cjNiReX7ywCPeTtfs0pQclVkueye8GLlBSRwmRtxXJcV0+B1ZnT6AHAi1Mmj8cpmQlVqEnhnR6sJg7Zhm5WnW5NfxroVN3naDtmy88jfT0XItVq59/a+nkSe7IUHg16wsLOxdc2b1Ar+hQtWYLxF87oUjOytEDLmT9GZtaEFZmeSzA/G3KviAgCFQuBCo10Vk5WIIJaNXzmxUJVW/lo2R1+BKuefl3dSVnbpyI7/rTzdEgeNRzhWttZ/wybgVSE9JQs40ver/eWRFdVno2Fkxbo0jCjkiC3Z5sJWkh7PgN7Ph8H5JJs675yEA0GlxPEZ21o6UiuXWvEtGeuqHG00bdJViu2+e1Loi5FodlT25g6ThMIo27wH51cGL9Oez/5Qj6vtUVT2yYqMhhO7V/7e8wdciLu4PBH//2fmgyvIHWDbVl+aHvBujOrV4Pf7R/tCVWPLNR5fk08iCVBHPMHrJIkWm3WW3R5ak2WP3CljxtFLWz5YPduHYojIjDmAh6nCrG1qo2/mbtZAn+pManIj0pF59zWy5h3y+HwXqAj64eS+K3tXB26yVVP/jKZQRfuYjw0NBSkRxXMrdxhHOLAXBv1IPOIxsBA5/F3o+G4HZUMKxcfJGZkgi3eh3R7JGvcOPkDnhQORMzS2QYuDrVweVLEBAEKi0ClZrokmNTlAXD1lnSrRQcWX4S14+Gl3gxWYQ19nqcIjkufCXouprgwQR0V/5NtXFl77U8JMeJocfC0f3FDnCp4QQeT9NUyC3sLZS1xiTH4VZwHOXljit5k8vSyMRIERznW1e10luLoccj8SNNMmFyaj66Ifq+0RUnN5wjd2auhA/XKSo4eNqhCxHZoum/6ftvT2lm1L8Jc4epapZEekxa+c+xqDZjQnSTPbIzdfp+XI4tM7bUONTp7k8k5g9rIr9jq07j4JITKv0QXQMOWWRFsgXsUoss4q0qSckP/fDlZ7qdUn5HHt+GsEMbEHHsD1WjzZNz0XTal/jzw0HITk+FV/N+cCWiO7HoNSRFByuiu5OT2+dSHkaKCQKCQAVGoFITHZMSu+l46n2DfgFoS5M4eEKE5krUrlv+m3tWRg6510y1bJrUQDfvuzdwfSJF4iNuG+6qckyqJ9aew47P9oEJpternVQZ1pEzJiJj1x8LuHJzHNcCz0xky+bY6tNakiJRLufd2BNR56MReiJSfQa+3x2NBtYtFdHxGN6Y7wdi7+yD5ELM7W92VjZZkPHY9N4O/fGU4GxptfUKKccWqYWduWrvyIpT4M/QT/roxzc5w5wsbHZZavEcwsIwuLi6Ii0tDbcTc92dhvn540nR1/LMpAw7uA51BjynijGxValijP3fTkR8yGn4thlKbuNs5crM347sCwKCQOVFIPdOWwnP0dHHHhPmDFU318PLTiorytrJqsCZthjbGFYOFjR5Qsf7URduqokYNdv6wcLWjFx6bdWYlGbNmZgbK+uH3W8c1zjQlCZYsFV2nSam3CEx1/aPtNAfK+lmshrvazulOWxdrdFqQhM1VqUVuLQ3GHW61lT1WMiVXxcI6Eb7FO/+XDuaddlM9cmGLD0m0Miz0aoqk7AZkRmPe/G4nxbnzCp0dUd+NQDRl2JwaU8wLImEmPg48Hiek5899cWG3LmZaEpuz+7Pd1B5/MV95Mk4PJbHcQtbHYHpCxQSiQtPUO7KFmR1WpGr1pcmobjTOGfkGV1fuUq/N7soa9Ur0B2O3vak7B6hb8nVzR0vvvk+Xn/vI5iYlO4ZrGa3qWjx2PewsHeBhYMrTTZ5GTGXdZburQtBhF8OnbOjcnFW6zgOYQdWk+UpFp0edIkIAg8BAqW7m1RQINiCuUVWxgiaPMGB3Zd/5psif2DBMTQb0QAtxjQkt2YENry1HXE0EzLo16Po+kxbNSvzNtVb/uR61QZbYY+t1o1JtRzfGPzhd8NCDofTWFQGzey8jkH/4fEistD+uAx/Fz9Vj6fXb/1oDzo+0QqB/QMQRu5IbTyLC+z6OghONAuTJ2uwsRRFsy7P0ztoHHZ+tR/diOzYKuUQF5aIjW9vV/H6fQPQ8bGWKs5f05ePIbdrPJY+sZ5mXDqDxxH5M3XJKFWG8VhO44BMlKc3XcSgD3sSQVZRY4qb3s217ib+onNpciWOX9x9Fds+3afci6ohjfXVju4rJS4Nu78JQgfqD+PCVuqZLRfpWFH6UjzTctI8XduX94XkcSWnpaUiNSVZWXM5ZAGXJpxa+T5aPf4Tur6zjWakVkFC2DkcW/CSqsrW3tWd82h87mt6GDEi1+U1XNjyfWmalTKCgCBQiRB4KIRXTcnqMiFXZGpiGg0kFX71NJdinlxyG/I4GxPYvQR2z2WkZOjGrKgiH5ItrrZTmhH5XVJExLM2x/4wCAumrEZSTIq+ec2qZGI0DGxZ2ZFllZ6cqR/3M8y/3zhboGzlpRq8k3e/bWn12MrkVxNukxXLbtr8gc+F3bg8Tpc/sHVcCIfmL1Zg39yuKnIy0ujhIff1EK2QiYU1TC3tkBoXqSXJVhAQBB4iBB4KoisP15Nv4L1f7UyvA3jRiiGJNG5op9yJu8gCKquXvMvDeUofBAFBQBAobwgI0T3AK8Jkx+NSPNsxNT4NiVG378t6eYBdlkMJAoKAIFDhEajUY3Tl7eqwS45fDpcgCAgCgoAg8OAQqNSzLh8cjHIkQUAQEAQEgfKKgBBdeb0y0i9BQBAQBASBMkFAiK5MYJRGBAFBQBAQBMorAkJ05fXKSL8EAUFAEBAEygQBIboygVEaEQQEAUFAECivCAjR/Y+uDL9GoC0N9j86hDQrCAgCgoAgUAoEjB2d3d4pRTkpchcBXj+yJa2N6dXQXX2SY5LzqBBwMRZ1HT9nCJJjUkmzLkawEwQEAUFAEPgXERCL7p7B1y1fxUtYsWQOr0+ZP/ACzqc2XcBVUu0uz8EloA26vbsd/b44oRY9Ls99lb4JAoKAIHC/CFRqomN1AV4fklff5+BMEj2+TT2V6KcGmCXpxLn6V6Xd3EUwmcRYRJRdj0xkZqRQrgVerito/lH14ZXx8weux8c7TnI7LNqaP7DaASuXs2uzsOBIquBafw3z+VzcAlxQtRoRK/Urf6hJ6tz+tevkTy5y3z2wq1r1P/buSv9FFpQMQUAQEAQqOAKVemUUJhQWKWXpmqtBoajRxkddriWPr1MyNf3e6oJqLX2UXhpL1ax8ZhMty5UEVhgfSAoErHbAbkgOrHLA+molhRFf9lfEyMQ0e/BCajuXQN3rumDAO91pgWETJX8TfuIG1r+1TSl8MwGyCCrLBXHQlBQ4zkrdo78bpPTruNytq3FYQTp7WrC1tcVjs15QqyG//8ZLpdJyS0+Kwb5PRyptNs+mfbWmZCsICAKCQKVDoFITXfipKDCpTV4wXFlJix/9TYl+shoBr67PJDdv/ApSNUhHT1IF7/JUG6x7Y5u6yKyUfYCkei7tvYYGLIUzoyWOrjxV4tqU3B6Hx9bopHzUzt2vzjPbkFZdOLZ9shcOXvYY9c0ApS3Hy4LVaOOHCJKw2fHlX2S1OWL4531hT/I6CTeSUL93AOnU5WDO+OVEomZoPz1X546bTk1NQUR4KIyNjJGSXHD1fsM+aPG4YJ3it5Wzt5YkW0FAEBAEKiUClZroDK/Yvp8O5VEE9+9YXWV3fKK12lram5PlZGVYBZf3XVPKAqc2nicR1eZ58u51h6VrnPwclMszh0RZWTNuzuilyErTyfGw3htbniy4annXqjO3YbHTJISfuoEWYxti9LcDce1gGOnT/ZXn8FmkFv7lRx/kSZMdQUAQEAQEAR0CDw3RsTSOYWCxUQ5nf7+oTzYUQuVEQ120XAekvvg9R9TrBgaCopkGmnNDP+5Natwu2P3DAcSThTfkv7317TPRzZuwAnW7+6PZqIZoOKguuUUX6fMlIggIAoKAIFA0ApV6MorhaeefOBJx+obK5rEw/piYmaBe71qGVeBBY2ocarbzU0KheTLvcYetuMTIJGqrmqppYWtOSuVj9bM2XWk88UpQiBJmTUtKz9N66wlN0GhgPRxZeRo/j1ii8hw8bfVlzM3N8eEX3+I/n30DU9PciTP6AhIRBAQBQeAhRqBSW3RMVEM/6aMu79TFo9R29pBFSvU64kw00mhW5MyNE1U6W29/fn8gz0+hz5tdYMHuQ8o7vFw3PsczMmesHa8v1+eNLiq+6d2duHYoTJGXibkO1hlrJ6i85U9twK3gOOz6Zj8GftADdXv6q/T4iNuIC4tX8SPLTqHl+Ebw71AtV3n7rhkZdekW+rzeGU1HNFBlc7Jy8rhhTUxMYGxMxzQGTIjoMjMzVbnivrxbDkSjMe/ri3R/f7eK7/l4CG7fuKpPl4ggIAgIAhUdgYdeeNWIiIuto9jruTpx3vQy+KAPe+K7AQtgR7MuefZlDr1WUFbB3sNWvXqQkZKXkLgvbOmlxKWqVxsMXaeocgeONIGFyTn1dkaBrii3KL13cCdPpQLFJEEQEAQEgYcOgUpt0ZXmarJ1ZEhy+eskRpduFmP+esXtJ0TeLjSb+8Ikx6EAX92pQtZf3nFGw0Z05cuOjA3blrggIAgIAhUZgYfeoivs4pnSu2oO9EL3zSuxhWVLmiAgCAgCgkAFQuChmYxyL9ckMz1bSO5eAJOygoAgIAiUYwSE6MrxxZGuCQKCgCAgCPxzBP4feea5Bm0atLQAAAAASUVORK5CYII=;" parent="1" vertex="1">
          <mxGeometry x="40" y="289" width="357" height="420" as="geometry" />
        </mxCell>
        <mxCell id="bxGKdZcUwFsUMawT34U8-105" value="" style="shape=document;whiteSpace=wrap;html=1;boundedLbl=1;rounded=0;shadow=0;glass=0;dashed=1;labelBackgroundColor=none;labelBorderColor=none;sketch=1;fontFamily=Comic Sans MS;fontSize=15;fillColor=#eeeeee;strokeColor=#36393d;opacity=60;size=0.08695652173913043;" parent="1" vertex="1">
          <mxGeometry x="40" y="289" width="358.5" height="460" as="geometry" />
        </mxCell>
        <mxCell id="bxGKdZcUwFsUMawT34U8-112" value="" style="endArrow=classic;html=1;rounded=1;sketch=1;fontFamily=Comic Sans MS;fontSize=15;fontColor=#FFFFFF;curved=1;fillColor=#ffff88;strokeColor=#A680B8;strokeWidth=4;entryX=0.005;entryY=0.825;entryDx=0;entryDy=0;entryPerimeter=0;" parent="1" source="bxGKdZcUwFsUMawT34U8-104" target="bxGKdZcUwFsUMawT34U8-12" edge="1">
          <mxGeometry relative="1" as="geometry">
            <mxPoint x="520" y="560" as="sourcePoint" />
            <mxPoint x="450" y="260" as="targetPoint" />
            <Array as="points">
              <mxPoint x="440" y="250" />
            </Array>
          </mxGeometry>
        </mxCell>
      </root>
    </mxGraphModel>
  </diagram>
</mxfile>
